<svg width="439" height="268" viewBox="0 0 439 268" fill="none" xmlns="http://www.w3.org/2000/svg">
<path d="M370.079 134.353C402.824 138.032 428.208 164.048 428.208 195.627C428.208 229.717 398.615 257.365 362.103 257.365H76.897C40.3854 257.365 10.7924 229.717 10.7924 195.627C10.7924 164.048 36.1763 138.032 68.9213 134.353C67.4534 129.243 66.6654 123.881 66.6654 118.346C66.6654 84.2467 96.2585 56.6085 132.77 56.6085C140.508 56.6085 147.945 57.8681 154.852 60.1568C160.917 31.9132 187.63 10.6357 219.651 10.6357C251.64 10.6357 278.33 31.8636 284.439 60.0663C291.259 57.8385 298.588 56.6093 306.229 56.6093C342.741 56.6093 372.334 84.2475 372.334 118.347C372.334 123.88 371.547 129.243 370.079 134.353Z" fill="white" fill-opacity="0.2"/>
<path d="M339.432 64.947C337.781 64.0502 336.087 63.2182 334.351 62.455L339.432 64.947Z" fill="white" fill-opacity="0.2"/>
<path d="M339.422 75.0289C337.578 75.0289 335.711 74.5876 334.003 73.6603C332.626 72.9116 331.195 72.2109 329.752 71.5767C324.359 69.2056 322.045 63.2005 324.584 58.1636C327.123 53.1267 333.552 50.9646 338.946 53.3365C340.952 54.2182 342.942 55.1943 344.859 56.2361C350.011 59.0365 351.756 65.2057 348.759 70.0184C346.756 73.2335 343.138 75.0289 339.422 75.0289Z" fill="white" fill-opacity="0.2"/>
<path d="M362.103 267.445H76.897C34.4949 267.445 0 235.228 0 195.627C0 162.956 23.5465 134.869 56.3592 126.417C56.0351 123.74 55.8739 121.047 55.8739 118.347C55.8739 78.7461 90.3706 46.5299 132.771 46.5299C137.696 46.5299 142.577 46.9671 147.375 47.8343C158.251 19.9015 187.034 0.557014 219.652 0.557014C252.235 0.557014 281.018 19.8839 291.917 47.7855C296.623 46.9511 301.408 46.5307 306.23 46.5307C312.191 46.5307 317.022 51.0431 317.022 56.6101C317.022 62.1771 312.191 66.6895 306.23 66.6895C300.011 66.6895 293.879 67.6625 288.002 69.5811C285.057 70.5429 281.813 70.2674 279.101 68.826C276.39 67.3854 274.48 64.9198 273.861 62.0642C268.671 38.104 245.873 20.7143 219.651 20.7143C193.391 20.7143 170.589 38.1361 165.434 62.1387C164.82 65.0055 162.9 67.4807 160.178 68.9237C157.454 70.3675 154.195 70.6334 151.244 69.6564C145.299 67.6865 139.083 66.6879 132.77 66.6879C102.272 66.6879 77.4578 89.8617 77.4578 118.346C77.4578 122.874 78.0923 127.381 79.3458 131.742C80.1561 134.564 79.6159 137.577 77.8616 139.998C76.1082 142.419 73.3173 144.011 70.21 144.36C42.4895 147.476 21.5847 169.515 21.5847 195.628C21.5847 224.112 46.3977 247.287 76.897 247.287H362.102C392.601 247.287 417.414 224.113 417.414 195.628C417.414 169.515 396.51 147.476 368.789 144.361C365.682 144.012 362.89 142.421 361.138 139.999C359.385 137.579 358.844 134.565 359.653 131.743C360.905 127.383 361.541 122.876 361.541 118.348C361.541 108.361 358.488 98.6735 352.713 90.3342C349.477 85.6592 350.91 79.4188 355.914 76.3958C360.92 73.3721 367.601 74.7118 370.838 79.3851C378.878 90.994 383.127 104.466 383.127 118.347C383.127 121.047 382.965 123.74 382.642 126.417C415.453 134.869 439 162.955 439 195.627C439 235.228 404.503 267.445 362.103 267.445Z" fill="white" fill-opacity="0.2"/>
</svg>
