<svg width="830" height="1344" viewBox="0 0 830 1344" fill="none" xmlns="http://www.w3.org/2000/svg">
<path fill-rule="evenodd" clip-rule="evenodd" d="M269.5 0.5C273.167 0.5 276.833 0.5 280.5 0.5C281.73 2.29719 282.396 4.29719 282.5 6.5C291.303 6.39384 299.803 4.72717 308 1.5C310.321 1.90949 312.487 2.74282 314.5 4C314.167 4.33333 313.833 4.66667 313.5 5C318.155 5.49915 322.821 5.66582 327.5 5.5C327.01 7.94835 327.843 9.61502 330 10.5C335.264 7.72075 340.431 7.88742 345.5 11C349.486 11.4988 353.486 11.6655 357.5 11.5C357.5 10.5 357.5 9.5 357.5 8.5C374.313 9.30957 390.979 11.3096 407.5 14.5C413.817 13.3916 420.15 12.3916 426.5 11.5C430.818 12.8016 435.151 14.1349 439.5 15.5C441.5 15 443.5 14.5 445.5 14C445.043 13.586 444.709 13.086 444.5 12.5C445.5 12.1667 446.5 11.8333 447.5 11.5C455.753 13.4803 464.086 14.9803 472.5 16C473.875 18.4772 475.709 19.3106 478 18.5C480.944 19.2566 483.944 19.9233 487 20.5C489.645 19.084 492.479 18.4173 495.5 18.5C509.404 20.8571 523.404 22.3571 537.5 23C541.47 25.1643 545.804 25.6643 550.5 24.5C550.281 23.325 550.614 22.325 551.5 21.5C555.392 23.0735 559.225 24.7402 563 26.5C565.746 24.9044 568.58 23.571 571.5 22.5C576.462 24.8923 581.628 26.8923 587 28.5C589.134 27.9152 590.634 26.5819 591.5 24.5C593.323 25.4909 594.823 26.8243 596 28.5C598.382 27.1337 600.548 27.467 602.5 29.5C603.167 28.8333 603.833 28.1667 604.5 27.5C607.888 29.8606 611.554 31.6939 615.5 33C617.049 34.214 618.215 35.714 619 37.5C619.483 36.552 619.649 35.552 619.5 34.5C620.833 34.5 622.167 34.5 623.5 34.5C623.066 37.1662 624.066 38.3329 626.5 38C621.661 31.5032 623.161 29.3365 631 31.5C632.707 26.9793 635.374 26.3126 639 29.5C639.308 28.6919 639.808 28.0253 640.5 27.5C643.118 30.8876 646.618 32.8876 651 33.5C653.473 32.4829 655.973 32.4829 658.5 33.5C658.699 31.0401 659.365 28.7067 660.5 26.5C662.493 28.6655 664.327 30.9989 666 33.5C670.877 31.4806 674.543 32.8139 677 37.5C678 35.8333 679 34.1667 680 32.5C681.139 36.1122 682.806 39.4456 685 42.5C686.054 40.2464 687.554 39.913 689.5 41.5C690.308 41.1924 690.975 40.6924 691.5 40C690.133 37.6985 689.466 35.1985 689.5 32.5C690.675 32.281 691.675 32.6143 692.5 33.5C693.407 36.0567 694.407 38.5567 695.5 41C698.353 42.5336 701.186 44.0336 704 45.5C705.612 51.3912 708.279 56.7246 712 61.5C711.663 65.1827 713.163 67.516 716.5 68.5C716.281 69.675 716.614 69.675 717.5 70.5C718 71 718.5 70.5 718.5 70.5C719.15 70.1961 719.817 69.8627 720.5 69.5C722.65 71.1491 724.65 72.9824 726.5 75C728.436 75.813 730.436 76.313 732.5 76.5C732.5 74.8333 732.5 73.1667 732.5 71.5C734.401 71.5668 736.234 71.2335 738 70.5C739.477 71.444 740.477 72.7774 741 74.5C740.582 79.4645 740.582 84.4645 741 89.5C741.333 89.1667 741.667 88.8333 742 88.5C743.811 91.3965 743.978 94.3965 742.5 97.5C744.282 101.203 746.282 104.703 748.5 108C747.591 109.789 747.424 111.623 748 113.5C750.05 111.112 752.384 109.112 755 107.5C757.798 108.689 760.464 108.356 763 106.5C766.999 107.657 767.499 109.657 764.5 112.5C765.5 113.333 766.5 114.167 767.5 115C763.597 119.745 761.43 125.245 761 131.5C759.667 132.167 758.333 132.833 757 133.5C756.468 136.264 755.634 138.93 754.5 141.5C754.833 141.833 755.167 142.167 755.5 142.5C758.344 140.897 761.344 140.397 764.5 141C767.837 144.973 771.503 148.473 775.5 151.5C774.199 154.427 773.199 157.427 772.5 160.5C776.206 159.71 779.872 158.71 783.5 157.5C785.167 157.833 786.167 158.833 786.5 160.5C785.097 162.731 783.93 165.064 783 167.5C779.053 169.78 775.387 172.447 772 175.5C772.152 177.076 772.985 178.409 774.5 179.5C773.209 181.959 771.209 183.459 768.5 184C773.136 187.094 776.469 191.261 778.5 196.5C778.291 197.086 777.957 197.586 777.5 198C783.991 204.148 787.991 211.648 789.5 220.5C790.814 221.313 791.981 222.313 793 223.5C791.918 226.293 791.585 229.293 792 232.5C794.318 235.786 796.651 239.12 799 242.5C799.333 245.5 799.667 248.5 800 251.5C805.576 259.995 808.91 269.328 810 279.5C810.639 282.112 811.806 284.446 813.5 286.5C812.975 287.192 812.308 287.692 811.5 288C817.456 296.614 818.789 305.78 815.5 315.5C816.977 318.952 818.31 322.452 819.5 326C818.189 341.19 818.189 356.356 819.5 371.5C817.336 382.112 817.002 392.779 818.5 403.5C815.489 421.076 812.989 438.743 811 456.5C800.823 492.207 790.49 527.874 780 563.5C777 571.167 774 578.833 771 586.5C758.292 606.919 747.959 628.586 740 651.5C731.501 661 724.168 671.333 718 682.5C706.509 695.656 696.176 709.656 687 724.5C674.815 759.265 677.148 792.932 694 825.5C709.504 840.996 723.504 857.662 736 875.5C740 880.167 744 884.833 748 889.5C774.733 916.068 801.899 942.068 829.5 967.5C829.5 968.167 829.5 968.833 829.5 969.5C641.851 1094.14 454.184 1218.81 266.5 1343.5C268.266 1315.7 271.766 1288.04 277 1260.5C290.98 1243.21 303.98 1225.21 316 1206.5C336.502 1179.66 355.835 1152 374 1123.5C378.667 1117.5 383.333 1111.5 388 1105.5C395.318 1088.55 400.818 1071.05 404.5 1053C365.88 1005.59 327.38 958.092 289 910.5C283.747 906.12 277.914 902.62 271.5 900C254.502 899.438 237.502 898.938 220.5 898.5C189.839 899.667 159.172 900.167 128.5 900C115.499 900.312 104.999 895.479 97 885.5C90.0247 878.598 85.6913 870.265 84 860.5C83.2199 846.814 83.3866 833.147 84.5 819.5C81.0132 802.529 72.8465 788.196 60 776.5C57.5605 768.545 58.2272 760.878 62 753.5C66.5664 748.934 71.0664 744.434 75.5 740C70.7676 734.274 65.101 729.607 58.5 726C56.8767 723.92 55.3767 721.754 54 719.5C52.5865 711.441 53.5865 703.775 57 696.5C61.0267 681.765 57.1934 669.599 45.5 660C30.7472 652.88 16.9139 644.38 4 634.5C2.78739 632.075 1.62073 629.741 0.5 627.5C0.5 622.5 0.5 617.5 0.5 612.5C5.14657 605.215 9.31323 597.548 13 589.5C18.0336 584.801 22.7002 579.801 27 574.5C35.2562 558.32 43.2562 541.987 51 525.5C56.7362 519.028 61.7362 512.028 66 504.5C68.2668 498.533 70.4335 492.533 72.5 486.5C70.5044 483.673 68.0044 481.339 65 479.5C64.2078 477.413 63.0412 475.579 61.5 474C65.4675 474.368 69.4675 474.868 73.5 475.5C72.969 472.763 72.1356 470.096 71 467.5C68.6078 464.772 66.6078 461.772 65 458.5C56.7343 452.238 49.0676 445.238 42 437.5C41.5006 431.843 41.3339 426.176 41.5 420.5C44.1178 420.221 46.6178 419.554 49 418.5C49.0715 398.934 54.0715 380.601 64 363.5C72.5673 351.249 79.9006 338.249 86 324.5C87.7024 318.585 89.0357 312.585 90 306.5C93.3194 300.391 95.4861 293.891 96.5 287C96.0097 285.018 95.0097 283.351 93.5 282C86.3471 281.578 79.6804 279.578 73.5 276C64.6752 269.421 55.6752 263.087 46.5 257C43.3333 253.167 40.1667 249.333 37 245.5C33.841 238.512 30.1744 231.846 26 225.5C20.0988 210.186 16.5988 194.352 15.5 178C16.3354 167.955 18.3354 157.955 21.5 148C21.8333 147.5 22.1667 147 22.5 146.5C25.4637 148.121 27.4637 147.288 28.5 144C29.448 143.517 30.448 143.351 31.5 143.5C31.3205 141.046 31.9872 138.879 33.5 137C31.8767 133.384 32.21 130.05 34.5 127C33.6634 125.989 33.33 124.822 33.5 123.5C35.5 123.833 37.5 124.167 39.5 124.5C39.5 122.5 39.5 120.5 39.5 118.5C40.5 118.5 41.5 118.5 42.5 118.5C42.3505 119.552 42.5172 120.552 43 121.5C43.4935 119.866 43.6602 118.199 43.5 116.5C44.5 116.5 45.5 116.5 46.5 116.5C46.1774 112.774 46.5108 109.107 47.5 105.5C50.3276 106.996 51.9943 109.329 52.5 112.5C53.325 113.386 54.325 113.719 55.5 113.5C55.3505 112.448 55.5172 111.448 56 110.5C57.8961 109.32 59.3961 107.82 60.5 106C58.3692 102.13 58.2025 98.2969 60 94.5C61 95.5 62 96.5 63 97.5C64.1989 94.2744 64.6989 90.941 64.5 87.5C65.5 87.5 66.5 87.5 67.5 87.5C68.4245 83.2098 69.0912 78.8765 69.5 74.5C74.2024 76.3258 77.8691 74.9925 80.5 70.5C82.9009 72.5341 85.5675 72.7007 88.5 71C89.7938 68.913 90.9605 66.7463 92 64.5C94.7207 63.3389 97.0541 64.0056 99 66.5C100.385 65.4495 101.385 64.1161 102 62.5C103.667 57.5 105.333 52.5 107 47.5C108.52 50.3823 109.853 53.3823 111 56.5C112.356 57.3802 113.856 57.7135 115.5 57.5C116.213 52.6464 117.546 47.9797 119.5 43.5C120.517 46.028 121.684 46.028 123 43.5C124.327 46.1315 125.66 48.7981 127 51.5C129.588 47.326 131.921 42.9926 134 38.5C134.667 39.1667 135.333 39.8333 136 40.5C137.362 37.7644 139.196 35.4311 141.5 33.5C142.5 35.5 143.5 37.5 144.5 39.5C148.4 30.0992 154.9 23.0992 164 18.5C166.233 20.7474 167.9 20.0807 169 16.5C169.915 17.3279 170.581 18.3279 171 19.5C174.37 16.465 177.37 13.1317 180 9.5C181.11 13.2789 182.61 13.4456 184.5 10C187.49 9.15312 188.824 10.3198 188.5 13.5C190.722 13.178 192.556 13.8446 194 15.5C196.718 13.2292 198.551 10.3958 199.5 7C204.82 5.5451 210.153 5.21177 215.5 6C217.305 5.02799 218.972 3.86132 220.5 2.5C222.478 5.19962 222.811 8.03296 221.5 11C224.015 12.7129 226.682 12.8795 229.5 11.5C230.92 9.29113 232.587 7.29113 234.5 5.5C237.026 4.57622 239.526 3.57622 242 2.5C242.5 2.83333 243 3.16667 243.5 3.5C241.24 5.4071 241.073 7.4071 243 9.5C244.214 7.95118 245.714 6.78451 247.5 6C250.811 6.21478 254.144 6.21478 257.5 6C259.298 2.84412 261.798 2.01079 265 3.5C266.409 2.21886 267.909 1.21886 269.5 0.5Z" fill="url(#paint0_linear_16_35)"/>
<defs>
<linearGradient id="paint0_linear_16_35" x1="415" y1="0.5" x2="415" y2="1343.5" gradientUnits="userSpaceOnUse">
<stop stop-color="#04112F"/>
<stop offset="1" stop-color="#051A5E"/>
</linearGradient>
</defs>
</svg>
