<svg width="40" height="36" viewBox="0 0 40 36" fill="none" xmlns="http://www.w3.org/2000/svg">
<path d="M37.0392 0.00334667C36.5222 0.0273905 36.0353 0.177664 35.6026 0.345971H35.5965C35.1577 0.520288 33.0719 1.39789 29.9042 2.72631C26.7364 4.06074 22.6249 5.7919 18.5435 7.51103C10.3926 10.9433 2.37999 14.3214 2.37999 14.3214L2.47616 14.2854C2.47616 14.2854 1.92316 14.4657 1.3461 14.8624C1.05157 15.0548 0.726975 15.3193 0.444461 15.734C0.161946 16.1488 -0.0664715 16.7859 0.0176827 17.4411C0.155935 18.5532 0.87725 19.2204 1.39419 19.587C1.91715 19.9597 2.41606 20.134 2.41606 20.134H2.42808L9.94177 22.6647C10.2784 23.7466 12.2319 30.1663 12.7008 31.645C12.9773 32.5286 13.2478 33.0816 13.5844 33.5024C13.7467 33.7188 13.9391 33.8991 14.1675 34.0434C14.2576 34.0975 14.3538 34.1396 14.45 34.1756C14.48 34.1937 14.5101 34.1997 14.5462 34.2057L14.468 34.1877C14.4921 34.1937 14.5101 34.2117 14.5281 34.2177C14.5882 34.2357 14.6303 34.2418 14.7085 34.2538C15.8986 34.6144 16.8544 33.8751 16.8544 33.8751L16.9085 33.833L21.3446 29.7937L28.7801 35.4981L28.9484 35.5702C30.4992 36.2494 32.0681 35.8707 32.8976 35.2035C33.7331 34.5303 34.0577 33.6707 34.0577 33.6707L34.1118 33.5325L39.8583 4.09681C40.0206 3.36948 40.0627 2.69025 39.8824 2.02904C39.702 1.36783 39.2392 0.748705 38.6802 0.418102C38.1151 0.0814888 37.5561 -0.0206972 37.0392 0.00334667ZM36.8829 3.1591C36.8769 3.25527 36.8949 3.24325 36.8528 3.42959V3.44762L31.1605 32.5767C31.1364 32.6188 31.0943 32.709 30.9801 32.7991C30.8599 32.8953 30.7637 32.9554 30.2648 32.7571L21.1702 25.7843L15.6762 30.7915L16.8303 23.422C16.8303 23.422 31.0763 10.1438 31.6894 9.57279C32.3025 9.00175 32.0982 8.88153 32.0982 8.88153C32.1402 8.18426 31.1725 8.67716 31.1725 8.67716L12.4363 20.2843L12.4303 20.2543L3.44994 17.2308V17.2247C3.44393 17.2247 3.43191 17.2187 3.4259 17.2187C3.43191 17.2187 3.47398 17.2007 3.47398 17.2007L3.52207 17.1767L3.57016 17.1586C3.57016 17.1586 11.5888 13.7805 19.7396 10.3482C23.8211 8.62907 27.9326 6.89792 31.0943 5.56348C34.2561 4.23506 36.5944 3.26128 36.7266 3.20719C36.8528 3.1591 36.7927 3.1591 36.8829 3.1591Z" fill="white"/>
</svg>
