<svg width="9" height="18" viewBox="0 0 9 18" fill="none" xmlns="http://www.w3.org/2000/svg">
<path d="M8.51478 16.0575L8.26328 17.0856C7.50877 17.3834 6.90606 17.6101 6.45726 17.7659C6.00797 17.9222 5.48593 18 4.89113 18C3.97772 18 3.26725 17.7762 2.76053 17.3318C2.25381 16.8856 2.00037 16.3201 2.00037 15.6342C2.00037 15.3687 2.01877 15.0955 2.057 14.8172C2.09556 14.5386 2.15686 14.2249 2.24075 13.8741L3.18368 10.5367C3.26757 10.2171 3.33888 9.9143 3.39598 9.62795C3.4539 9.34338 3.48181 9.08155 3.48181 8.84585C3.48181 8.41964 3.39356 8.12151 3.21788 7.9539C3.0422 7.78677 2.70697 7.70191 2.20929 7.70191C1.96553 7.70191 1.71499 7.74095 1.45962 7.81645C1.20311 7.89227 0.983875 7.96551 0.799805 8.03359L1.05195 7.00467C1.66966 6.75317 2.26011 6.5378 2.8249 6.35905C3.38969 6.17982 3.92335 6.09013 4.42813 6.09013C5.33526 6.09013 6.03524 6.30936 6.52679 6.74784C7.01834 7.18664 7.26404 7.75547 7.26404 8.45642C7.26404 8.60145 7.24791 8.85699 7.21322 9.22222C7.17934 9.58827 7.11627 9.92366 7.02431 10.2287L6.08541 13.5528C6.00846 13.8198 5.93925 14.125 5.87908 14.4685C5.81697 14.8097 5.78728 15.0704 5.78728 15.2452C5.78728 15.6866 5.88569 15.988 6.08299 16.1482C6.28174 16.3084 6.62407 16.3881 7.1103 16.3881C7.33857 16.3881 7.5983 16.3476 7.88691 16.268C8.17471 16.1885 8.38459 16.1186 8.51478 16.0575ZM8.7529 2.10205C8.7529 2.6812 8.53462 3.17582 8.09598 3.58251C7.65848 3.99066 7.13127 4.1949 6.51453 4.1949C5.89586 4.1949 5.36736 3.99066 4.92485 3.58251C4.48314 3.17565 4.26181 2.6812 4.26181 2.10205C4.26181 1.52402 4.48314 1.0286 4.92485 0.61674C5.36655 0.205526 5.89602 0 6.51453 0C7.13111 0 7.65848 0.20601 8.09598 0.61674C8.53495 1.0286 8.7529 1.52418 8.7529 2.10205Z" fill="white"/>
</svg>
