<svg width="40" height="24" viewBox="0 0 40 24" fill="none" xmlns="http://www.w3.org/2000/svg">
<path d="M35.6041 16.596C35.6041 16.596 38.8381 19.79 39.6381 21.268C39.6536 21.2893 39.6658 21.3129 39.6741 21.338C40.0001 21.884 40.0801 22.312 39.9201 22.628C39.6501 23.15 38.7361 23.412 38.4261 23.434H32.7101C32.3121 23.434 31.4841 23.33 30.4761 22.634C29.7061 22.096 28.9401 21.21 28.1981 20.344C27.0901 19.058 26.1321 17.942 25.1621 17.942C25.0395 17.9417 24.9179 17.962 24.8021 18.002C24.0681 18.234 23.1361 19.28 23.1361 22.066C23.1361 22.938 22.4481 23.434 21.9661 23.434H19.3481C18.4561 23.434 13.8121 23.122 9.69406 18.78C4.64806 13.464 0.116058 2.8 0.072058 2.706C-0.209942 2.016 0.382058 1.64 1.02206 1.64H6.79406C7.56806 1.64 7.82006 2.108 7.99606 2.528C8.20006 3.01 8.95606 4.938 10.1961 7.104C12.2041 10.628 13.4381 12.062 14.4241 12.062C14.6093 12.0625 14.7914 12.0143 14.9521 11.922C16.2401 11.214 16.0001 6.614 15.9401 5.666C15.9401 5.482 15.9381 3.612 15.2781 2.708C14.8061 2.06 14.0021 1.808 13.5161 1.716C13.6461 1.528 13.9221 1.24 14.2761 1.07C15.1581 0.630002 16.7521 0.566002 18.3341 0.566002H19.2121C20.9281 0.590002 21.3721 0.700002 21.9961 0.858002C23.2521 1.158 23.2761 1.972 23.1661 4.744C23.1341 5.536 23.1001 6.428 23.1001 7.478C23.1001 7.702 23.0901 7.952 23.0901 8.206C23.0521 9.628 23.0021 11.23 24.0061 11.888C24.1363 11.9691 24.2866 12.0121 24.4401 12.012C24.7881 12.012 25.8301 12.012 28.6561 7.162C29.8961 5.02 30.8561 2.494 30.9221 2.304C30.9781 2.198 31.1461 1.9 31.3501 1.78C31.4952 1.70279 31.6577 1.66422 31.8221 1.668H38.6121C39.3521 1.668 39.8541 1.78 39.9521 2.06C40.1161 2.514 39.9201 3.9 36.8201 8.092C36.2981 8.79 35.8401 9.394 35.4381 9.922C32.6281 13.61 32.6281 13.796 35.6041 16.596V16.596Z" fill="white"/>
</svg>
