<svg width="697" height="285" viewBox="0 0 697 285" fill="none" xmlns="http://www.w3.org/2000/svg">
<path fill-rule="evenodd" clip-rule="evenodd" d="M561.435 0.609711C574.55 0.320401 587.654 0.610369 600.738 1.4796C607.673 7.8313 610.169 15.6603 608.227 24.9668C632.15 23.9372 655.858 25.3871 679.35 29.3162C686.512 35.0709 688.696 42.3201 685.9 51.0635C679.031 56.1769 671.858 60.8163 664.377 64.982C665.269 66.6829 666.515 68.1327 668.119 69.3314C675.681 69.6333 683.169 70.5032 690.577 71.9411C686.938 75.0378 684.446 78.8077 683.092 83.2495C685.819 89.778 689.254 95.8672 693.385 101.517C695.3 109.228 696.235 117.057 696.192 125.005C691.196 158.666 688.389 192.592 687.769 226.782C685.162 241.623 678.612 254.671 668.119 265.928C619.562 272.375 570.896 277.306 522.131 280.716C486.435 276.814 450.558 275.074 414.508 275.496C378.592 275.535 342.72 276.695 306.889 278.976C298.779 278.397 290.667 277.816 282.557 277.236C287.352 275.251 292.342 273.802 297.53 272.887C245.938 274.703 194.467 278.471 143.118 284.195C98.7493 278.155 54.1416 275.836 9.29503 277.236C9.29503 271.438 9.29503 265.637 9.29503 259.838C11.4943 260.219 13.366 259.64 14.91 258.099C3.00953 248.716 -1.35767 236.828 1.80839 222.433C2.6891 207.034 3.93687 191.667 5.55172 176.328C3.93553 157.781 3.62361 139.224 4.61587 120.655C7.53968 116.38 9.41134 111.74 10.2308 106.737C10.6743 91.3283 11.6102 75.9601 13.0383 60.6326C10.2559 55.4788 8.38422 49.9695 7.42337 44.1045C7.55407 41.8922 8.17795 39.8621 9.29503 38.0153C21.272 31.8708 33.7497 26.6514 46.7281 22.3571C74.862 21.8464 102.937 23.0062 130.953 25.8366C178.398 26.82 225.814 26.82 273.199 25.8366C253.698 29.1713 234.356 33.2309 215.177 38.0153C330.844 26.1018 446.265 13.6334 561.435 0.609711ZM48.6 58.0226C54.2493 57.7365 59.8643 58.026 65.4446 58.8925C59.5177 64.4021 53.5912 69.9113 47.6639 75.4206C48.0404 69.7192 48.3527 63.9196 48.6 58.0226ZM138.439 58.0226C145.139 58.4851 145.763 60.8047 140.311 64.982C138.573 62.9138 137.949 60.5937 138.439 58.0226ZM72.9316 71.9411C90.785 70.844 98.5835 78.3833 96.327 94.5583C85.7212 106.157 75.115 106.157 64.5089 94.5583C63.2612 89.919 63.2612 85.2796 64.5089 80.6399C67.7043 77.9651 70.512 75.0655 72.9316 71.9411ZM142.183 71.9411C158.984 71.6087 166.158 79.1477 163.707 94.5583C153.906 106.119 143.924 106.119 133.76 94.5583C132.512 89.919 132.512 85.2796 133.76 80.6399C136.956 77.9651 139.763 75.0655 142.183 71.9411ZM63.5731 108.477C69.61 108.321 75.225 109.481 80.4181 111.956C85.63 109.191 91.245 108.321 97.2631 109.347C99.4466 112.536 101.63 115.726 103.814 118.915C108.268 133.8 110.764 148.878 111.3 164.15C109.57 165.101 108.01 166.261 106.621 167.629C109.749 174.352 110.685 181.311 109.429 188.507C103.708 190.162 97.7808 190.741 91.6481 190.247C91.9512 200.781 91.0154 211.22 88.8404 221.563C82.6016 226.203 76.3627 226.203 70.1239 221.563C69.1889 211.14 68.877 200.701 69.1881 190.247C63.2327 192.554 56.9939 193.424 50.4716 192.856C50.1366 183.937 51.3843 174.949 54.2146 165.89C49.6335 166.612 47.1377 164.872 46.7281 160.67C51.0496 146.344 54.4808 131.846 57.0223 117.176C58.8889 114.004 61.0723 111.104 63.5731 108.477ZM125.338 108.477C134.293 107.327 142.403 109.067 149.669 113.696C156.164 108.661 163.651 107.211 172.129 109.347C174.378 110.917 175.938 112.946 176.809 115.436C178.093 128.267 177.469 141.025 174.937 153.711C172.441 156.031 169.946 158.351 167.45 160.67C165.253 181.647 162.446 202.524 159.028 223.303C155.908 223.882 152.789 224.463 149.669 225.042C144.969 225.411 140.913 224.251 137.503 221.563C135.523 201.211 133.027 180.913 130.017 160.67C126.81 158.273 124.315 155.373 122.53 151.971C120.547 139.828 119.924 127.649 120.658 115.436C121.898 112.854 123.458 110.535 125.338 108.477ZM200.204 125.874C213.918 123.838 219.845 129.057 217.985 141.533C210.498 150.811 203.012 150.811 195.525 141.533C193.517 135.27 195.076 130.051 200.204 125.874ZM260.097 125.874C270.079 125.874 280.062 125.874 290.044 125.874C290.044 128.774 290.044 131.674 290.044 134.574C286.362 134.157 282.93 134.737 279.75 136.313C278.814 147.317 278.503 158.335 278.814 169.369C282.557 169.369 286.3 169.369 290.044 169.369C290.676 175.156 287.869 178.056 281.621 178.068C274.005 177.157 266.519 175.998 259.161 174.589C257.913 173.428 257.913 172.27 259.161 171.109C262.703 170.013 265.823 168.273 268.52 165.89C269.454 155.467 269.766 145.028 269.455 134.574C265.712 134.574 261.969 134.574 258.225 134.574C257.975 131.457 258.598 128.557 260.097 125.874ZM305.017 125.874C317.569 123.974 328.486 126.874 337.771 134.574C340.279 150.511 332.482 158.63 314.375 158.931C314.375 164.73 314.375 170.529 314.375 176.328C311.298 176.701 308.491 176.12 305.953 174.589C305.745 158.103 305.432 141.865 305.017 125.874ZM383.627 125.874C386.1 125.579 388.285 126.159 390.177 127.614C391.427 143.852 391.427 160.091 390.177 176.328C387.639 177.859 384.831 178.44 381.755 178.068C382.066 170.507 381.753 162.968 380.819 155.451C377.699 158.351 374.581 161.25 371.461 164.15C368.307 161.51 365.5 158.61 363.039 155.451C361.494 161.753 360.559 168.132 360.231 174.589C358.359 176.908 356.488 176.908 354.616 174.589C353.368 165.89 353.368 157.191 354.616 148.492C360.792 144.913 360.48 143.173 353.68 143.272C352.939 138.084 354.187 133.445 357.424 129.354C363.362 134.579 367.416 140.958 369.589 148.492C370.933 150.146 372.492 150.436 374.268 149.362C376.86 141.253 379.981 133.424 383.627 125.874ZM421.062 125.874C424.596 125.521 427.404 126.68 429.481 129.354C434.904 144.973 440.204 160.631 445.392 176.328C441.842 178.009 438.1 178.588 434.162 178.068C433.469 171.574 432.219 165.195 430.419 158.931C425.881 158.395 421.515 158.975 417.315 160.67C415.9 166.72 414.031 172.518 411.7 178.068C409.208 178.068 406.712 178.068 404.215 178.068C407.027 159.68 412.642 142.282 421.062 125.874ZM458.492 125.874C466.004 125.587 473.492 125.877 480.954 126.744C492.081 135.072 493.327 144.64 484.696 155.451C487.285 159.762 489.158 164.401 490.312 169.369C490.227 174.047 487.731 176.368 482.823 176.328C483.262 165.019 477.646 158.64 465.981 157.191C465.981 163.57 465.981 169.949 465.981 176.328C463.504 176.624 461.319 176.045 459.427 174.589C459.335 158.105 459.023 141.868 458.492 125.874ZM509.027 125.874C519.008 125.874 528.992 125.874 538.973 125.874C538.973 128.774 538.973 131.674 538.973 134.574C534.685 134.127 530.627 134.707 526.808 136.313C525.873 147.317 525.562 158.335 525.873 169.369C529.615 169.369 533.358 169.369 537.104 169.369C537.615 172.764 536.365 175.373 533.358 177.198C526.565 177.007 519.704 176.718 512.769 176.328C513.065 178.717 512.754 181.038 511.835 183.288C510.985 179.745 509.427 176.555 507.158 173.719C510.792 170.819 514.223 167.629 517.45 164.15C518.7 154.291 518.7 144.432 517.45 134.574C514.269 132.997 510.839 132.417 507.158 132.834C507.031 130.296 507.654 127.976 509.027 125.874ZM555.819 125.874C560.315 125.688 563.746 127.428 566.112 131.094C569.873 139.272 573.615 147.392 577.342 155.451C577.927 151.874 578.862 148.394 580.15 145.012C578.419 138.76 577.796 132.381 578.281 125.874C580.773 125.874 583.269 125.874 585.765 125.874C586.077 142.703 585.765 159.521 584.831 176.328C580.638 178.71 577.208 177.84 574.535 173.719C575.392 172.999 576.015 172.129 576.408 171.109C571.354 163.795 566.673 156.256 562.369 148.492C561.746 157.191 561.123 165.89 560.5 174.589C558.627 176.908 556.754 176.908 554.885 174.589C554.373 157.987 554.685 141.749 555.819 125.874ZM190.846 151.971C196.685 151.373 201.988 152.532 206.755 155.451C213.712 150.955 220.574 150.955 227.343 155.451C228.335 165.375 227.712 175.234 225.472 185.027C223.6 186.767 221.728 188.507 219.857 190.247C219.177 201.876 216.993 213.184 213.306 224.173C208.441 225.511 203.762 225.22 199.269 223.303C196.912 212.354 195.04 201.335 193.654 190.247C188.115 185.727 185.619 179.926 186.167 172.849C184.919 167.05 184.919 161.25 186.167 155.451C188.029 154.467 189.588 153.306 190.846 151.971ZM591.381 204.165C593.492 207.867 593.808 211.926 592.315 216.344C587.608 213.094 587.296 209.033 591.381 204.165ZM490.312 216.344C513.1 215.541 514.035 217.281 493.119 221.563C486.504 221.067 485.565 219.328 490.312 216.344ZM421.062 226.782C424.408 226.287 427.527 226.866 430.419 228.522C426.823 230.507 423.081 230.798 419.189 229.392C420.227 228.726 420.854 227.856 421.062 226.782ZM149.669 232.002C177.237 231.668 178.173 233.988 152.477 238.961C149.669 238.67 146.862 238.381 144.054 238.091C146.319 236.283 148.191 234.253 149.669 232.002ZM125.338 238.961C126.978 238.733 128.226 239.312 129.081 240.701C124.761 243.089 123.513 242.51 125.338 238.961ZM570.792 247.66C574.585 247.378 578.331 247.669 582.023 248.53C579.919 250.346 577.427 251.505 574.535 252.009C569.439 252.479 564.446 253.349 559.562 254.619C558.05 254.083 556.8 253.213 555.819 252.009C561.077 250.649 566.069 249.198 570.792 247.66Z" fill="#030D19"/>
<path fill-rule="evenodd" clip-rule="evenodd" d="M465.981 134.574C478.346 131.527 483.023 135.587 480.015 146.752C476.673 151.731 472.308 152.891 466.915 150.232C465.985 145.044 465.669 139.825 465.981 134.574Z" fill="#030D19"/>
<path fill-rule="evenodd" clip-rule="evenodd" d="M422.931 143.272C425.935 144.642 427.181 146.961 426.673 150.232C424.804 150.232 422.931 150.232 421.062 150.232C420.935 147.694 421.558 145.374 422.931 143.272Z" fill="#030D19"/>
</svg>
