<svg viewBox="0 0 188 212" fill="none" xmlns="http://www.w3.org/2000/svg">
<path fill-rule="evenodd" clip-rule="evenodd" d="M47.175 41.175C48.6013 44.1927 50.7014 46.8198 53.475 49.05C28.3683 72.8703 29.4182 74.4453 56.625 53.775C59.775 57.974 62.925 62.1761 66.075 66.375C62.5149 69.9093 60.4148 74.1114 59.775 78.975C59.775 81.0761 58.7251 82.1251 56.625 82.1251C46.7296 79.5389 36.2294 77.9639 25.125 77.4C29.7231 74.8454 30.773 72.2183 28.275 69.525C24.3435 71.226 20.6684 73.3271 17.25 75.825C15.9938 75.1068 15.469 74.0547 15.675 72.675C23.0249 59.0261 33.5251 48.524 47.175 41.175Z" fill="#FD0123"/>
<path fill-rule="evenodd" clip-rule="evenodd" d="M110.175 72.6749C105.178 79.5104 100.978 86.8625 97.575 94.7249C94.2612 95.1943 91.1112 94.6714 88.125 93.1499C85.3656 88.154 82.2156 83.429 78.675 78.9749C77.6251 79.501 76.5749 80.0239 75.525 80.5499C80.5263 86.809 83.1515 93.635 83.4 101.025C75.9799 99.3586 68.1049 99.3586 59.775 101.025C53.035 100.849 47.7849 98.7475 44.025 94.7249C47.0884 89.5621 51.2883 85.36 56.625 82.1249C58.7251 82.1249 59.775 81.076 59.775 78.9749C63.8518 76.4864 67.5269 73.3364 70.8 69.5249C83.8741 68.7973 96.9992 69.8494 110.175 72.6749Z" fill="#FD0022"/>
<path fill-rule="evenodd" clip-rule="evenodd" d="M47.175 41.175C52.0395 41.8145 56.2397 43.9155 59.775 47.475C99.1185 34.7175 132.718 43.1186 160.575 72.675C158.302 73.9917 156.727 76.0896 155.85 78.975C154.8 77.9261 153.75 76.874 152.7 75.825C149.282 78.323 145.606 80.424 141.675 82.1251C140.108 85.5995 139.058 88.7495 138.525 91.5751C136.377 89.2346 134.277 87.1367 132.225 85.2751C126.428 78.4427 119.078 74.2437 110.175 72.675C96.9992 69.8495 83.8741 68.7974 70.8 69.525C67.5268 73.3365 63.8517 76.4865 59.775 78.975C60.4147 74.1114 62.5148 69.9093 66.075 66.375C62.925 62.1761 59.775 57.974 56.625 53.775C29.4181 74.4453 28.3682 72.8703 53.475 49.05C50.7014 46.8198 48.6013 44.1927 47.175 41.175Z" fill="#E30004"/>
<path fill-rule="evenodd" clip-rule="evenodd" d="M66.075 47.4751C82.9077 46.9522 99.7079 47.4782 116.475 49.0501C129.707 52.8836 140.207 60.2326 147.975 71.1001C135.508 81.5266 125.533 78.9026 118.05 63.2251C104.148 66.7909 89.9735 67.3169 75.525 64.8001C65.5534 61.858 62.4034 56.084 66.075 47.4751Z" fill="#FE0020"/>
<path fill-rule="evenodd" clip-rule="evenodd" d="M160.575 72.675C163.725 72.675 166.875 72.675 170.025 72.675C172.125 72.675 173.175 73.724 173.175 75.825C175.612 87.291 177.711 98.8421 179.475 110.475C174.882 102.814 171.207 94.4132 168.45 85.275C166.577 89.6819 167.102 93.8808 170.025 97.875C166.35 98.924 162.675 99.9761 159 101.025C142.127 100.672 124.802 100.149 107.025 99.45C116.132 95.4369 124.532 90.7119 132.225 85.275C134.277 87.1367 136.377 89.2346 138.525 91.575C139.058 88.7495 140.108 85.5995 141.675 82.125C145.607 80.424 149.282 78.323 152.7 75.825C153.75 76.874 154.8 77.9261 155.85 78.975C156.727 76.0896 158.302 73.9917 160.575 72.675Z" fill="#FD001D"/>
<path fill-rule="evenodd" clip-rule="evenodd" d="M56.625 82.1249C51.2882 85.36 47.0884 89.5621 44.025 94.7249C34.998 99.3397 25.548 102.49 15.675 104.175C12.525 104.175 9.37498 104.175 6.22498 104.175C8.05796 99.6673 10.6829 95.4683 14.1 91.5749C16.5097 86.642 15.9846 82.4431 12.525 78.9749C11.9844 75.8501 13.0346 73.7522 15.675 72.6749C15.469 74.0546 15.9938 75.1067 17.25 75.8249C20.6684 73.327 24.3435 71.2259 28.275 69.5249C30.7729 72.2182 29.723 74.8453 25.125 77.3999C36.2294 77.9638 46.7296 79.5388 56.625 82.1249Z" fill="#F2000F"/>
<path fill-rule="evenodd" clip-rule="evenodd" d="M97.5751 94.7251C101.68 99.8974 105.879 105.148 110.175 110.475C105.667 111.675 103.042 114.825 102.3 119.925C100.981 116.233 98.8814 113.083 96.0001 110.475C93.5638 125.444 94.0886 140.145 97.5751 154.575C93.3752 168.224 93.3752 181.876 97.5751 195.525C95.0528 200.382 94.003 205.63 94.4251 211.275C93.3752 211.275 92.3249 211.275 91.2751 211.275C91.2751 204.975 91.2751 198.675 91.2751 192.375C89.7117 165.339 88.6618 138.038 88.1251 110.475C85.6646 114.346 84.0896 118.545 83.4001 123.075C82.5231 120.19 80.9481 118.092 78.6751 116.775C76.053 114.164 77.1032 111.54 81.8251 108.9C67.2393 103.321 52.5395 102.799 37.725 107.325C32.1666 104.298 25.8666 103.246 18.825 104.175C17.7752 141.975 16.7249 141.975 15.675 104.175C25.5481 102.49 34.9981 99.3398 44.025 94.7251C47.7849 98.7476 53.035 100.849 59.7751 101.025C68.1049 99.3587 75.9799 99.3587 83.4001 101.025C83.1515 93.6352 80.5263 86.8091 75.5251 80.5501C76.5749 80.024 77.6252 79.5011 78.6751 78.9751C82.2157 83.4292 85.3657 88.1542 88.1251 93.1501C91.1113 94.6715 94.2613 95.1944 97.5751 94.7251Z" fill="#D40002"/>
<path fill-rule="evenodd" clip-rule="evenodd" d="M166.875 129.375C161.915 136.576 155.615 137.625 147.975 132.525C142.734 128.609 139.059 123.358 136.95 116.775C135.646 118.214 134.071 119.267 132.225 119.925C126.442 115.455 120.142 111.779 113.325 108.9C132.101 103.139 151.001 102.613 170.025 107.325C169.477 114.762 168.427 122.111 166.875 129.375Z" fill="#FE001F"/>
<path fill-rule="evenodd" clip-rule="evenodd" d="M110.175 72.675C119.078 74.2437 126.428 78.4427 132.225 85.275C124.532 90.7119 116.132 95.4369 107.025 99.45C124.802 100.149 142.127 100.672 159 101.025C162.675 99.9761 166.35 98.924 170.025 97.875C167.102 93.8808 166.577 89.6819 168.45 85.275C171.207 94.4132 174.882 102.814 179.475 110.475C179.475 116.775 179.475 123.075 179.475 129.375C176.986 125.882 175.411 121.683 174.75 116.775C172.834 121.708 170.209 125.91 166.875 129.375C168.427 122.111 169.477 114.762 170.025 107.325C151.001 102.613 132.101 103.139 113.325 108.9C120.142 111.779 126.442 115.455 132.225 119.925C134.071 119.267 135.646 118.215 136.95 116.775C139.059 123.359 142.734 128.61 147.975 132.525C142.714 131.734 137.989 129.633 133.8 126.225C131.117 129.599 128.492 132.749 125.925 135.675C125.933 131.063 124.883 125.812 122.775 119.925C118.361 116.709 114.161 113.559 110.175 110.475C105.879 105.148 101.679 99.8973 97.575 94.725C100.978 86.8626 105.178 79.5105 110.175 72.675Z" fill="#F1000E"/>
<path fill-rule="evenodd" clip-rule="evenodd" d="M110.175 110.475C114.161 113.559 118.361 116.709 122.775 119.925C124.883 125.812 125.933 131.063 125.925 135.675C125.67 145.39 125.145 154.84 124.35 164.025C121.362 159.007 117.686 154.808 113.325 151.425C107.682 151.003 102.432 152.052 97.575 154.575C94.0886 140.145 93.5638 125.444 96 110.475C98.8813 113.083 100.981 116.233 102.3 119.925C103.042 114.825 105.667 111.675 110.175 110.475Z" fill="#FB001E"/>
<path fill-rule="evenodd" clip-rule="evenodd" d="M173.175 75.825C180.087 81.2461 183.762 88.5982 184.2 97.875C186.053 113.713 185.528 129.463 182.625 145.125C179.629 140.655 178.579 135.407 179.475 129.375C179.475 123.075 179.475 116.775 179.475 110.475C177.711 98.842 175.612 87.291 173.175 75.825Z" fill="#DB0D2D"/>
<path fill-rule="evenodd" clip-rule="evenodd" d="M179.475 129.375C178.579 135.407 179.629 140.655 182.625 145.125C174.908 166.923 161.258 183.722 141.675 195.525C140.625 193.424 139.575 191.326 138.525 189.225C139.905 189.43 140.956 188.907 141.675 187.65C138.525 184.5 135.375 181.35 132.225 178.2C139.965 168.567 149.415 161.215 160.575 156.15C159.134 154.846 158.084 153.271 157.425 151.425C163.181 145.166 166.331 137.814 166.875 129.375C170.209 125.91 172.834 121.708 174.75 116.775C175.411 121.683 176.986 125.882 179.475 129.375Z" fill="#FA0123"/>
<path fill-rule="evenodd" clip-rule="evenodd" d="M78.675 116.775C74.5491 121.966 70.3492 127.214 66.075 132.525C69.8465 139.118 74.0464 142.794 78.675 143.55C74.3154 155.759 68.0154 166.784 59.775 176.625C62.3737 179.416 65.5237 180.465 69.225 179.775C59.6915 181.306 51.2914 185.508 44.025 192.375C45.1552 186.481 48.3052 181.756 53.475 178.2C47.7001 172.426 41.9249 166.649 36.15 160.875C31.9501 165.074 27.7499 169.276 23.55 173.475C16.1201 165.572 15.595 158.22 21.975 151.425C26.4811 151.176 30.681 152.225 34.575 154.575C43.2545 149.185 50.6044 142.359 56.625 134.1C47.867 130.081 39.4669 125.356 31.425 119.925C32.982 115.118 35.0821 110.919 37.725 107.325C52.5394 102.798 67.2392 103.321 81.825 108.9C77.1031 111.54 76.0529 114.164 78.675 116.775Z" fill="#F50014"/>
<path fill-rule="evenodd" clip-rule="evenodd" d="M147.975 132.525C155.615 137.625 161.915 136.576 166.875 129.375C166.331 137.814 163.181 145.166 157.425 151.425C158.084 153.271 159.134 154.846 160.575 156.15C149.415 161.215 139.965 168.567 132.225 178.2C135.375 181.35 138.525 184.5 141.675 187.65C140.955 188.907 139.905 189.43 138.525 189.225C134.849 185.083 130.124 182.985 124.35 182.925C114.357 185.089 105.432 189.291 97.575 195.525C98.9518 190.567 102.102 186.891 107.025 184.5C113.712 181.933 120.012 178.783 125.925 175.05C119.641 168.256 115.441 160.381 113.325 151.425C117.686 154.808 121.362 159.007 124.35 164.025C125.145 154.84 125.67 145.39 125.925 135.675C128.492 132.749 131.117 129.599 133.8 126.225C137.989 129.633 142.714 131.734 147.975 132.525Z" fill="#FA0019"/>
<path fill-rule="evenodd" clip-rule="evenodd" d="M6.22498 104.175C9.37498 104.175 12.525 104.175 15.675 104.175C16.7249 141.975 17.7751 141.975 18.825 104.175C25.8665 103.246 32.1665 104.298 37.725 107.325C35.0821 110.919 32.982 115.118 31.425 119.925C39.4669 125.356 47.867 130.081 56.625 134.1C50.6044 142.359 43.2545 149.185 34.575 154.575C30.6809 152.225 26.4811 151.176 21.975 151.425C15.92 146.435 10.6699 140.658 6.22498 134.1C8.23499 124.426 8.23499 114.454 6.22498 104.175Z" fill="#FB001A"/>
<path fill-rule="evenodd" clip-rule="evenodd" d="M113.325 151.425C115.441 160.381 119.641 168.256 125.925 175.05C120.012 178.783 113.712 181.933 107.025 184.5C102.102 186.891 98.9518 190.567 97.575 195.525C93.3751 181.876 93.3751 168.224 97.575 154.575C102.432 152.052 107.682 151.003 113.325 151.425Z" fill="#FE0123"/>
<path fill-rule="evenodd" clip-rule="evenodd" d="M91.275 192.375C84.3516 187.341 77.0014 183.142 69.225 179.775C65.5238 180.465 62.3738 179.416 59.775 176.625C68.0154 166.784 74.3154 155.759 78.675 143.55C74.0464 142.794 69.8465 139.118 66.075 132.525C70.3493 127.214 74.5492 121.966 78.675 116.775C80.9481 118.092 82.5231 120.19 83.4 123.075C84.0896 118.545 85.6646 114.346 88.125 110.475C88.6618 138.038 89.7117 165.339 91.275 192.375Z" fill="#FD0020"/>
<path fill-rule="evenodd" clip-rule="evenodd" d="M12.525 78.9751C15.9847 82.4432 16.5098 86.6422 14.1 91.5751C10.6829 95.4685 8.05802 99.6674 6.22503 104.175C8.23505 114.454 8.23505 124.426 6.22503 134.1C10.67 140.658 15.9201 146.435 21.975 151.425C15.595 158.22 16.1201 165.572 23.55 173.475C27.7499 169.276 31.9501 165.074 36.15 160.875C41.9249 166.649 47.7001 172.426 53.475 178.2C48.3053 181.756 45.1553 186.481 44.025 192.375C23.6285 182.979 10.5037 167.229 4.65003 145.125C2.54992 127.274 2.54992 109.426 4.65003 91.5751C6.56586 86.6422 9.19076 82.4401 12.525 78.9751Z" fill="#FB0225"/>
<path fill-rule="evenodd" clip-rule="evenodd" d="M69.225 179.775C77.0014 183.142 84.3516 187.341 91.275 192.375C91.275 198.675 91.275 204.975 91.275 211.275C79.2455 210.944 67.6957 208.32 56.625 203.4C50.8804 201.321 46.6805 197.645 44.025 192.375C51.2914 185.508 59.6915 181.306 69.225 179.775Z" fill="#FA0121"/>
<path fill-rule="evenodd" clip-rule="evenodd" d="M138.525 189.225C139.575 191.326 140.625 193.424 141.675 195.525C127.638 205.104 111.888 210.355 94.425 211.275C94.0029 205.63 95.0528 200.382 97.575 195.525C105.432 189.291 114.357 185.089 124.35 182.925C130.124 182.985 134.849 185.083 138.525 189.225Z" fill="#FC0124"/>
<path fill-rule="evenodd" clip-rule="evenodd" d="M161.367 52.7C155.293 58.3535 147.982 60.62 139.433 59.5C113.409 63.0295 87.2981 63.596 61.1 61.2C50.5564 59.482 41.1564 55.5152 32.9 49.3C32.9 48.1668 32.9 47.0332 32.9 45.9C77.9868 7.40247 120.809 9.66915 161.367 52.7Z" fill="#FBAB96"/>
<path opacity="0.043" fill-rule="evenodd" clip-rule="evenodd" d="M32.8999 45.8999C32.8999 47.0331 32.8999 48.1667 32.8999 49.2999C30.811 50.4331 28.7222 51.5667 26.6333 52.6999C23.4999 52.6999 20.3666 52.6999 17.2333 52.6999C21.2452 47.8335 26.4675 45.567 32.8999 45.8999Z" fill="#2E1F29"/>
<path fill-rule="evenodd" clip-rule="evenodd" d="M32.9 49.3C41.1564 55.5152 50.5564 59.482 61.1 61.2C87.2981 63.596 113.409 63.0296 139.433 59.5C136.3 61.7668 133.167 64.0333 130.033 66.3C115.451 67.7141 100.829 68.8477 86.1667 69.7C63.6456 68.4206 41.7122 65.0206 20.3667 59.5C22.4556 57.2333 24.5445 54.9668 26.6334 52.7C28.7223 51.5668 30.8111 50.4333 32.9 49.3Z" fill="#E66E6A"/>
<path fill-rule="evenodd" clip-rule="evenodd" d="M161.367 52.7C166.098 58.8948 170.276 65.6947 173.9 73.0999C171.811 73.0999 169.722 73.0999 167.633 73.0999C160.693 63.4436 152.337 61.1768 142.567 66.2999C140.478 67.4332 138.389 68.5667 136.3 69.6999C135.229 66.8501 133.14 65.7165 130.033 66.2999C133.167 64.0332 136.3 61.7667 139.433 59.5C147.982 60.6199 155.293 58.3535 161.367 52.7Z" fill="#CA2F3E"/>
<path fill-rule="evenodd" clip-rule="evenodd" d="M20.3667 59.5C41.7122 65.0206 63.6456 68.4206 86.1667 69.7C100.829 68.8476 115.451 67.7141 130.033 66.3C133.14 65.7166 135.229 66.8501 136.3 69.7C99.4577 79.5274 62.9023 78.3941 26.6334 66.3C22.8315 65.4595 20.7426 63.1931 20.3667 59.5Z" fill="#DD1E37"/>
<path fill-rule="evenodd" clip-rule="evenodd" d="M142.567 66.3C152.337 61.1769 160.693 63.4436 167.633 73.1C159.629 76.1192 151.274 77.2527 142.567 76.5C140.251 76.9454 138.163 76.3786 136.3 74.8C140.478 72.5332 144.656 70.2668 148.833 68C146.971 66.4214 144.882 65.8546 142.567 66.3Z" fill="#C50E27"/>
<path fill-rule="evenodd" clip-rule="evenodd" d="M20.3667 59.5C20.7426 63.1931 22.8315 65.4595 26.6333 66.3C62.9023 78.3941 99.4577 79.5274 136.3 69.7C138.389 68.5668 140.478 67.4332 142.567 66.3C144.882 65.8546 146.971 66.4214 148.833 68C144.656 70.2668 140.478 72.5332 136.3 74.8C138.162 76.3786 140.251 76.9454 142.567 76.5C142.567 77.6332 142.567 78.7668 142.567 79.9C98.6875 80.4664 54.8208 79.8997 10.9667 78.2C12.7087 76.8992 13.7531 75.1992 14.1 73.1C16.1889 68.5668 18.2778 64.0332 20.3667 59.5Z" fill="#A20318"/>
<path fill-rule="evenodd" clip-rule="evenodd" d="M167.633 73.1001C169.722 73.1001 171.811 73.1001 173.9 73.1001C174.247 75.1993 175.291 76.8993 177.033 78.2001C165.592 79.8953 154.103 80.4621 142.567 79.9001C142.567 78.7669 142.567 77.6333 142.567 76.5001C151.274 77.2529 159.629 76.1193 167.633 73.1001Z" fill="#820210"/>
<rect x="84" y="36" width="20" height="20" rx="10" fill="#3F1621"/>
<rect x="90" y="36" width="8" height="5" rx="2.5" fill="#E44D74"/>
<path fill-rule="evenodd" clip-rule="evenodd" d="M28.4 151.44C25.28 151.44 22.16 151.44 19.04 151.44C13.7117 136.242 12.1517 120.642 14.36 104.64C17.4631 89.0343 26.8231 81.7544 42.44 82.7999C55.5347 82.8221 67.4947 86.4619 78.32 93.7199C81.6778 99.1054 82.1978 104.825 79.88 110.88C63.354 125.589 46.194 139.109 28.4 151.44Z" fill="#010000"/>
<path fill-rule="evenodd" clip-rule="evenodd" d="M28.4 129.6C25.28 129.6 22.16 129.6 19.04 129.6C14.8498 97.9071 28.37 84.907 59.6 90.6001C65.7 93.5744 70.9 97.7343 75.2 103.08C59.4049 112.005 43.805 120.845 28.4 129.6Z" fill="#FEFFFE"/>
<path fill-rule="evenodd" clip-rule="evenodd" d="M162.6 151.44C165.72 151.44 168.84 151.44 171.96 151.44C177.288 136.242 178.848 120.642 176.64 104.64C173.537 89.0343 164.177 81.7544 148.56 82.7999C135.465 82.8221 123.505 86.4619 112.68 93.7199C109.322 99.1054 108.802 104.825 111.12 110.88C127.646 125.589 144.806 139.109 162.6 151.44Z" fill="#010000"/>
<path fill-rule="evenodd" clip-rule="evenodd" d="M162.6 129.6C165.72 129.6 168.84 129.6 171.96 129.6C176.15 97.9071 162.63 84.907 131.4 90.6001C125.3 93.5744 120.1 97.7343 115.8 103.08C131.595 112.005 147.195 120.845 162.6 129.6Z" fill="#FEFFFE"/>
</svg>
