<svg width="241" height="33" viewBox="0 0 241 33" fill="none" xmlns="http://www.w3.org/2000/svg">
<path d="M0.389648 28.5342C0.389648 27.9053 0.478516 27.2627 0.65625 26.6064C0.833984 25.9365 1.07324 25.3828 1.37402 24.9453L3.34277 25.3145L5.55762 6.11914L2.39941 5.66797C2.13965 4.98438 2.00977 4.28711 2.00977 3.57617C2.00977 2.85156 2.15332 2.11328 2.44043 1.36133C3.16504 1.01953 4.40234 0.746094 6.15234 0.541016C7.91602 0.322266 9.48145 0.212891 10.8486 0.212891C12.1201 0.212891 13.6855 0.240234 15.5449 0.294922L16.2627 0.623047C16.5635 1.4707 16.9736 2.92676 17.4932 4.99121C18.0264 7.04199 18.9287 10.665 20.2002 15.8604C20.4053 16.667 20.6309 17.583 20.877 18.6084C21.5332 16.2295 22.3398 12.8662 23.2969 8.51855L23.8096 6.2832H23.9121L20.5078 5.70898C20.1797 4.94336 20.0156 4.12305 20.0156 3.24805C20.0156 2.67383 20.0908 2.05176 20.2412 1.38184C21.5674 0.958008 22.9482 0.657227 24.3838 0.479492C25.833 0.301758 27.4121 0.212891 29.1211 0.212891H29.7979C30.5225 0.212891 31.5547 0.240234 32.8945 0.294922L33.6123 0.623047C34.4873 3.79492 35.3213 7.64355 36.1143 12.1689C36.9209 16.6807 37.5293 20.8232 37.9395 24.5967L38.001 25.1094C38.0146 25.2051 38.0488 25.5332 38.1035 26.0938C38.1582 26.6406 38.1855 27.167 38.1855 27.6729C38.1855 28.2881 38.124 28.8965 38.001 29.498C37.7959 30.4004 37.4268 31.1455 36.8936 31.7334C36.3604 31.9521 35.7998 32.1162 35.2119 32.2256C34.6377 32.3486 33.9678 32.4102 33.2021 32.4102C32.4502 32.4102 31.6982 32.3213 30.9463 32.1436C30.208 31.9795 29.7158 31.7334 29.4697 31.4053L30.208 26.709L28.9775 13.8096L29.0801 6.93945H28.4443L27.4395 13.9736C26.0996 18.9365 24.876 22.7783 23.7686 25.499C24.1514 26.251 24.4795 27.085 24.7529 28.001C25.04 28.917 25.2178 29.8125 25.2861 30.6875C24.7119 31.2344 23.9258 31.6582 22.9277 31.959C21.9434 32.2598 20.8975 32.4102 19.79 32.4102C18.6553 32.4102 17.6162 32.2529 16.6729 31.9385C15.7432 31.624 15.0664 31.1865 14.6426 30.626C14.7109 29.2451 15.0527 27.9121 15.668 26.627L12.0176 13.4404L10.5 7.22656L9.80273 7.3291L10.8076 14.2812C10.7529 16.7012 10.6641 19.1621 10.541 21.6641C10.418 24.166 10.2812 26.1484 10.1309 27.6113H10.1514C10.042 28.4727 9.74805 29.2383 9.26953 29.9082C8.80469 30.5645 8.20996 31.0771 7.48535 31.4463C6.77441 31.8154 6.00195 32 5.16797 32C2.98047 32 1.40137 31.0566 0.430664 29.1699C0.40332 28.8965 0.389648 28.6846 0.389648 28.5342ZM40.1133 26.9756C40.1133 25.7588 40.3662 24.5762 40.8721 23.4277C41.1045 23.4277 41.4668 23.4756 41.959 23.5713C42.4648 23.6533 42.9912 23.7627 43.5381 23.8994C43.4561 20.208 43.415 17.1797 43.415 14.8145C43.415 11.875 43.4697 9.36621 43.5791 7.28809L40.4209 6.85742C40.2432 6.35156 40.1064 5.79785 40.0107 5.19629C39.915 4.58105 39.8672 3.98633 39.8672 3.41211C39.8672 2.97461 39.9014 2.49609 39.9697 1.97656C41.5967 1.36133 43.7363 0.916992 46.3887 0.643555C49.0547 0.356445 51.7412 0.212891 54.4482 0.212891C57.0049 0.212891 58.8574 0.329102 60.0059 0.561523C60.7441 1.0127 61.3867 1.4707 61.9336 1.93555C62.4941 2.38672 63.0273 2.94727 63.5332 3.61719C63.5332 4.57422 63.4375 5.61328 63.2461 6.73438C63.0684 7.8418 62.8154 8.86035 62.4873 9.79004C62.1729 10.7197 61.8311 11.3896 61.4619 11.7998C61.1475 11.9502 60.7988 12.0664 60.416 12.1484C60.0332 12.2168 59.5615 12.251 59.001 12.251C58.5088 12.251 58.085 12.21 57.7295 12.1279C57.3877 12.0322 57.0596 11.8955 56.7451 11.7178L56.0479 7.24707C55.1865 7.11035 54.1611 7.04199 52.9717 7.04199C52.6436 7.04199 52.3154 7.0625 51.9873 7.10352C51.9326 9.08594 51.6523 11.7861 51.1465 15.2041C54.1816 14.6982 56.7725 14.3291 58.9189 14.0967C59.4658 14.9307 59.7393 15.9492 59.7393 17.1523C59.7393 17.9453 59.6299 18.7109 59.4111 19.4492C59.1924 20.1875 58.9531 20.7002 58.6934 20.9873C58.1191 21.083 57.4355 21.1309 56.6426 21.1309C55.6172 21.1309 54.5508 21.042 53.4434 20.8643C52.3496 20.6865 51.3242 20.4268 50.3672 20.085L50.1006 21.8281C49.9365 22.7988 49.793 23.7559 49.6699 24.6992L62.6514 23.9404C62.8564 24.1318 63.0273 24.5146 63.1641 25.0889C63.3145 25.6631 63.3896 26.292 63.3896 26.9756C63.3896 28.0693 63.1709 29.0264 62.7334 29.8467C62.2959 30.667 61.7148 31.3027 60.9902 31.7539C60.2793 32.1914 59.5137 32.4102 58.6934 32.4102C57.873 32.4102 56.752 32.2324 55.3301 31.877C53.9219 31.5078 52.5479 31.0498 51.208 30.5029C49.8818 29.9561 48.9043 29.4297 48.2754 28.9238C47.6465 30.0176 46.9561 30.8516 46.2041 31.4258C45.4658 32 44.5088 32.3281 43.333 32.4102C42.7451 32.3145 42.2051 32.0137 41.7129 31.5078C41.2207 31.002 40.8311 30.3525 40.5439 29.5596C40.2568 28.7666 40.1133 27.9053 40.1133 26.9756ZM64.9688 26.8115C64.9688 25.5674 65.2217 24.3711 65.7275 23.2227C65.96 23.2227 66.3223 23.2705 66.8145 23.3662C67.3066 23.4482 67.8262 23.5576 68.373 23.6943C68.3047 20.7549 68.2705 17.8838 68.2705 15.0811C68.2705 12.0596 68.3252 9.48242 68.4346 7.34961H68.4141L68.4346 7.10352L65.0918 6.67285C64.8867 5.83887 64.75 5.14844 64.6816 4.60156C64.6133 4.04102 64.5859 3.39844 64.5996 2.67383C65.0371 2.18164 65.6797 1.75098 66.5273 1.38184C67.3887 0.999023 68.3115 0.711914 69.2959 0.520508C70.2939 0.31543 71.2031 0.212891 72.0234 0.212891C73.5957 0.212891 74.8193 0.527344 75.6943 1.15625C76.583 1.77148 77.0889 2.75586 77.2119 4.10938C77.2529 4.64258 77.2734 5.22363 77.2734 5.85254C77.2734 7.93066 77.0889 10.3916 76.7197 13.2354C76.3506 16.0791 75.8584 19.4014 75.2432 23.2021L75.0791 24.2686L80.3086 24.5557L82.4414 17.7471C83.084 17.7197 83.8154 17.7676 84.6357 17.8906C85.4697 18.0137 86.1875 18.1846 86.7891 18.4033C87.0352 19.0459 87.2607 20.0713 87.4658 21.4795C87.6846 22.874 87.7939 24.2412 87.7939 25.5811C87.7939 27.8096 87.4658 29.375 86.8096 30.2773C86.4814 30.7148 86.0234 31.0977 85.4355 31.4258C84.8613 31.7402 84.2529 31.9795 83.6104 32.1436C82.9814 32.3213 82.4141 32.4102 81.9082 32.4102C81.1016 32.4102 80.1582 32.2393 79.0781 31.8975C77.998 31.542 76.9385 31.0977 75.8994 30.5645C74.8604 30.0176 74.0059 29.4707 73.3359 28.9238C72.7207 29.9902 72.0098 30.8174 71.2031 31.4053C70.3965 31.9932 69.3916 32.3281 68.1885 32.4102C67.6006 32.3145 67.0605 32.0068 66.5684 31.4873C66.0762 30.9678 65.6865 30.2979 65.3994 29.4775C65.1123 28.6572 64.9688 27.7686 64.9688 26.8115ZM88.4707 26.8115C88.4707 25.5674 88.7236 24.3711 89.2295 23.2227C89.4619 23.2227 89.8242 23.2705 90.3164 23.3662C90.8086 23.4482 91.3281 23.5576 91.875 23.6943C91.8066 20.7549 91.7725 17.8838 91.7725 15.0811C91.7725 12.0596 91.8271 9.48242 91.9365 7.34961H91.916L91.9365 7.10352L88.5938 6.67285C88.3887 5.83887 88.252 5.14844 88.1836 4.60156C88.1152 4.04102 88.0879 3.39844 88.1016 2.67383C88.5391 2.18164 89.1816 1.75098 90.0293 1.38184C90.8906 0.999023 91.8135 0.711914 92.7979 0.520508C93.7959 0.31543 94.7051 0.212891 95.5254 0.212891C97.0977 0.212891 98.3213 0.527344 99.1963 1.15625C100.085 1.77148 100.591 2.75586 100.714 4.10938C100.755 4.64258 100.775 5.22363 100.775 5.85254C100.775 7.93066 100.591 10.3916 100.222 13.2354C99.8525 16.0791 99.3604 19.4014 98.7451 23.2021L98.5811 24.2686L103.811 24.5557L105.943 17.7471C106.586 17.7197 107.317 17.7676 108.138 17.8906C108.972 18.0137 109.689 18.1846 110.291 18.4033C110.537 19.0459 110.763 20.0713 110.968 21.4795C111.187 22.874 111.296 24.2412 111.296 25.5811C111.296 27.8096 110.968 29.375 110.312 30.2773C109.983 30.7148 109.525 31.0977 108.938 31.4258C108.363 31.7402 107.755 31.9795 107.112 32.1436C106.483 32.3213 105.916 32.4102 105.41 32.4102C104.604 32.4102 103.66 32.2393 102.58 31.8975C101.5 31.542 100.44 31.0977 99.4014 30.5645C98.3623 30.0176 97.5078 29.4707 96.8379 28.9238C96.2227 29.9902 95.5117 30.8174 94.7051 31.4053C93.8984 31.9932 92.8936 32.3281 91.6904 32.4102C91.1025 32.3145 90.5625 32.0068 90.0703 31.4873C89.5781 30.9678 89.1885 30.2979 88.9014 29.4775C88.6143 28.6572 88.4707 27.7686 88.4707 26.8115ZM112.301 27.5088C112.301 26.8115 112.431 26.1074 112.69 25.3965C112.95 24.6855 113.354 24.0156 113.9 23.3867C115.896 24.2617 117.633 24.9316 119.109 25.3965C120.6 25.8613 122.131 26.0938 123.703 26.0938C123.99 26.0938 124.284 26.0664 124.585 26.0117C124.899 25.957 125.146 25.8818 125.323 25.7861C125.392 25.6357 125.446 25.4443 125.487 25.2119C125.528 24.9658 125.549 24.7676 125.549 24.6172C125.549 23.9473 125.228 23.373 124.585 22.8945C123.942 22.416 123.095 21.9375 122.042 21.459L121.324 21.1104C119.273 20.0576 117.626 19.1143 116.382 18.2803C115.151 17.4326 114.105 16.3252 113.244 14.958C112.396 13.5771 111.973 11.8887 111.973 9.89258C111.973 6.9668 112.786 4.62207 114.413 2.8584C116.054 1.09473 118.658 0.212891 122.227 0.212891C125.275 0.212891 127.688 0.397461 129.466 0.766602C130.204 1.2041 130.847 1.66211 131.394 2.14062C131.954 2.60547 132.487 3.17285 132.993 3.84277C132.993 4.7998 132.897 5.83887 132.706 6.95996C132.528 8.06738 132.275 9.08594 131.947 10.0156C131.633 10.9453 131.291 11.6152 130.922 12.0254C130.607 12.1758 130.259 12.292 129.876 12.374C129.493 12.4424 129.021 12.4766 128.461 12.4766C127.873 12.4766 127.395 12.4355 127.025 12.3535C126.656 12.2715 126.314 12.1348 126 11.9434L125.364 7.67773C124.571 7.45898 123.73 7.30176 122.842 7.20605C121.953 7.09668 121.352 7.04883 121.037 7.0625C120.531 7.29492 120.183 7.62305 119.991 8.04688C119.813 8.45703 119.725 8.94922 119.725 9.52344C119.725 10.1387 119.889 10.6719 120.217 11.123C120.559 11.5605 120.969 11.9229 121.447 12.21C121.926 12.4971 122.541 12.8184 123.293 13.1738L124.195 13.625C126.15 14.6504 127.688 15.5459 128.81 16.3115C129.931 17.0771 130.867 18.0479 131.619 19.2236C132.385 20.3857 132.768 21.7939 132.768 23.4482C132.768 25.376 132.262 27.0371 131.25 28.4316C130.238 29.8125 128.939 30.8105 127.354 31.4258C126.492 31.7676 125.542 32.0137 124.503 32.1641C123.464 32.3145 122.261 32.3896 120.894 32.3896C119.964 32.3896 118.966 32.2734 117.899 32.041C116.833 31.8086 115.794 31.3984 114.782 30.8105C113.784 30.2227 112.984 29.4365 112.383 28.4521C112.328 28.1924 112.301 27.8779 112.301 27.5088ZM140.068 25.0273C141.066 25.4238 141.853 25.7314 142.427 25.9502C143.001 26.1689 143.603 26.3604 144.231 26.5244C144.409 26.0732 144.498 25.458 144.498 24.6787C144.498 23.626 144.423 21.6982 144.272 18.8955C144.054 15.1494 143.944 12.2783 143.944 10.2822C143.944 8.90137 143.985 7.71191 144.067 6.71387L140.684 6.50879L140.622 12.9688C139.597 13.3105 138.441 13.4814 137.156 13.4814C136.828 13.4814 136.582 13.4746 136.418 13.4609C135.967 13.1055 135.495 12.5449 135.003 11.7793C134.524 11.0137 134.128 10.1523 133.813 9.19531C133.499 8.23828 133.342 7.31543 133.342 6.42676C133.342 4.89551 133.595 3.72656 134.101 2.91992C134.606 2.11328 135.317 1.55957 136.233 1.25879C137.149 0.944336 138.373 0.739258 139.904 0.643555C142.283 0.506836 145.079 0.404297 148.292 0.335938C151.519 0.253906 154.602 0.212891 157.541 0.212891C157.938 0.71875 158.231 1.28613 158.423 1.91504C158.628 2.54395 158.73 3.17285 158.73 3.80176C158.73 4.97754 158.43 5.96191 157.828 6.75488C157.227 7.54785 156.338 7.94434 155.162 7.94434C154.396 7.94434 153.474 7.80762 152.394 7.53418C152.147 13.96 151.792 19.8936 151.327 25.335C151.231 26.3877 151.074 27.3174 150.855 28.124C150.637 28.9307 150.302 29.6348 149.851 30.2363C149.29 30.9746 148.518 31.5215 147.533 31.877C146.549 32.2324 145.462 32.4102 144.272 32.4102C143.151 32.4102 142.044 32.2119 140.95 31.8154C139.87 31.4189 139.057 30.6875 138.51 29.6211C138.523 28.7324 138.633 27.9463 138.838 27.2627C139.043 26.5654 139.453 25.8203 140.068 25.0273ZM160.453 15.7168C160.453 12.5586 160.508 9.75586 160.617 7.30859L157.849 6.87793C157.671 6.37207 157.534 5.81152 157.438 5.19629C157.343 4.58105 157.295 3.98633 157.295 3.41211C157.295 2.97461 157.329 2.49609 157.397 1.97656C159.188 1.34766 161.554 0.896484 164.493 0.623047C167.433 0.349609 170.304 0.212891 173.106 0.212891C175.198 0.212891 176.996 0.376953 178.5 0.705078C180.004 1.0332 181.262 1.77832 182.273 2.94043C183.299 4.08887 183.812 5.81152 183.812 8.1084C183.812 9.05176 183.661 10.0977 183.36 11.2461C183.06 12.3809 182.643 13.5156 182.109 14.6504C181.617 15.6895 181.057 16.6807 180.428 17.624C179.812 18.5537 179.17 19.3535 178.5 20.0234C178.896 21.0625 179.307 22.0127 179.73 22.874C180.154 23.7217 180.804 24.7539 181.679 25.9707L184.55 24.7607C185.616 25.6768 186.238 26.8936 186.416 28.4111C186.416 28.4932 186.088 28.8828 185.432 29.5801C184.789 30.2773 183.948 30.9268 182.909 31.5283C181.87 32.1162 180.701 32.4102 179.402 32.4102C178.391 32.4102 177.481 32.2324 176.675 31.877C175.882 31.5215 175.226 30.8994 174.706 30.0107C174.2 29.1357 173.797 28.0967 173.496 26.8936C173.195 25.6904 172.983 24.501 172.86 23.3252L168.185 23.1201C168.308 24.1865 168.465 25.2871 168.656 26.4219C168.848 27.543 168.964 28.2197 169.005 28.4521C169.237 29.8057 169.388 30.7285 169.456 31.2207C168.827 31.6035 168.062 31.8975 167.159 32.1025C166.271 32.3076 165.361 32.4102 164.432 32.4102C163.365 32.4102 162.333 32.2666 161.335 31.9795C161.034 30.7764 160.809 28.6709 160.658 25.6631C160.521 22.6416 160.453 19.3262 160.453 15.7168ZM173.209 18.1777C173.688 16.8105 174.063 15.3271 174.337 13.7275C174.624 12.1143 174.884 10.1934 175.116 7.96484C174.72 7.81445 174.2 7.69824 173.558 7.61621C172.915 7.53418 172.293 7.49316 171.691 7.49316C170.324 7.49316 169.299 7.52734 168.615 7.5957C168.465 12.7363 168.301 16.3799 168.123 18.5264L173.209 18.1777ZM187.339 16.4961C187.339 5.64063 191.604 0.212891 200.136 0.212891C203.513 0.212891 206.145 0.916992 208.031 2.3252C209.932 3.71973 211.237 5.60645 211.948 7.98535C212.673 10.3506 213.035 13.1875 213.035 16.4961C213.035 21.3633 212.037 25.2324 210.041 28.1035C208.045 30.9746 204.743 32.4102 200.136 32.4102C195.501 32.4102 192.206 30.9883 190.251 28.1445C188.31 25.3008 187.339 21.418 187.339 16.4961ZM201.161 25.8682C202.282 25.8682 202.925 25.8066 203.089 25.6836C203.431 25.082 203.69 24.0361 203.868 22.5459C204.046 21.042 204.135 19.3604 204.135 17.501C204.135 15.5459 204.039 13.7344 203.848 12.0664C203.67 10.3848 203.417 9.20898 203.089 8.53906C202.747 8.26562 202.241 8.06055 201.571 7.92383C200.901 7.78711 200.163 7.71191 199.356 7.69824C198.892 7.69824 198.468 7.72559 198.085 7.78027C197.716 7.82129 197.449 7.88965 197.285 7.98535C196.889 8.66895 196.595 9.66016 196.403 10.959C196.226 12.2441 196.137 13.7139 196.137 15.3682C196.137 17.2412 196.239 19.1074 196.444 20.9668C196.649 22.8262 196.902 24.248 197.203 25.2324C197.395 25.4375 197.88 25.5947 198.659 25.7041C199.438 25.8135 200.272 25.8682 201.161 25.8682ZM222.756 22.3203C222.086 21.2812 221.279 19.8867 220.336 18.1367C219.406 16.3867 218.49 14.5205 217.588 12.5381C216.699 10.5557 216.002 8.74414 215.496 7.10352L212.379 6.67285C212.174 5.83887 212.037 5.14844 211.969 4.60156C211.9 4.04102 211.873 3.39844 211.887 2.67383C212.16 2.33203 212.652 1.96973 213.363 1.58691C214.061 1.19043 214.867 0.862305 215.783 0.602539C216.699 0.342773 217.602 0.212891 218.49 0.212891C221.033 0.212891 222.626 1.16992 223.269 3.08398C223.528 3.68555 223.925 4.78613 224.458 6.38574C225.005 7.97168 225.559 9.7627 226.119 11.7588C226.68 13.7549 227.117 15.6348 227.432 17.3984C228.266 15.7305 229.093 13.8848 229.913 11.8613C230.733 9.83789 231.28 8.23828 231.554 7.0625H231.513L229.011 6.63184C228.806 5.79785 228.669 5.10742 228.601 4.56055C228.532 4 228.505 3.35742 228.519 2.63281C228.792 2.29102 229.277 1.92871 229.975 1.5459C230.686 1.14941 231.499 0.821289 232.415 0.561523C233.331 0.301758 234.233 0.171875 235.122 0.171875C237.747 0.171875 239.354 1.18359 239.941 3.20703C240.092 3.71289 240.167 4.21191 240.167 4.7041C240.167 6.16699 239.559 8.01953 238.342 10.2617C237.125 12.5039 235.724 14.6846 234.138 16.8037C232.552 18.9229 231.191 20.5977 230.057 21.8281C229.77 23.5918 229.51 24.9727 229.277 25.9707L229.318 26.0117L232.354 24.7402C233.42 25.6562 234.042 26.873 234.22 28.3906C234.22 28.4727 233.892 28.8623 233.235 29.5596C232.593 30.2568 231.752 30.9062 230.713 31.5078C229.674 32.0957 228.505 32.3896 227.206 32.3896C225.866 32.3896 224.779 32.0137 223.945 31.2617C223.111 30.5098 222.701 29.2246 222.715 27.4062L222.756 22.3203Z" fill="black"/>
</svg>
