<svg width="734" height="738" viewBox="0 0 734 738" fill="none" xmlns="http://www.w3.org/2000/svg">
<path fill-rule="evenodd" clip-rule="evenodd" d="M313.667 27C352.107 -24.2541 433.667 2.93299 433.667 67.0003V671.047C433.667 735.463 351.377 762.423 313.26 710.497L183.452 533.667H100.333C45.1049 533.667 0.333252 488.897 0.333252 433.667V300.333C0.333252 245.105 45.1049 200.333 100.333 200.333H183.667L313.667 27Z" fill="#FC9AD6"/>
<path d="M507.457 106.148C503.98 85.817 519.577 67 540.203 67C555.783 67 569.16 77.9333 571.88 93.2747C581.14 145.449 600.333 265.822 600.333 367C600.333 468.177 581.14 588.55 571.88 640.727C569.16 656.067 555.783 667 540.203 667C519.577 667 503.98 648.183 507.457 627.853C517.247 570.577 533.667 460.58 533.667 367C533.667 273.421 517.247 163.423 507.457 106.148Z" fill="#FC9AD6"/>
<path d="M680.667 133.667C658.153 133.667 641.673 156.799 646.887 178.699C656.193 217.804 667 281.597 667 367C667 452.403 656.193 516.197 646.887 555.3C641.673 577.2 658.153 600.333 680.667 600.333C692.72 600.333 703.58 593.48 707.337 582.03C717.113 552.23 733.667 484.443 733.667 367C733.667 249.557 717.113 181.769 707.337 151.971C703.58 140.519 692.72 133.667 680.667 133.667Z" fill="#FC9AD6"/>
</svg>
