<svg width="80" height="72" viewBox="0 0 80 72" fill="none" xmlns="http://www.w3.org/2000/svg">
<path d="M4.16518 58.748L0.0478516 12.5693H45.2865L41.1652 58.74L22.6399 63.876L4.16518 58.748Z" fill="#E44F26"/>
<path d="M22.668 59.9508L37.6373 55.8001L41.16 16.3455H22.668V59.9508Z" fill="#F1662A"/>
<path d="M22.668 33.4719H15.1733L14.656 27.6733H22.668V22.0093H22.648H8.46533L8.60133 23.5279L9.99333 39.1359H22.668V33.4719Z" fill="#EBEBEB"/>
<path d="M22.6679 48.1814L22.6426 48.188L16.3346 46.484L15.9319 41.968H12.8666H10.2466L11.0399 50.86L22.6413 54.08L22.6679 54.0734V48.1814Z" fill="#EBEBEB"/>
<path d="M4.25732 0.0200195H7.13466V2.86402H9.76799V0.0200195H12.6467V8.63202H9.76799V5.74802H7.13466V8.63202H4.25732V0.0200195Z" fill="#010101"/>
<path d="M16.4303 2.87602H13.897V0.0200195H21.8436V2.87602H19.309V8.63202H16.4303V2.87602Z" fill="#010101"/>
<path d="M23.105 0.0200195H26.1063L27.9516 3.04669L29.797 0.0200195H32.7983V8.63202H29.9316V4.36402L27.9516 7.42535H27.9023L25.921 4.36402V8.63202H23.105V0.0200195Z" fill="#010101"/>
<path d="M34.2305 0.0200195H37.1105V5.78535H41.1571V8.63202H34.2305V0.0200195Z" fill="#010101"/>
<path d="M22.6479 33.4719V39.1359H29.6213L28.9639 46.4799L22.6479 48.1853V54.0773L34.2586 50.8599L34.3439 49.9026L35.6746 34.9933L35.8119 33.4719H34.2866H22.6479Z" fill="white"/>
<path d="M22.6479 22.0093V25.5266V27.6586V27.6733H36.3093H36.3279L36.4413 26.3999L36.6999 23.5279L36.8346 22.0093H22.6479Z" fill="white"/>
<path d="M70.7382 10.141H66.9834L70.8882 14.3781V16.395H62.8453V14.0336H66.7493L62.8453 9.79638V7.77661H70.7382V10.141ZM61.2511 10.141H57.4962L61.4009 14.3781V16.395H53.358V14.0336H57.2625L53.358 9.79638V7.77661H61.2511V10.141ZM51.8567 10.237H47.805V13.9348H51.8567V16.395H44.9253V7.77661H51.8567V10.237Z" fill="#131313"/>
<path d="M39.404 66.5067L35.2866 20.3293H80.5266L76.4053 66.5L57.8786 71.636L39.404 66.5067Z" fill="#1572B6"/>
<path d="M57.9067 67.7108L72.8774 63.5601L76.3987 24.1055H57.9067V67.7108Z" fill="#33A9DC"/>
<path d="M57.9062 40.8361H65.4009L65.9182 35.0361H57.9062V29.3721H57.9262H72.1076L71.9729 30.8921L70.5809 46.4987H57.9062V40.8361Z" fill="white"/>
<path d="M57.9409 55.5441L57.9155 55.5508L51.6075 53.8481L51.2049 49.3308H48.1395H45.5195L46.3129 58.2228L57.9142 61.4441L57.9409 61.4375V55.5441Z" fill="#EBEBEB"/>
<path d="M64.9196 46.2588L64.2369 53.8441L57.9209 55.5495V61.4415L69.5316 58.2228L69.6169 57.2668L70.6022 46.2588H64.9196Z" fill="white"/>
<path d="M57.9264 29.3721V32.8894V35.0227V35.0361H44.2637H44.2464L44.1331 33.7627L43.8744 30.8921L43.7397 29.3721H57.9264Z" fill="#EBEBEB"/>
<path d="M57.9065 40.8362V44.3535V46.4855V46.5002H51.6972H51.6799L51.5652 45.2268L51.3079 42.3562L51.1719 40.8362H57.9065Z" fill="#EBEBEB"/>
</svg>
