<svg width="80" height="80" viewBox="0 0 80 80" fill="none" xmlns="http://www.w3.org/2000/svg">
<path d="M0 0H80V80H0V0Z" fill="#F7DF1E"/>
<path d="M21.0348 66.8538L27.157 63.1488C28.338 65.2429 29.4124 67.0147 31.9896 67.0147C34.4599 67.0147 36.0174 66.0483 36.0174 62.2896V36.7277H43.5354V62.3959C43.5354 70.1825 38.971 73.7268 32.3119 73.7268C26.2978 73.7268 22.8067 70.612 21.0347 66.8532M47.6189 66.0482L53.7403 62.5039C55.3517 65.1356 57.4461 67.0686 61.1512 67.0686C64.2663 67.0686 66.2527 65.5112 66.2527 63.3631C66.2527 60.7855 64.2122 59.8725 60.7752 58.3693L58.8963 57.5633C53.4721 55.2546 49.874 52.3547 49.874 46.2327C49.874 40.5941 54.17 36.2979 60.8829 36.2979C65.6623 36.2979 69.0992 37.9627 71.5691 42.3126L65.7157 46.0714C64.4268 43.7625 63.031 42.8497 60.883 42.8497C58.6813 42.8497 57.285 44.2459 57.285 46.0714C57.285 48.3269 58.6813 49.2401 61.903 50.6364L63.7823 51.4419C70.1728 54.1808 73.7709 56.9729 73.7709 63.2557C73.7709 70.0224 68.4546 73.7274 61.3125 73.7274C54.3314 73.7274 49.8204 70.3982 47.619 66.0482" fill="black"/>
</svg>
