<svg width="80" height="80" viewBox="0 0 80 80" fill="none" xmlns="http://www.w3.org/2000/svg">
<path d="M5 5V75H75V5H5ZM0 0H80V80H0V0Z" fill="#43C9FF"/>
<mask id="mask0_6607_53" style="mask-type:alpha" maskUnits="userSpaceOnUse" x="18" y="22" width="48" height="37">
<path d="M28.1999 22.5C33.2333 22.5 37.0916 23.4167 39.7749 25.25C42.4583 27.0833 43.7999 29.95 43.7999 33.85C43.7999 35.8833 43.4416 37.625 42.7249 39.075C42.0082 40.525 40.9666 41.7083 39.5999 42.625C38.2332 43.5417 36.5666 44.2167 34.5999 44.65C32.6332 45.0833 30.3832 45.3 27.8499 45.3H24.6999V57.5H18.3999V23.35C19.8666 23.0167 21.4916 22.7917 23.2749 22.675C25.0582 22.5583 26.6999 22.5 28.1999 22.5ZM28.6499 27.95C27.0499 27.95 25.7332 28 24.6999 28.1V39.9H27.7499C30.7833 39.9 33.1166 39.475 34.7499 38.625C36.3832 37.775 37.1999 36.1667 37.1999 33.8C37.1999 32.6667 36.9832 31.7167 36.5499 30.95C36.1166 30.1833 35.5166 29.5833 34.7499 29.15C33.9832 28.7167 33.0749 28.4083 32.0249 28.225C30.9749 28.0417 29.8499 27.95 28.6499 27.95ZM54.5499 53.15C56.1499 53.15 57.3166 52.9583 58.0499 52.575C58.7832 52.1917 59.1499 51.5333 59.1499 50.6C59.1499 49.7333 58.7582 49.0167 57.9749 48.45C57.1916 47.8833 55.8999 47.2667 54.0999 46.6C52.9999 46.2 51.9916 45.775 51.0749 45.325C50.1582 44.875 49.3666 44.35 48.6999 43.75C48.0332 43.15 47.5082 42.425 47.1249 41.575C46.7416 40.725 46.5499 39.6833 46.5499 38.45C46.5499 36.05 47.4332 34.1583 49.1999 32.775C50.9666 31.3917 53.3666 30.7 56.3999 30.7C57.9332 30.7 59.3999 30.8417 60.7999 31.125C62.1999 31.4083 63.2499 31.6833 63.9499 31.95L62.8499 36.85C62.1832 36.55 61.3332 36.275 60.2999 36.025C59.2666 35.775 58.0666 35.65 56.6999 35.65C55.4666 35.65 54.4666 35.8583 53.6999 36.275C52.9332 36.6917 52.5499 37.3333 52.5499 38.2C52.5499 38.6333 52.6249 39.0167 52.7749 39.35C52.9249 39.6833 53.1832 39.9917 53.5499 40.275C53.9166 40.5583 54.3999 40.8417 54.9999 41.125C55.5999 41.4083 56.3332 41.7 57.1999 42C58.6332 42.5333 59.8499 43.0583 60.8499 43.575C61.8499 44.0917 62.6749 44.675 63.3249 45.325C63.9749 45.975 64.4499 46.7167 64.7499 47.55C65.0499 48.3833 65.1999 49.3833 65.1999 50.55C65.1999 53.05 64.2749 54.9417 62.4249 56.225C60.5749 57.5083 57.9333 58.15 54.4999 58.15C52.1999 58.15 50.3499 57.9583 48.9499 57.575C47.5499 57.1917 46.5666 56.8833 45.9999 56.65L47.0499 51.6C47.9499 51.9667 49.0249 52.3167 50.2749 52.65C51.5249 52.9833 52.9499 53.15 54.5499 53.15Z" fill="white"/>
</mask>
<g mask="url(#mask0_6607_53)">
<path d="M28.1999 22.5C33.2333 22.5 37.0916 23.4167 39.7749 25.25C42.4583 27.0833 43.7999 29.95 43.7999 33.85C43.7999 35.8833 43.4416 37.625 42.7249 39.075C42.0082 40.525 40.9666 41.7083 39.5999 42.625C38.2332 43.5417 36.5666 44.2167 34.5999 44.65C32.6332 45.0833 30.3832 45.3 27.8499 45.3H24.6999V57.5H18.3999V23.35C19.8666 23.0167 21.4916 22.7917 23.2749 22.675C25.0582 22.5583 26.6999 22.5 28.1999 22.5ZM28.6499 27.95C27.0499 27.95 25.7332 28 24.6999 28.1V39.9H27.7499C30.7833 39.9 33.1166 39.475 34.7499 38.625C36.3832 37.775 37.1999 36.1667 37.1999 33.8C37.1999 32.6667 36.9832 31.7167 36.5499 30.95C36.1166 30.1833 35.5166 29.5833 34.7499 29.15C33.9832 28.7167 33.0749 28.4083 32.0249 28.225C30.9749 28.0417 29.8499 27.95 28.6499 27.95ZM54.5499 53.15C56.1499 53.15 57.3166 52.9583 58.0499 52.575C58.7832 52.1917 59.1499 51.5333 59.1499 50.6C59.1499 49.7333 58.7582 49.0167 57.9749 48.45C57.1916 47.8833 55.8999 47.2667 54.0999 46.6C52.9999 46.2 51.9916 45.775 51.0749 45.325C50.1582 44.875 49.3666 44.35 48.6999 43.75C48.0332 43.15 47.5082 42.425 47.1249 41.575C46.7416 40.725 46.5499 39.6833 46.5499 38.45C46.5499 36.05 47.4332 34.1583 49.1999 32.775C50.9666 31.3917 53.3666 30.7 56.3999 30.7C57.9332 30.7 59.3999 30.8417 60.7999 31.125C62.1999 31.4083 63.2499 31.6833 63.9499 31.95L62.8499 36.85C62.1832 36.55 61.3332 36.275 60.2999 36.025C59.2666 35.775 58.0666 35.65 56.6999 35.65C55.4666 35.65 54.4666 35.8583 53.6999 36.275C52.9332 36.6917 52.5499 37.3333 52.5499 38.2C52.5499 38.6333 52.6249 39.0167 52.7749 39.35C52.9249 39.6833 53.1832 39.9917 53.5499 40.275C53.9166 40.5583 54.3999 40.8417 54.9999 41.125C55.5999 41.4083 56.3332 41.7 57.1999 42C58.6332 42.5333 59.8499 43.0583 60.8499 43.575C61.8499 44.0917 62.6749 44.675 63.3249 45.325C63.9749 45.975 64.4499 46.7167 64.7499 47.55C65.0499 48.3833 65.1999 49.3833 65.1999 50.55C65.1999 53.05 64.2749 54.9417 62.4249 56.225C60.5749 57.5083 57.9333 58.15 54.4999 58.15C52.1999 58.15 50.3499 57.9583 48.9499 57.575C47.5499 57.1917 46.5666 56.8833 45.9999 56.65L47.0499 51.6C47.9499 51.9667 49.0249 52.3167 50.2749 52.65C51.5249 52.9833 52.9499 53.15 54.5499 53.15Z" fill="white"/>
<path d="M80 0H0V80H80V0Z" fill="#43C9FF"/>
</g>
</svg>
