<svg width="80" height="60" viewBox="0 0 80 60" fill="none" xmlns="http://www.w3.org/2000/svg">
<path d="M68.8653 34.3511C66.0739 34.3666 63.6567 35.0335 61.6294 36.0262C60.8809 34.5527 60.1323 33.2654 60.0076 32.3038C59.8672 31.1871 59.6957 30.5047 59.8672 29.1708C60.0388 27.837 60.8185 25.9448 60.8185 25.7897C60.8029 25.6501 60.647 24.9677 59.0407 24.9522C57.4345 24.9367 56.0466 25.2624 55.8906 25.6811C55.7347 26.0999 55.4228 27.0615 55.2201 28.0541C54.9394 29.512 52.0076 34.6768 50.339 37.391C49.7932 36.3364 49.3253 35.4058 49.2318 34.6613C49.0914 33.5446 48.9199 32.8622 49.0914 31.5283C49.2629 30.1945 50.0427 28.3023 50.0427 28.1472C50.0271 28.0076 49.8711 27.3252 48.2649 27.3097C46.6587 27.2941 45.2707 27.6199 45.1148 28.0386C44.9589 28.4574 44.7873 29.45 44.4442 30.4116C44.1167 31.3732 40.2181 39.9967 39.2045 42.2456C38.6898 43.3933 38.2376 44.3084 37.9101 44.9288C37.5826 45.5492 37.8945 44.9753 37.8633 45.0373C37.5826 45.5647 37.4267 45.8594 37.4267 45.8594V45.8749C37.2084 46.2626 36.9744 46.6349 36.8653 46.6349C36.7873 46.6349 36.6314 45.5957 36.8965 44.1688C37.4735 41.1754 38.877 36.507 38.8614 36.3364C38.8614 36.2588 39.1265 35.4368 37.9569 35.018C36.8185 34.5993 36.413 35.2972 36.3195 35.2972C36.2259 35.2972 36.1479 35.5454 36.1479 35.5454C36.1479 35.5454 37.4111 30.2875 33.7308 30.2875C31.4228 30.2875 28.2415 32.7846 26.6665 35.0646C25.6684 35.6074 23.5475 36.7551 21.3019 37.9804C20.4442 38.4457 19.5553 38.942 18.7132 39.3918L18.5417 39.2057C14.0817 34.4752 5.83215 31.1251 6.17523 24.7661C6.29998 22.4551 7.1109 16.3597 22.0193 8.97709C34.2298 2.92827 44.0076 4.58782 45.7074 8.27915C48.1245 13.5525 40.4832 23.3547 27.7893 24.7661C22.955 25.3089 20.413 23.4477 19.7737 22.7498C19.1031 22.0208 19.0095 21.9898 18.76 22.1294C18.3546 22.3465 18.6041 22.9979 18.76 23.3857C19.1343 24.3628 20.6937 26.0999 23.3448 26.9684C25.6684 27.7284 31.3448 28.1472 38.2064 25.5105C45.8945 22.5482 51.8984 14.328 50.1362 7.45713C48.3429 0.462216 36.6782 -1.83323 25.6528 2.05972C19.0875 4.38619 11.9764 8.01548 6.86139 12.777C0.779514 18.4226 -0.187347 23.3547 0.218111 25.402C1.63721 32.7071 11.7581 37.4686 15.8127 40.9893C15.6099 41.0979 15.4228 41.2064 15.2513 41.2995C13.224 42.2921 5.50466 46.3092 3.57094 50.5588C1.3877 55.3669 3.91402 58.8256 5.59823 59.2908C10.8068 60.7333 16.1401 58.1431 19.0251 53.8779C21.8945 49.6127 21.5514 44.0757 20.2259 41.5476L20.1791 41.4546L21.7698 40.524C22.799 39.9191 23.8127 39.3608 24.7015 38.88C24.2025 40.2293 23.8438 41.8268 23.6567 44.1533C23.4384 46.883 24.5612 50.4192 26.0427 51.8151C26.6976 52.42 27.4774 52.4355 27.9608 52.4355C29.6762 52.4355 30.4559 51.0241 31.3136 49.3336C32.3741 47.2708 33.3097 44.8823 33.3097 44.8823C33.3097 44.8823 32.1401 51.3498 35.337 51.3498C36.5066 51.3498 37.6762 49.8454 38.2064 49.0699V49.0854C38.2064 49.0854 38.2376 49.0389 38.3 48.9303C38.4247 48.7442 38.4871 48.6356 38.4871 48.6356V48.6046C38.955 47.7981 39.9998 45.9524 41.5592 42.897C43.5709 38.9575 45.5047 34.0254 45.5047 34.0254C45.5047 34.0254 45.6918 35.2352 46.2688 37.2204C46.6119 38.3992 47.3604 39.6865 47.9374 40.9428C47.4696 41.5942 47.1889 41.9664 47.1889 41.9664L47.2045 41.9819C46.8302 42.4782 46.4091 43.0056 45.9725 43.5329C44.3819 45.4251 42.4793 47.581 42.2298 48.2013C41.9335 48.9303 41.9959 49.4731 42.5729 49.9074C42.9939 50.2176 43.7425 50.2797 44.5378 50.2176C45.9725 50.1246 46.9706 49.7678 47.4696 49.5507C48.2493 49.2715 49.1382 48.8528 49.9959 48.2324C51.5553 47.0846 52.5066 45.4561 52.413 43.2847C52.3663 42.0905 51.9764 40.9117 51.493 39.795C51.6333 39.5934 51.7737 39.3918 51.914 39.1746C54.378 35.5919 56.2805 31.6524 56.2805 31.6524C56.2805 31.6524 56.4676 32.8622 57.0446 34.8474C57.3409 35.8556 57.9335 36.9567 58.4637 38.0424C56.1557 39.9191 54.7054 42.0905 54.2064 43.5174C53.2863 46.1541 54.0037 47.3483 55.3604 47.6275C55.9686 47.7516 56.8419 47.4724 57.4969 47.1932C58.3078 46.9295 59.2902 46.4798 60.1947 45.8128C61.7542 44.6651 63.2512 43.0676 63.1733 40.9117C63.1265 39.9191 62.8614 38.942 62.5027 38.0114C64.4676 37.2049 67.0095 36.7396 70.2376 37.1274C77.1772 37.9339 78.5495 42.2456 78.2844 44.0447C78.0193 45.8439 76.569 46.8365 76.0856 47.1467C75.6021 47.4414 75.4462 47.5499 75.493 47.7671C75.5553 48.0928 75.7737 48.0773 76.1947 48.0152C76.7717 47.9222 79.8438 46.5418 79.9686 43.2227C80.1557 38.9575 76.0856 34.3046 68.8653 34.3511ZM15.3448 52.2959C13.0524 54.793 9.82435 55.7391 8.45203 54.9326C6.97055 54.0796 7.54755 50.4037 10.3702 47.7516C12.0856 46.1385 14.3156 44.6496 15.7815 43.7345C16.1089 43.5329 16.608 43.2382 17.2006 42.8815C17.2941 42.8194 17.3565 42.7884 17.3565 42.7884C17.4657 42.7264 17.5904 42.6488 17.7152 42.5713C18.76 46.3557 17.762 49.6748 15.3448 52.2959ZM32.1089 40.9583C31.3136 42.897 29.6294 47.8756 28.6158 47.5965C27.7425 47.3638 27.2123 43.5949 28.4442 39.8726C29.068 37.9959 30.3936 35.7625 31.1733 34.8939C32.4364 33.4981 33.8088 33.0328 34.1518 33.6066C34.5573 34.3511 32.608 39.7485 32.1089 40.9583ZM45.9413 47.5344C45.5982 47.705 45.2863 47.8291 45.146 47.736C45.0368 47.674 45.2863 47.4414 45.2863 47.4414C45.2863 47.4414 47.0173 45.5957 47.7035 44.7427C48.0934 44.2463 48.5612 43.6725 49.0602 43.0211V43.2072C49.0602 45.4406 46.9082 46.9295 45.9413 47.5344ZM56.608 45.1149C56.3585 44.9288 56.3897 44.3549 57.2318 42.5558C57.5592 41.8423 58.3078 40.6481 59.6021 39.5159C59.7581 39.9812 59.8516 40.4309 59.836 40.8497C59.8204 43.6415 57.8243 44.6806 56.608 45.1149Z" fill="#CF649A"/>
</svg>
