<svg width="80" height="80" viewBox="0 0 80 80" fill="none" xmlns="http://www.w3.org/2000/svg">
<g clip-path="url(#clip0_6607_142)">
<path d="M79.9766 0H0.0234375C0.0104933 0 0 0.0104933 0 0.0234375V79.9766C0 79.9895 0.0104933 80 0.0234375 80H79.9766C79.9895 80 80 79.9895 80 79.9766V0.0234375C80 0.0104933 79.9895 0 79.9766 0Z" fill="#005A9C"/>
<path d="M25.7812 23.75L31.5625 43.125L37.3438 23.75H52.8125V25.7812L46.875 35.7812C49.375 36.4062 53.125 38.9062 53.125 45.4688C53.125 57.6562 40.1562 59.2188 37.0312 49.2188L40.1562 47.9688C43.125 54.2188 48.75 52.3438 48.75 45.4688C48.75 43.4375 48.4375 39.0625 43.125 39.0625H41.5625V37.3438L47.1875 27.8125H40.1562L32.0312 55.7812H31.7188L25.625 36.0938L19.8438 55.7812H19.375L9.84375 23.75H13.9062L19.6875 43.125L23.5938 30.1562L21.7188 23.75M56.4062 42.1875C51.5625 32.3438 60 16.4062 66.875 28.2812L69.2188 23.5938L69.8438 27.6562L67.3438 32.1875C62.8125 23.75 54.8438 30 56.4062 42.1875ZM53.9062 46.0938C58.75 55.4688 65.4688 53.9062 69.375 46.5625L70.1562 49.8438C65.7812 58.125 57.1875 57.9688 53.75 46.0938H53.9062ZM56.4062 42.1875C51.5625 32.3438 60 16.4062 66.875 28.2812L69.2188 23.5938L69.8438 27.6562L67.3438 32.1875C62.8125 23.75 54.8438 30 56.4062 42.1875Z" fill="white"/>
</g>
<defs>
<clipPath id="clip0_6607_142">
<rect width="80" height="80" fill="white"/>
</clipPath>
</defs>
</svg>
