<svg width="80" height="80" viewBox="0 0 80 80" fill="none" xmlns="http://www.w3.org/2000/svg">
<path d="M5.66374 39.8439C5.66374 53.3737 13.5265 65.066 24.9281 70.6068L8.62309 25.933C6.7265 30.1841 5.66374 34.8885 5.66374 39.8439ZM62.9203 38.119C62.9203 33.8946 61.4029 30.9691 60.1015 28.692C58.3688 25.8764 56.7447 23.492 56.7447 20.6764C56.7447 17.5343 59.1278 14.6094 62.4846 14.6094C62.6361 14.6094 62.7798 14.6283 62.9275 14.6367C56.8462 9.06537 48.7441 5.66374 39.8452 5.66374C27.9037 5.66374 17.3977 11.7906 11.2859 21.0706C12.0878 21.0946 12.8436 21.1115 13.4855 21.1115C17.0608 21.1115 22.5951 20.6777 22.5951 20.6777C24.4377 20.5691 24.655 23.2754 22.8143 23.4933C22.8143 23.4933 20.9626 23.7112 18.9021 23.8192L31.3496 60.8436L38.8299 38.4091L33.5044 23.8179C31.6637 23.7099 29.92 23.492 29.92 23.492C28.0781 23.3841 28.294 20.5678 30.1359 20.6764C30.1359 20.6764 35.7808 21.1102 39.1395 21.1102C42.7141 21.1102 48.2491 20.6764 48.2491 20.6764C50.093 20.5678 50.3096 23.2741 48.4683 23.492C48.4683 23.492 46.6127 23.7099 44.5561 23.8179L56.9086 60.562L60.3181 49.1688C61.7958 44.441 62.9203 41.0452 62.9203 38.119ZM40.4449 42.8338L30.1893 72.6348C33.2514 73.535 36.4898 74.0273 39.8452 74.0273C43.8257 74.0273 47.6429 73.3392 51.1961 72.0898C51.1044 71.9434 51.0211 71.788 50.9528 71.6189L40.4449 42.8338ZM69.8381 23.4446C69.985 24.5333 70.0683 25.7021 70.0683 26.9594C70.0683 30.428 69.4205 34.3272 67.4693 39.2026L57.0283 69.3899C67.1902 63.4641 74.0254 52.4546 74.0254 39.8446C74.026 33.9018 72.508 28.3135 69.8381 23.4446ZM39.8452 0C17.8751 0 0 17.8738 0 39.8439C0 61.8166 17.8751 79.6898 39.8452 79.6898C61.8146 79.6898 79.6924 61.8166 79.6924 39.8439C79.6917 17.8738 61.8146 0 39.8452 0ZM39.8452 77.8634C18.8826 77.8634 1.82699 60.8078 1.82699 39.8439C1.82699 18.8813 18.882 1.82699 39.8452 1.82699C60.8072 1.82699 77.8615 18.8813 77.8615 39.8439C77.8615 60.8078 60.8072 77.8634 39.8452 77.8634Z" fill="#464342"/>
</svg>
