<svg width="595" height="822" viewBox="0 0 595 822" fill="none" xmlns="http://www.w3.org/2000/svg">
<path d="M574.817 348.968L574.819 348.97C576.696 351.129 577.183 354.158 576.083 356.781L580.694 358.714L576.083 356.781C568.214 375.553 565.125 407.071 564.693 443.479C564.258 480.142 566.525 522.594 569.829 563.773C574.981 627.981 582.694 689.499 586.684 721.321C587.808 730.281 588.636 736.887 589.029 740.535C590.581 754.96 589.698 763.561 587.591 768.257C586.609 770.446 585.454 771.576 584.302 772.203C583.102 772.856 581.407 773.231 578.932 773.033C573.762 772.619 566.638 769.844 557.477 764.953C548.453 760.135 538.097 753.63 526.57 746.344L524.851 745.256C502.314 731.006 475.712 714.185 447.825 702.832C419.225 691.189 388.606 685.01 359.088 693.704C353.867 695.241 348.793 698.637 343.96 702.911C339.079 707.227 334.136 712.717 329.201 718.85C320.265 729.954 311.011 743.605 301.902 757.042C300.968 758.419 300.036 759.794 299.107 761.164C289.013 776.029 279.167 790.266 269.879 800.79C265.239 806.048 260.892 810.198 256.882 813.003C252.831 815.837 249.548 817 246.935 817C228.159 817 217.126 811.304 209.832 802.604C202.252 793.563 198.146 780.655 194.764 764.995C193.674 759.948 192.656 754.583 191.604 749.04C189.485 737.873 187.229 725.985 183.973 714.519C179.032 697.12 171.588 679.775 158.142 665.12L154.458 668.5L158.142 665.12C146.183 652.087 130.434 641.199 113.873 631.134C106.259 626.507 98.3938 622.009 90.5922 617.546C89.8906 617.145 89.1894 616.744 88.489 616.343C79.9756 611.471 71.5614 606.627 63.5054 601.615C30.9745 581.377 6.1566 559.488 5.33901 525.801L5.33899 525.8C5.27094 523.016 6.74903 520.43 9.17357 519.078C11.6074 517.722 14.5877 517.827 16.9085 519.337L16.9102 519.339C39.3372 533.926 65.0274 542.876 85.853 542.876H85.854C104.22 542.872 114.804 535.724 120.502 529.211L120.505 529.207C129.575 518.817 132.287 503.897 129.853 485.967L124.899 486.64L129.853 485.967C125.99 457.51 109.219 430.819 93.7079 406.131L93.3787 405.607C75.4143 377.007 57.7724 348.74 55.3495 317.052C53.3684 290.799 64.1327 262.528 85.3721 239.625L85.3724 239.624C100.627 223.172 120.068 211.181 140.019 205.789L140.02 205.789C142.311 205.169 144.767 205.673 146.632 207.154C148.491 208.632 149.542 210.91 149.461 213.288C148.435 242.175 158.695 276.557 175.624 301.214C190.612 323.048 210.251 335.963 231.233 335.963H231.234C241.797 335.959 252.308 332.767 262.461 326.716L262.463 326.715C277.069 318.004 286.504 306.753 289.369 293.048C292.362 278.754 287.873 263.903 280.397 249.266C272.937 234.661 262.058 219.443 251.161 204.2L251.002 203.978C251.002 203.978 251.002 203.978 251.002 203.978C231.402 176.56 212.191 149.522 207.302 123.019C201.095 89.3623 210.936 43.5372 220.619 10.3976L220.619 10.3951C221.459 7.51634 223.934 5.41958 226.917 5.06043L226.93 5.05883L226.944 5.05715C229.861 4.68995 232.787 6.1392 234.296 8.75332C256.296 46.8886 303.449 107.499 403.457 181.679L403.458 181.68C463.86 226.452 471.242 302.786 477.774 372.891C478.174 377.275 478.583 381.625 478.993 385.92L478.994 385.929L480.189 398.243L481.305 409.732L488.923 401.059L497.082 391.769C497.083 391.769 497.083 391.769 497.083 391.769C517.071 369.016 541.353 353.475 567.244 346.644C570.034 345.92 572.956 346.826 574.817 348.968Z" fill="url(#paint0_linear_33_6)" stroke="black" stroke-width="10"/>
<defs>
<linearGradient id="paint0_linear_33_6" x1="297.577" y1="0.000488281" x2="297.577" y2="822" gradientUnits="userSpaceOnUse">
<stop stop-color="#FFC700"/>
<stop offset="1" stop-color="#BC0000"/>
</linearGradient>
</defs>
</svg>
