<?xml version="1.0" encoding="utf-8"?><svg viewBox="0 0 24 24" xmlns="http://www.w3.org/2000/svg" xmlns:xlink="http://www.w3.org/1999/xlink"><style>:root>svg{display:none}:root>svg:target{display:block}</style><svg viewBox="0 0 24 24" id="arrow-next" xmlns="http://www.w3.org/2000/svg"><path fill-rule="evenodd" clip-rule="evenodd" d="M8.293 19.707a1 1 0 010-1.414L14.586 12 8.293 5.707a1 1 0 011.414-1.414l7 7a1 1 0 010 1.414l-7 7a1 1 0 01-1.414 0z"/></svg><svg viewBox="0 0 24 24" id="arrow-prev" xmlns="http://www.w3.org/2000/svg"><path fill-rule="evenodd" clip-rule="evenodd" d="M15.707 4.293a1 1 0 010 1.414L9.414 12l6.293 6.293a1 1 0 01-1.414 1.414l-7-7a1 1 0 010-1.414l7-7a1 1 0 011.414 0z"/></svg><svg viewBox="0 0 24 24" id="header-nav-list-icon-consultations" xmlns="http://www.w3.org/2000/svg"><path d="M19 10v9a2 2 0 01-2 2H7a2 2 0 01-2-2v-9m16 2l-9-9-9 9"/></svg><svg viewBox="0 0 24 24" id="header-nav-list-icon-documents" xmlns="http://www.w3.org/2000/svg"><path d="M3 4v14a2 2 0 002 2h14a2 2 0 002-2V8h-4"/><path d="M3 4h14v14a2 2 0 002 2M13 8H7m6 4H9"/></svg><svg viewBox="0 0 24 24" id="header-nav-list-icon-settings" xmlns="http://www.w3.org/2000/svg"><circle cx="12" cy="12" r="2"/><path d="M5.399 5.88A8.99 8.99 0 003.4 9.344l1.6.924c1.333.77 1.333 2.694 0 3.464l-1.601.924c.195.63.463 1.249.807 1.844a9.027 9.027 0 001.193 1.62l1.6-.924c1.334-.77 3 .193 3 1.732v1.847a8.99 8.99 0 004.001.002v-1.849c0-1.54 1.667-2.502 3-1.732l1.601.925a8.99 8.99 0 001.998-3.466L19 13.732c-1.333-.77-1.333-2.694 0-3.464l1.601-.924a9.029 9.029 0 00-.807-1.844 9.03 9.03 0 00-1.193-1.62L17 6.803c-1.333.77-3-.193-3-1.732V3.225a8.99 8.99 0 00-4-.002v1.849c0 1.54-1.667 2.502-3 1.732l-1.601-.925z"/></svg></svg>