<svg width="200" height="57" viewBox="0 0 200 57" fill="none" xmlns="http://www.w3.org/2000/svg">
<rect width="200" height="57" rx="5" fill="#030D19"/>
<g clip-path="url(#clip0_1492_715)">
<path d="M59.5301 20.4441H54.8652L56.8708 25.2521H59.5301V44H65.1904V25.2521H68.7188V20.4441H65.1904C65.2349 18.2821 65.9555 17.5412 68.1245 17.5412H68.7262V12H67.092C60.2284 12 59.5375 17.1406 59.5375 20.4441H59.5301Z" fill="#5245E5"/>
<path d="M82.5274 19.4463C75.6415 19.4463 70.2041 24.8892 70.2041 31.7307C70.2041 38.5722 75.6712 43.932 82.4383 43.932C89.2053 43.932 94.6279 38.4437 94.6279 31.7307C94.6279 25.0178 89.1905 19.4463 82.5126 19.4463H82.5274ZM82.4086 38.7763C78.7613 38.7763 75.7752 35.6164 75.7752 31.6854C75.7752 27.7543 78.7613 24.5944 82.3269 24.5944C86.1004 24.5944 89.0939 27.7241 89.0939 31.7307C89.0939 35.7373 86.1078 38.7763 82.416 38.7763H82.4086Z" fill="#5245E5"/>
<path d="M107.553 19.4687C102.353 19.635 98.2231 23.9667 98.2231 29.2509V43.9998H103.883V30.6646C103.883 26.9452 105.547 25.078 108.942 24.9948V19.4536H108.511C108.244 19.4536 107.924 19.4536 107.553 19.4687Z" fill="#5245E5"/>
<path d="M129.555 21.1623C129.555 21.1623 127.149 19.0002 122.335 19.0002C115.873 19.0002 110.777 24.5263 110.777 31.5644C110.777 38.6024 115.828 43.9168 122.38 43.9168H123.204C129.778 43.9168 135.104 38.3605 135.104 32.3128V12H129.555V21.1623ZM123.256 38.746C119.423 38.746 116.37 35.5256 116.37 31.3981C116.37 27.2705 119.29 24.1862 123.048 24.1862C127.052 24.1862 129.971 27.2856 129.971 31.5341C129.971 35.7827 127.007 38.746 123.249 38.746H123.256Z" fill="#5245E5"/>
<path d="M163.094 32.0633C163.094 24.7834 157.946 19.4463 150.926 19.4463C143.907 19.4463 138.506 24.9119 138.506 31.8063C138.506 38.7007 144.077 44 151.268 44C155.138 44 158.161 42.6469 160.627 39.7666C161.519 38.6629 162.12 37.6877 162.499 36.5084H156.326C154.878 38.2018 153.474 38.8368 151.142 38.8368C147.777 38.8368 145.311 37.0527 144.635 34.2178H162.886C163.056 33.4165 163.101 32.91 163.101 32.0558H163.094V32.0709V32.0633ZM144.456 29.2738C145.348 26.2197 147.65 24.6171 151.008 24.6171C154.365 24.6171 156.794 26.2727 157.515 29.2738H144.456Z" fill="#5245E5"/>
<path d="M188 44L170.41 19.4463H163.101L171.896 31.7232L163.101 44H170.41L175.55 36.8259L180.683 44H188Z" fill="#5245E5"/>
<path opacity="0.58" d="M182.867 26.6204L188 19.4463H180.683L175.55 26.6204H182.867Z" fill="#5245E5"/>
<path opacity="0.58" d="M27.8713 21.3588L43.2179 18.3955C43.931 18.2594 44.4435 17.6244 44.4435 16.8835V16.1427C44.4435 13.8521 42.6236 12 40.3729 12H26.4451C25.5017 12 24.7886 12.8769 24.9669 13.8219L26.148 20.1644C26.2965 20.9809 27.0691 21.51 27.8713 21.3588Z" fill="#5245E5"/>
<path d="M21.6315 21.0338L20.183 13.2473C20.0419 12.5216 19.4254 12 18.6974 12H17.0706C14.8199 12 13 13.8521 13 16.1427V22.3718C13 23.3319 13.8617 24.0576 14.7902 23.8838L20.4579 22.7876C21.2601 22.6364 21.7801 21.8502 21.6315 21.0338Z" fill="#5245E5"/>
<path opacity="0.58" d="M21.3121 27.3837L14.2256 28.752C13.5125 28.888 13 29.5231 13 30.2639V39.8571C13 42.1477 14.8199 43.9998 17.0706 43.9998H24.0902C25.0336 43.9998 25.7467 43.1229 25.5759 42.1779L23.0429 28.5781C22.8943 27.7617 22.1218 27.2325 21.3195 27.3837H21.3121Z" fill="#5245E5"/>
<path d="M27.5519 27.7014L28.161 30.9747C28.317 31.8063 29.1044 32.3581 29.9215 32.1994L37.6542 30.7101C38.4713 30.5514 39.2587 31.0957 39.4147 31.9348L39.7118 33.5148C39.8678 34.3463 39.333 35.1476 38.5084 35.3064L30.7757 36.7956C29.9586 36.9544 29.4164 37.7557 29.5724 38.5873L30.3449 42.7451C30.4786 43.4708 31.1026 43.9924 31.8305 43.9924H40.358C42.6088 43.9924 44.4287 42.1403 44.4287 39.8497V24.7682C44.4287 23.8082 43.567 23.0824 42.6385 23.2563L28.7107 25.9475C27.9084 26.0987 27.3885 26.8849 27.537 27.7014H27.5519Z" fill="#5245E5"/>
</g>
<defs>
<clipPath id="clip0_1492_715">
<rect width="175" height="32" fill="white" transform="translate(13 12)"/>
</clipPath>
</defs>
</svg>
