<svg width="197" height="82" viewBox="0 0 197 82" fill="none" xmlns="http://www.w3.org/2000/svg">
<rect width="197" height="82" rx="5" fill="#030D19"/>
<g clip-path="url(#clip0_1492_729)">
<path fill-rule="evenodd" clip-rule="evenodd" d="M48.6658 70C42.8599 70 37.0539 70 31.2479 70C31.2083 69.8823 31.1617 69.7669 31.108 69.6538C31.1047 69.2469 31.1047 68.8366 31.108 68.4231C31.0614 68.3205 31.0148 68.2179 30.9682 68.1154C31.0811 67.8621 31.0578 67.6313 30.8982 67.4231C30.9966 67.0411 30.95 66.6309 30.7583 66.1923C30.7816 66.1667 30.805 66.141 30.8283 66.1154C30.7683 66.0624 30.7217 65.9983 30.6883 65.9231C30.6593 65.6126 30.6593 65.292 30.6883 64.9615C30.6196 64.4962 30.4797 64.0346 30.2687 63.5769C30.2919 63.5513 30.3153 63.5256 30.3386 63.5C30.3006 63.2329 30.2306 62.9765 30.1287 62.7308C30.152 62.6538 30.1754 62.5769 30.1987 62.5C30.0784 62.0152 29.9619 61.5281 29.8489 61.0385C29.9049 60.9009 29.9282 60.7727 29.9189 60.6539C29.8079 59.8523 29.6214 59.0575 29.3593 58.2692C29.3593 58.1154 29.3593 57.9615 29.3593 57.8077C29.2207 57.7611 29.1973 57.6843 29.2893 57.5769C29.2341 57.4025 29.1874 57.223 29.1494 57.0384C29.1498 56.7577 29.1498 56.4757 29.1494 56.1923C29.051 55.7828 28.9345 55.3726 28.7996 54.9615C28.823 54.936 28.8463 54.9102 28.8696 54.8846C28.8036 54.5653 28.7336 54.2448 28.6598 53.9231C28.6899 53.8621 28.7133 53.7979 28.7297 53.7307C28.5375 52.8787 28.3276 52.0326 28.1001 51.1923C28.0955 50.9513 28.0955 50.7077 28.1001 50.4615C27.8576 49.768 27.7177 49.0629 27.6804 48.3462C27.5534 47.9495 27.4252 47.552 27.2957 47.1538C27.1604 46.8123 26.9738 46.5046 26.7361 46.2308C26.6929 46.1578 26.7046 46.0937 26.7711 46.0385C26.6186 46.0045 26.572 45.9275 26.6311 45.8077C25.9524 44.4338 25.3928 43.0363 24.9524 41.6154C24.8549 41.5304 24.7733 41.4278 24.7075 41.3077C24.6054 41.4555 24.4887 41.5068 24.3577 41.4616C22.9239 42.3366 21.6065 43.4136 20.4055 44.6923C20.0947 45.0862 19.8382 45.5221 19.636 46C19.2479 46.5934 18.7816 47.0935 18.237 47.5C17.5394 47.9342 16.8262 48.0143 16.0837 47.8461C15.741 47.8548 15.4227 47.8035 15.0892 47.8461C14.7145 47.6961 14.3414 47.555 13.9699 47.4231C13.5159 46.9103 13.0729 46.436 12.6409 46C12.5453 45.6957 12.417 45.4136 12.2561 45.1539C11.7555 43.4567 11.9887 41.8926 12.9556 40.4615C13.2801 40.1603 13.6299 39.8269 14.0049 39.4615C14.0282 39.4872 14.0515 39.5128 14.0749 39.5385C14.1098 39.3974 14.1915 39.3077 14.3197 39.2693C14.7366 39.1391 15.1563 39.0237 15.5788 38.9231C15.6198 38.9392 15.6548 38.9649 15.6837 39C16.3962 38.958 17.0957 38.8298 17.7823 38.6154C17.8056 38.641 17.8526 38.6283 17.8759 38.6538C18.0625 38.5513 18.2253 38.4871 18.4119 38.3846C18.5185 38.3547 18.6351 38.3547 18.7616 38.3846C19.4896 38.0237 20.2241 37.6776 20.9651 37.3462C21.5665 36.9037 22.1961 36.5191 22.8538 36.1923C23.0649 36.0419 23.263 35.8752 23.4484 35.6923C23.5566 35.4841 23.6382 35.2662 23.6932 35.0385C23.6163 34.6356 23.6163 34.2509 23.6932 33.8846C23.6319 33.7626 23.562 33.6472 23.4833 33.5385C23.3743 33.5826 23.2694 33.6338 23.1685 33.6923C22.9658 33.714 22.756 33.714 22.539 33.6923C22.3343 33.8285 22.1244 33.8798 21.9094 33.8461C21.2645 34.1705 20.7748 34.6834 20.4405 35.3846C19.5448 36.4662 18.4256 36.9791 17.0828 36.9231C16.7797 36.8718 16.4765 36.8205 16.1734 36.7692C16.1501 36.7948 16.1268 36.8205 16.1035 36.8462C15.8033 36.7027 15.4885 36.613 15.1591 36.5769C14.8145 36.4712 14.5231 36.279 14.2847 36C14.1543 35.5057 14.2942 35.1468 14.7044 34.9231C15.0859 34.7453 15.4707 34.5787 15.8586 34.423C16.2039 34.1614 16.577 33.9434 16.9779 33.7693C17.1694 33.5976 17.286 33.3797 17.3276 33.1154C17.2489 32.7917 17.1673 32.4455 17.0828 32.0769C16.8552 31.6725 16.5754 31.3135 16.2434 31C15.895 31.0379 15.5336 31.1021 15.1591 31.1923C14.7844 31.4411 14.388 31.6462 13.9699 31.8077C13.5794 31.8183 13.218 31.8312 12.8857 31.8462C12.6535 31.6708 12.5252 31.4272 12.501 31.1154C12.5164 30.9061 12.5747 30.6882 12.6758 30.4615C13.2087 29.5154 13.8499 28.6565 14.5995 27.8847C14.8948 27.6325 15.2212 27.4401 15.5788 27.3077C15.6255 27.3333 15.6721 27.359 15.7187 27.3846C15.957 27.2835 16.2018 27.2065 16.4532 27.1538C16.6916 27.2364 16.9248 27.2364 17.1527 27.1538C17.306 27.223 17.4576 27.2999 17.6074 27.3846C17.8679 27.3408 18.0895 27.4433 18.272 27.6923C18.2952 27.6667 18.3186 27.641 18.3419 27.6154C18.7514 27.9126 19.1594 28.2074 19.566 28.5C19.9382 28.52 20.2763 28.6354 20.5804 28.8462C20.8834 28.8462 21.2332 28.8462 21.6296 28.8462C22.2125 28.7179 22.7955 28.5897 23.3784 28.4616C23.6558 28.5624 23.9357 28.5624 24.2178 28.4616C24.3111 28.4102 24.4044 28.359 24.4977 28.3077C24.5135 28.1081 24.5484 27.9158 24.6026 27.7308C24.5294 27.4565 24.576 27.2 24.7425 26.9616C24.7105 26.9297 24.6871 26.8912 24.6725 26.8461C24.831 26.3897 24.9826 25.9537 25.1272 25.5385C25.527 25.0508 25.9001 24.5892 26.2464 24.1538C26.5721 23.8333 26.9569 23.6538 27.4006 23.6154C27.8725 23.7121 28.3272 23.7121 28.7647 23.6154C29.2578 23.0469 29.8407 22.6367 30.5135 22.3846C30.5368 22.4102 30.5622 22.3643 30.5834 22.4615C30.6857 22.2917 30.8139 22.2404 30.9682 22.3077C31.1227 22.2611 31.2743 22.2097 31.4229 22.1539C31.8658 22.2052 32.3089 22.2564 32.7519 22.3077C33.068 21.8394 33.4644 21.4804 33.9411 21.2308C33.9644 21.2564 33.9877 21.2821 34.011 21.3077C34.205 21.1887 34.4149 21.1118 34.6406 21.0769C34.9073 21.1356 35.1637 21.1356 35.4101 21.0769C35.6199 21.1282 35.8297 21.1795 36.0397 21.2308C36.2228 21.1362 36.3977 21.1618 36.5643 21.3077C36.8537 20.8995 37.1568 20.5021 37.4736 20.1154C37.7101 20.0248 37.9317 19.9095 38.1381 19.7692C38.7407 19.7737 39.3469 19.7737 39.9569 19.7692C40.1336 19.8126 40.3084 19.8639 40.4815 19.9231C40.705 19.7417 40.9381 19.575 41.181 19.4231C41.321 19.3846 41.4609 19.3462 41.6007 19.3077C41.9928 19.2717 42.3891 19.3101 42.7899 19.4231C42.8948 19.5385 42.9998 19.6538 43.1047 19.7692C43.5173 20.5402 43.8904 21.335 44.224 22.1539C44.429 22.4011 44.6738 22.5806 44.9584 22.6923C45.4621 22.4711 45.9051 22.2019 46.2875 21.8846C46.4907 21.8049 46.689 21.7151 46.8821 21.6154C46.9054 21.641 46.9288 21.6667 46.952 21.6923C46.9782 21.6218 47.0132 21.5577 47.057 21.5C49.1189 20.4634 50.6228 18.8095 51.5688 16.5385C51.7345 15.7765 52.0727 15.1227 52.5831 14.5769C53.5395 13.8153 54.6005 13.2896 55.766 13C56.413 13.0214 57.0659 13.0214 57.7246 13C57.8706 13.0622 58.0105 13.1391 58.1443 13.2308C58.4392 14.0882 58.1943 14.7036 57.4098 15.0769C56.919 15.6808 56.3944 16.2449 55.8359 16.7692C55.6847 17.2202 55.708 17.6561 55.9058 18.0769C56.2419 18.498 56.58 18.9211 56.9202 19.3462C57.1895 19.513 57.4577 19.6797 57.7246 19.8462C58.0626 19.6282 58.4008 19.4103 58.7389 19.1923C58.9901 18.9676 59.1883 18.6984 59.3335 18.3846C59.5717 18.132 59.8165 17.8885 60.0679 17.6538C60.1612 17.6026 60.2545 17.5513 60.3478 17.5C60.7233 17.4698 61.0847 17.457 61.432 17.4615C61.502 17.5385 61.5719 17.6154 61.6419 17.6923C61.6855 18.0887 61.7205 18.4605 61.7468 18.8077C61.5147 19.8812 61.1999 20.9196 60.8024 21.9231C60.36 22.474 59.9286 23.0381 59.5083 23.6154C59.1723 23.7965 58.8226 23.9376 58.459 24.0385C57.9204 24.0761 57.4192 24.1145 56.9551 24.1538C57.087 24.5235 57.2152 24.9081 57.3398 25.3077C57.5789 28.1057 56.448 29.6185 53.9472 29.8462C53.6892 29.7858 53.4327 29.7088 53.1777 29.6154C52.8916 29.684 52.635 29.6071 52.4083 29.3846C52.2944 29.4306 52.1778 29.4048 52.0585 29.3077C52.0352 29.3333 52.0119 29.359 51.9885 29.3846C51.3519 29.1361 50.7224 29.1361 50.0999 29.3846C49.8819 29.389 49.6604 29.389 49.4353 29.3846C48.8059 29.5888 48.1762 29.7683 47.5466 29.9231C47.4967 30.1174 47.4501 30.3098 47.4067 30.5C47.4453 30.6075 47.4686 30.7101 47.4767 30.8077C47.43 31.2436 47.3834 31.6795 47.3368 32.1154C47.3299 32.8763 47.3532 33.6456 47.4067 34.423C47.3111 34.9436 47.1596 35.4436 46.952 35.923C46.4222 36.6272 45.9441 37.3323 45.518 38.0385C44.7156 39.229 43.9112 40.4214 43.1047 41.6154C43.0444 41.7374 42.9977 41.8657 42.9648 42C42.4977 42.5394 42.0547 43.1036 41.6357 43.6923C41.5843 43.8747 41.5261 44.0543 41.4609 44.2308C41.5134 44.7469 41.5134 45.2469 41.4609 45.7308C41.8758 47.2617 42.2372 48.7873 42.5451 50.3077C42.8732 51.6178 43.2579 52.9256 43.6993 54.2308C43.6847 54.2758 43.6613 54.3143 43.6294 54.3462C43.7163 54.4349 43.7863 54.5375 43.8392 54.6538C43.8664 54.7711 43.8664 54.8994 43.8392 55.0385C44.2483 55.9242 44.5048 56.8216 44.6086 57.7307C44.7848 58.1473 44.948 58.5703 45.0983 59C45.0837 59.0451 45.0604 59.0835 45.0284 59.1154C45.2454 59.5561 45.3387 60.0177 45.3082 60.5C45.4848 60.8522 45.6481 61.2112 45.7978 61.5769C45.7659 61.6088 45.7425 61.6472 45.7279 61.6923C45.8557 61.9193 45.9024 62.15 45.8678 62.3846C46.0381 62.9141 46.2246 63.4397 46.4274 63.9615C46.3909 64.0047 46.3676 64.056 46.3574 64.1154C46.5125 64.2467 46.5592 64.4006 46.4974 64.5769C46.5805 64.7227 46.6505 64.8765 46.7072 65.0385C46.6402 65.1267 46.6635 65.2036 46.7772 65.2692C46.7452 65.3011 46.7218 65.3395 46.7072 65.3846C46.896 65.6077 47.0593 65.8513 47.1969 66.1154C47.1736 66.141 47.1502 66.1667 47.1269 66.1923C47.3363 66.4313 47.4296 66.7005 47.4067 67C47.8259 68.0429 48.2456 69.0429 48.6658 70ZM53.8422 24.7692C54.1807 24.7308 54.4955 24.6154 54.7753 24.8461C54.7753 24.8461 54.9852 24.9231 55.0551 25C55.3 25.2307 55.4216 25.3846 55.4861 25.6923C55.6189 26.3255 55.4907 26.8768 55.1014 27.3462C54.8103 27.5769 54.4605 27.6539 54.0871 27.6923C53.831 27.6923 53.5512 27.6539 53.2826 27.5385C53.0265 27.2308 52.7817 26.8461 52.6531 26.4231C52.6531 26.0384 52.7914 25.6322 53.0728 25.3077C53.3063 25.0385 53.5162 24.8461 53.8422 24.7692ZM15.4389 41.3846C15.8575 41.3947 16.2656 41.3947 16.6631 41.3846C16.8689 41.3794 17.1974 41.5 17.3276 41.6538C17.5876 42.0571 17.7974 42.424 18.0971 42.7899C18.0371 42.9107 18.0604 43.0567 18.0271 43.1923C18.0256 43.3928 18.0489 43.5979 18.0971 43.8077C17.9599 44.1933 17.7966 44.5651 17.6074 44.9231C17.423 45.0325 17.2598 45.1737 17.1178 45.3461C16.33 45.5588 15.6072 45.4563 14.9493 45.0385C14.7966 44.7601 14.6217 44.4651 14.4246 44.1538C14.2259 43.3478 14.3542 42.5914 14.8094 41.8846C15.0239 41.7163 15.2338 41.5496 15.4389 41.3846Z" fill="white"/>
<path d="M96.7922 59.0072C95.4557 59.0072 94.1809 58.8307 92.9684 58.4779C91.7804 58.0978 90.7164 57.5278 89.7757 56.7679C88.8349 56.0079 88.0806 55.0715 87.5111 53.9586C86.9668 52.8457 86.6817 51.5293 86.6572 50.0093C86.6572 49.765 86.7315 49.5614 86.88 49.3986C87.0285 49.2086 87.2141 49.1136 87.4368 49.1136H90.9637C91.2852 49.1136 91.5205 49.2086 91.669 49.3986C91.842 49.5886 91.9786 49.8464 92.0774 50.1722C92.2014 51.1493 92.4858 51.95 92.9313 52.5743C93.3768 53.1714 93.9336 53.6193 94.6019 53.9179C95.2946 54.1893 96.0623 54.325 96.9036 54.325C98.4628 54.325 99.6508 53.7686 100.468 52.6557C101.309 51.5428 101.73 49.9957 101.73 48.0143V34.9043H89.1446C88.8721 34.9043 88.6493 34.8093 88.4763 34.6193C88.3278 34.4293 88.2536 34.1986 88.2536 33.9272V31.0772C88.2536 30.8058 88.3278 30.575 88.4763 30.385C88.6493 30.195 88.8721 30.1 89.1446 30.1H106.11C106.383 30.1 106.606 30.195 106.779 30.385C106.952 30.575 107.039 30.8193 107.039 31.1179V48.1772C107.039 50.43 106.606 52.3707 105.739 53.9993C104.898 55.6279 103.71 56.8764 102.175 57.745C100.666 58.5864 98.8712 59.0072 96.7922 59.0072ZM122.606 59.0072C120.404 59.0072 118.511 58.6136 116.926 57.8264C115.343 57.0122 114.105 55.7771 113.214 54.1214C112.323 52.4386 111.84 50.3486 111.766 47.8514C111.741 46.6843 111.729 45.5307 111.729 44.3907C111.729 43.2507 111.741 42.0836 111.766 40.8893C111.84 38.4193 112.335 36.3564 113.251 34.7007C114.167 33.045 115.417 31.7964 117.001 30.955C118.61 30.1136 120.478 29.6929 122.606 29.6929C124.735 29.6929 126.604 30.1136 128.212 30.955C129.821 31.7964 131.083 33.045 131.999 34.7007C132.915 36.3564 133.41 38.4193 133.484 40.8893C133.534 42.0836 133.558 43.2507 133.558 44.3907C133.558 45.5307 133.534 46.6843 133.484 47.8514C133.41 50.3486 132.927 52.4386 132.036 54.1214C131.145 55.7771 129.895 57.0122 128.286 57.8264C126.703 58.6136 124.809 59.0072 122.606 59.0072ZM122.606 54.325C124.215 54.325 125.527 53.8093 126.542 52.7779C127.557 51.7193 128.101 50.0093 128.175 47.6479C128.225 46.4536 128.249 45.3543 128.249 44.35C128.249 43.3186 128.225 42.2193 128.175 41.0522C128.126 39.4779 127.854 38.2022 127.358 37.225C126.888 36.2208 126.245 35.5014 125.428 35.0672C124.611 34.6057 123.671 34.375 122.606 34.375C121.567 34.375 120.639 34.6057 119.822 35.0672C119.005 35.5014 118.35 36.2208 117.854 37.225C117.384 38.2022 117.125 39.4779 117.075 41.0522C117.05 42.2193 117.038 43.3186 117.038 44.35C117.038 45.3543 117.05 46.4536 117.075 47.6479C117.149 50.0093 117.694 51.7193 118.708 52.7779C119.723 53.8093 121.023 54.325 122.606 54.325ZM139.324 58.6C139.076 58.6 138.866 58.505 138.693 58.315C138.519 58.125 138.433 57.8943 138.433 57.6229V31.1179C138.433 30.8193 138.519 30.575 138.693 30.385C138.866 30.195 139.076 30.1 139.324 30.1H150.09C152.095 30.1 153.729 30.4393 154.991 31.1179C156.253 31.7693 157.181 32.6786 157.775 33.8457C158.394 35.0128 158.703 36.37 158.703 37.9172C158.703 38.9486 158.529 39.8578 158.183 40.645C157.861 41.405 157.453 42.0293 156.958 42.5179C156.488 43.0064 156.018 43.3865 155.548 43.6579C156.513 44.1464 157.367 44.9607 158.109 46.1007C158.852 47.2407 159.223 48.5979 159.223 50.1722C159.223 51.8007 158.889 53.2528 158.221 54.5286C157.552 55.8043 156.562 56.8086 155.251 57.5414C153.939 58.2472 152.318 58.6 150.387 58.6H139.324ZM143.594 54.2843H149.793C151.13 54.2843 152.144 53.8908 152.838 53.1036C153.53 52.2893 153.877 51.3122 153.877 50.1722C153.877 48.9778 153.518 47.9872 152.8 47.2C152.107 46.4128 151.105 46.0193 149.793 46.0193H143.594V54.2843ZM143.594 41.785H149.422C150.733 41.785 151.711 41.4457 152.355 40.7672C153.023 40.0614 153.357 39.1522 153.357 38.0393C153.357 36.8993 153.023 36.0172 152.355 35.3929C151.711 34.7414 150.733 34.4157 149.422 34.4157H143.594V41.785ZM170.808 58.6C170.561 58.6 170.35 58.505 170.177 58.315C170.004 58.125 169.917 57.8943 169.917 57.6229V48.4214L161.156 31.4029C161.131 31.3486 161.106 31.2807 161.081 31.1993C161.057 31.1179 161.044 31.0364 161.044 30.955C161.044 30.7107 161.119 30.5072 161.267 30.3443C161.415 30.1814 161.588 30.1 161.787 30.1H165.091C165.388 30.1 165.623 30.1814 165.796 30.3443C165.994 30.5072 166.13 30.6836 166.205 30.8736L172.516 42.7214L178.79 30.8736C178.889 30.6836 179.025 30.5072 179.198 30.3443C179.396 30.1814 179.644 30.1 179.941 30.1H183.208C183.43 30.1 183.616 30.1814 183.764 30.3443C183.913 30.5072 183.987 30.7107 183.987 30.955C183.987 31.0364 183.975 31.1179 183.95 31.1993C183.95 31.2807 183.926 31.3486 183.876 31.4029L175.114 48.4214V57.6229C175.114 57.8943 175.028 58.125 174.855 58.315C174.682 58.505 174.459 58.6 174.186 58.6H170.808Z" fill="white"/>
<path d="M73.9979 13.8144C73.9979 13.5895 73.8316 13.4072 73.6266 13.4072C73.4216 13.4072 73.2554 13.5895 73.2554 13.8144V69.1858C73.2554 69.4107 73.4216 69.5929 73.6266 69.5929C73.8316 69.5929 73.9979 69.4107 73.9979 69.1858V13.8144Z" stroke="white"/>
</g>
<defs>
<clipPath id="clip0_1492_729">
<rect width="173" height="57" fill="white" transform="translate(12 13)"/>
</clipPath>
</defs>
</svg>
