<svg width="118" height="653" viewBox="0 0 118 653" fill="none" xmlns="http://www.w3.org/2000/svg">
<path fill-rule="evenodd" clip-rule="evenodd" d="M41.675 0C45.8749 0 50.0752 0 54.275 0C54.4439 28.3876 54.4439 56.7374 54.275 85.05C49.3207 92.409 45.1208 92.409 41.675 85.05C41.675 56.6999 41.675 28.35 41.675 0Z" fill="white"/>
<path fill-rule="evenodd" clip-rule="evenodd" d="M41.675 85.05C45.1208 92.409 49.3207 92.409 54.275 85.05C57.4956 126.909 57.4956 168.909 54.275 211.05C49.3207 218.409 45.1208 218.409 41.675 211.05C41.675 194.25 41.675 177.45 41.675 160.65C45.2881 147.589 45.8129 133.939 43.25 119.7C42.0448 121.451 40.4698 122.501 38.525 122.85C41.4558 109.678 42.506 97.0783 41.675 85.05Z" fill="white"/>
<path fill-rule="evenodd" clip-rule="evenodd" d="M41.675 160.65C42.5044 147.734 41.4542 135.134 38.525 122.85C40.4698 122.501 42.0448 121.451 43.25 119.7C45.8129 133.939 45.2881 147.589 41.675 160.65Z" fill="white"/>
<path fill-rule="evenodd" clip-rule="evenodd" d="M41.675 211.05C45.1208 218.409 49.3207 218.409 54.275 211.05C55.7089 243.42 55.7089 275.97 54.275 308.7C51.6936 299.863 50.1186 290.413 49.55 280.35C48.3448 282.101 46.7698 283.151 44.825 283.5C45.3463 270.857 44.8212 258.257 43.25 245.7C42.0448 247.451 40.4698 248.501 38.525 248.85C41.4558 235.678 42.506 223.078 41.675 211.05Z" fill="white"/>
<path fill-rule="evenodd" clip-rule="evenodd" d="M44.825 283.5C44.825 285.6 43.7751 286.65 41.675 286.65C42.5044 273.734 41.4542 261.134 38.525 248.85C40.4698 248.501 42.0448 247.451 43.25 245.7C44.8212 258.257 45.3463 270.857 44.825 283.5Z" fill="white"/>
<path fill-rule="evenodd" clip-rule="evenodd" d="M54.275 308.7C58.4749 318.15 58.4749 327.6 54.275 337.05C51.6835 348.002 50.1085 359.554 49.55 371.7C48.3448 373.451 46.7698 374.5 44.825 374.85C42.3784 345.517 41.3285 316.116 41.675 286.65C43.7751 286.65 44.825 285.6 44.825 283.5C46.7698 283.151 48.3448 282.101 49.55 280.35C50.1185 290.413 51.6935 299.863 54.275 308.7Z" fill="white"/>
<path fill-rule="evenodd" clip-rule="evenodd" d="M54.275 337.05C52.5627 350.195 54.6624 362.269 60.575 373.275C56.6306 379.704 54.5308 387.056 54.275 395.325C56.8193 435.607 56.8193 476.034 54.275 516.6C53.2251 518.701 52.1749 520.799 51.125 522.9C49.0249 522.9 47.975 521.851 47.975 519.75C47.3245 497.747 47.3245 476.22 47.975 455.175C48.3026 448.418 46.2025 442.641 41.675 437.85C41.1102 416.301 42.1604 395.3 44.825 374.85C46.7698 374.5 48.3448 373.451 49.55 371.7C50.1085 359.554 51.6835 348.003 54.275 337.05Z" fill="white"/>
<path fill-rule="evenodd" clip-rule="evenodd" d="M54.275 516.6C56.3751 516.6 58.4749 516.6 60.575 516.6C60.575 518.701 60.575 520.799 60.575 522.9C57.0816 523.079 53.9316 524.128 51.125 526.05C51.125 525.001 51.125 523.949 51.125 522.9C52.1749 520.799 53.2251 518.701 54.275 516.6Z" fill="#701730"/>
<path fill-rule="evenodd" clip-rule="evenodd" d="M60.575 516.6C69.04 516.083 77.44 516.609 85.775 518.175C98.979 529.48 109.479 542.606 117.275 557.55C114.151 557.008 112.051 558.06 110.975 560.7C107.881 562.719 104.731 564.817 101.525 567C98.6369 565.025 95.487 563.973 92.075 563.85C92.249 547.224 83.849 538.823 66.875 538.65C66.372 533.443 64.2721 529.244 60.575 526.05C60.575 525.001 60.575 523.949 60.575 522.9C60.575 520.799 60.575 518.701 60.575 516.6Z" fill="#0B4780"/>
<path fill-rule="evenodd" clip-rule="evenodd" d="M47.975 519.75C47.975 521.851 49.0249 522.9 51.125 522.9C51.125 523.949 51.125 525.001 51.125 526.05C51.5377 528.378 51.0126 530.479 49.55 532.35C48.6731 529.465 47.0981 527.367 44.825 526.05C44.2845 522.925 45.3347 520.827 47.975 519.75Z" fill="#EE728B"/>
<path fill-rule="evenodd" clip-rule="evenodd" d="M38.525 529.2C39.1288 541.022 35.9788 551.524 29.075 560.7C24.6451 562.19 22.545 565.34 22.775 570.15C19.625 571.199 17.5249 573.3 16.475 576.45C8.38478 573.067 3.13498 566.767 0.724976 557.55C11.1754 545.523 22.2004 533.972 33.8 522.9C36.0592 524.614 37.6342 526.715 38.525 529.2Z" fill="#1B467D"/>
<path fill-rule="evenodd" clip-rule="evenodd" d="M60.5749 522.9C60.5749 523.949 60.5749 525.001 60.5749 526.05C59.5238 535.472 62.6738 542.821 70.025 548.1C72.456 551.861 75.606 555.011 79.475 557.55C80.525 561.749 81.575 565.951 82.625 570.15C80.525 570.15 78.425 570.15 76.325 570.15C72.748 564.754 67.499 562.653 60.5749 563.85C57.5087 557.717 54.3587 551.417 51.1249 544.95C48.6223 551.234 46.5222 557.534 44.8249 563.85C40.625 565.951 36.4248 568.049 32.2249 570.15C29.3773 567.917 28.3274 564.767 29.0749 560.7C35.9788 551.524 39.1288 541.022 38.5249 529.2C40.625 528.151 42.7248 527.099 44.8249 526.05C47.098 527.367 48.673 529.465 49.5499 532.35C51.0125 530.479 51.5376 528.378 51.1249 526.05C53.9316 524.128 57.0816 523.08 60.5749 522.9Z" fill="#F5062F"/>
<path fill-rule="evenodd" clip-rule="evenodd" d="M60.5749 526.05C64.2721 529.244 66.372 533.443 66.875 538.65C68.796 541.457 69.846 544.607 70.025 548.1C62.6738 542.821 59.5238 535.472 60.5749 526.05Z" fill="#8C0234"/>
<path fill-rule="evenodd" clip-rule="evenodd" d="M66.875 538.65C83.849 538.823 92.25 547.224 92.075 563.85C87.155 563.116 82.955 561.015 79.475 557.55C75.606 555.011 72.456 551.861 70.025 548.1C69.846 544.607 68.796 541.457 66.875 538.65Z" fill="#13174F"/>
<path fill-rule="evenodd" clip-rule="evenodd" d="M60.575 563.85C56.9455 560.306 53.7955 560.306 51.125 563.85C49.0248 563.85 46.9251 563.85 44.825 563.85C46.5222 557.534 48.6223 551.234 51.125 544.95C54.3587 551.417 57.5087 557.717 60.575 563.85Z" fill="#9E022E"/>
<path fill-rule="evenodd" clip-rule="evenodd" d="M60.575 563.85C67.499 562.653 72.748 564.754 76.325 570.15C70.547 567.019 65.2965 567.019 60.575 570.15C57.425 570.15 54.275 570.15 51.125 570.15C51.125 568.049 51.125 565.951 51.125 563.85C53.7956 560.306 56.9456 560.306 60.575 563.85Z" fill="#87184A"/>
<path fill-rule="evenodd" clip-rule="evenodd" d="M79.475 557.55C82.955 561.015 87.155 563.116 92.075 563.85C95.487 563.973 98.637 565.025 101.525 567C104.731 564.817 107.881 562.719 110.975 560.7C110.975 563.85 110.975 567 110.975 570.15C105.622 569.646 100.372 570.169 95.225 571.725C96.976 572.932 98.026 574.507 98.375 576.45C93.616 573.294 88.366 571.193 82.625 570.15C81.575 565.951 80.525 561.749 79.475 557.55Z" fill="#A8133C"/>
<path fill-rule="evenodd" clip-rule="evenodd" d="M29.075 560.7C28.3275 564.767 29.3774 567.917 32.225 570.15C28.3193 577.978 25.1693 577.978 22.775 570.15C22.545 565.34 24.6451 562.19 29.075 560.7Z" fill="#A51A4F"/>
<path fill-rule="evenodd" clip-rule="evenodd" d="M51.125 570.15C54.275 570.15 57.425 570.15 60.575 570.15C60.575 574.349 60.575 578.551 60.575 582.75C57.4515 582.208 55.3514 583.26 54.275 585.9C51.2791 581.43 50.2289 576.182 51.125 570.15Z" fill="#C70224"/>
<path fill-rule="evenodd" clip-rule="evenodd" d="M76.325 570.15C80.16 572.232 84.36 574.333 88.925 576.45C93.054 584.75 98.304 592.102 104.675 598.5C106.791 593.936 108.892 589.737 110.975 585.9C111.139 593.469 110.089 600.818 107.825 607.95C106.775 607.95 105.725 607.95 104.675 607.95C103.185 603.521 100.035 601.42 95.225 601.65C94.175 601.65 93.125 601.65 92.075 601.65C88.804 595.29 84.604 594.238 79.475 598.5C75.045 599.99 72.945 603.14 73.175 607.95C73.175 608.999 73.175 610.051 73.175 611.1C71.075 612.149 68.975 613.201 66.875 614.25C65.9227 605.2 63.8226 596.802 60.575 589.05C60.575 586.949 60.575 584.851 60.575 582.75C60.575 578.551 60.575 574.349 60.575 570.15C65.2965 567.019 70.547 567.019 76.325 570.15Z" fill="#16447D"/>
<path fill-rule="evenodd" clip-rule="evenodd" d="M51.125 570.15C50.2289 576.182 51.2791 581.43 54.275 585.9C54.275 586.949 54.275 588.001 54.275 589.05C52.1749 589.05 50.0751 589.05 47.975 589.05C47.0467 582.01 48.0966 575.71 51.125 570.15Z" fill="#880A30"/>
<path fill-rule="evenodd" clip-rule="evenodd" d="M76.325 570.15C78.425 570.15 80.525 570.15 82.625 570.15C88.366 571.193 93.616 573.294 98.375 576.45C100.854 581.503 105.054 583.604 110.975 582.75C110.975 583.799 110.975 584.851 110.975 585.9C108.892 589.737 106.791 593.936 104.675 598.5C98.304 592.102 93.054 584.75 88.925 576.45C84.36 574.333 80.16 572.232 76.325 570.15Z" fill="#21164F"/>
<path fill-rule="evenodd" clip-rule="evenodd" d="M117.275 557.55C117.07 566.773 114.97 575.174 110.975 582.75C105.054 583.604 100.854 581.503 98.375 576.45C98.026 574.507 96.976 572.932 95.225 571.725C100.372 570.169 105.622 569.646 110.975 570.15C110.975 567 110.975 563.85 110.975 560.7C112.051 558.06 114.151 557.008 117.275 557.55Z" fill="#D5113B"/>
<path fill-rule="evenodd" clip-rule="evenodd" d="M44.825 563.85C46.9251 563.85 49.0249 563.85 51.125 563.85C51.125 565.951 51.125 568.049 51.125 570.15C48.0966 575.71 47.0467 582.01 47.975 589.05C45.0628 602.563 42.9627 616.216 41.675 630C39.5749 630 37.4751 630 35.375 630C35.6834 623.533 33.5836 618.282 29.075 614.25C29.6155 611.125 28.5653 609.027 25.925 607.95C26.1934 603.241 24.0933 600.091 19.625 598.5C13.6356 603.244 8.3855 608.495 3.875 614.25C5.8541 606.091 9.5293 598.742 14.9 592.2C16.4545 587.053 16.9796 581.802 16.475 576.45C17.5249 573.3 19.625 571.199 22.775 570.15C25.1693 577.978 28.3193 577.978 32.225 570.15C36.4249 568.049 40.6251 565.951 44.825 563.85Z" fill="#213E75"/>
<path fill-rule="evenodd" clip-rule="evenodd" d="M79.475 598.5C84.604 594.238 88.804 595.29 92.075 601.65C87.875 600.601 83.675 599.549 79.475 598.5Z" fill="#C12257"/>
<path fill-rule="evenodd" clip-rule="evenodd" d="M47.975 589.05C50.0752 589.05 52.1749 589.05 54.275 589.05C53.7544 600.648 54.2795 612.196 55.85 623.7C57.0552 621.949 58.6302 620.9 60.575 620.55C60.575 623.7 60.575 626.85 60.575 630C54.275 630 47.975 630 41.675 630C42.9628 616.216 45.0629 602.564 47.975 589.05Z" fill="#7B5B71"/>
<path fill-rule="evenodd" clip-rule="evenodd" d="M60.575 582.75C60.575 584.851 60.575 586.949 60.575 589.05C59.8776 597.804 60.9278 606.205 63.725 614.25C64.2655 617.375 63.2153 619.473 60.575 620.55C58.6302 620.9 57.0552 621.949 55.85 623.7C54.2794 612.196 53.7543 600.648 54.275 589.05C54.275 588.001 54.275 586.949 54.275 585.9C55.3514 583.26 57.4515 582.208 60.575 582.75Z" fill="#DBC0C6"/>
<path fill-rule="evenodd" clip-rule="evenodd" d="M60.5749 589.05C63.8226 596.802 65.9227 605.2 66.875 614.25C65.8251 614.25 64.7748 614.25 63.7249 614.25C60.9277 606.205 59.8775 597.804 60.5749 589.05Z" fill="#706A7F"/>
<path fill-rule="evenodd" clip-rule="evenodd" d="M79.475 598.5C79.705 603.31 77.605 606.46 73.175 607.95C72.945 603.14 75.045 599.99 79.475 598.5Z" fill="#972960"/>
<path fill-rule="evenodd" clip-rule="evenodd" d="M79.475 598.5C83.675 599.549 87.875 600.601 92.075 601.65C93.125 601.65 94.1751 601.65 95.2251 601.65C96.7151 606.079 99.865 608.18 104.675 607.95C105.725 607.95 106.775 607.95 107.825 607.95C112.289 616.896 111.239 625.297 104.675 633.15C103.625 633.15 102.575 633.15 101.525 633.15C92.564 630.491 83.114 628.394 73.175 626.85C73.175 624.749 73.175 622.651 73.175 620.55C73.175 617.4 73.175 614.25 73.175 611.1C73.175 610.051 73.175 608.999 73.175 607.95C77.605 606.46 79.705 603.31 79.475 598.5Z" fill="#FB0429"/>
<path fill-rule="evenodd" clip-rule="evenodd" d="M95.225 601.65C100.035 601.42 103.185 603.521 104.675 607.95C99.865 608.18 96.715 606.079 95.225 601.65Z" fill="#8F2C61"/>
<path fill-rule="evenodd" clip-rule="evenodd" d="M25.9251 607.95C22.1832 604.22 18.5084 604.22 14.9001 607.95C8.52788 615.097 5.90268 623.498 7.02508 633.15C0.847583 627.417 -0.202319 621.117 3.87508 614.25C8.38548 608.495 13.6356 603.244 19.6251 598.5C24.0933 600.091 26.1934 603.241 25.9251 607.95Z" fill="#E3143C"/>
<path fill-rule="evenodd" clip-rule="evenodd" d="M29.0751 614.25C33.5836 618.282 35.6834 623.533 35.3751 630C29.9785 626.425 27.8784 621.174 29.0751 614.25Z" fill="#A92252"/>
<path fill-rule="evenodd" clip-rule="evenodd" d="M73.175 611.1C73.175 614.25 73.175 617.4 73.175 620.55C70.327 622.783 69.277 625.933 70.025 630C66.875 630 63.725 630 60.575 630C60.575 626.85 60.575 623.7 60.575 620.55C63.2153 619.473 64.2655 617.375 63.725 614.25C64.7748 614.25 65.8251 614.25 66.875 614.25C68.975 613.201 71.075 612.149 73.175 611.1Z" fill="#A33253"/>
<path fill-rule="evenodd" clip-rule="evenodd" d="M73.175 620.55C73.175 622.651 73.175 624.749 73.175 626.85C73.524 628.794 74.574 630.369 76.325 631.575C62.0857 634.139 48.4358 633.613 35.375 630C37.4751 630 39.5749 630 41.675 630C47.975 630 54.275 630 60.575 630C63.725 630 66.875 630 70.025 630C69.278 625.933 70.327 622.783 73.175 620.55Z" fill="#D82C4A"/>
<path fill-rule="evenodd" clip-rule="evenodd" d="M101.525 633.15C102.575 633.15 103.625 633.15 104.675 633.15C104.675 637.349 104.675 641.551 104.675 645.75C99.904 642.033 94.654 638.883 88.925 636.3C92.67 633.374 96.87 632.325 101.525 633.15Z" fill="#BE000D"/>
<path fill-rule="evenodd" clip-rule="evenodd" d="M25.925 607.95C28.5654 609.027 29.6156 611.125 29.075 614.25C27.8784 621.174 29.9785 626.425 35.375 630C48.4359 633.613 62.0858 634.139 76.325 631.575C74.574 630.369 73.524 628.794 73.175 626.85C83.114 628.394 92.564 630.491 101.525 633.15C96.87 632.325 92.67 633.374 88.925 636.3C94.654 638.883 99.729 639.858 104.5 643.575V645.575C104.5 645.575 95.65 652.05 92.5 652.05C58 639.05 49.5 645.75 22.775 652.05C19.2398 648.491 15.0396 646.39 10.175 645.75C10.3874 641.154 9.33753 636.955 7.02503 633.15C5.90273 623.498 8.52793 615.097 14.9 607.95C18.5084 604.22 22.1832 604.22 25.925 607.95Z" fill="#F90122"/>
</svg>
