<svg width="69" height="70" viewBox="0 0 69 70" fill="none" xmlns="http://www.w3.org/2000/svg">
<path fill-rule="evenodd" clip-rule="evenodd" d="M15.4 69.4399C12.28 69.4399 9.15999 69.4399 6.03999 69.4399C0.711655 54.2423 -0.848351 38.6424 1.35999 22.6399C4.46314 7.03432 13.8231 -0.245575 29.44 0.799942C42.5347 0.82209 54.4947 4.46188 65.32 11.7199C68.6778 17.1054 69.1978 22.8253 66.88 28.8799C50.354 43.5893 33.194 57.1093 15.4 69.4399Z" fill="#010000"/>
<path fill-rule="evenodd" clip-rule="evenodd" d="M15.4 47.6001C12.28 47.6001 9.15995 47.6001 6.03996 47.6001C1.84979 15.9071 15.37 2.90703 46.6 8.6001C52.7 11.5744 57.9 15.7343 62.2 21.0801C46.4049 30.0055 30.805 38.8454 15.4 47.6001Z" fill="#FEFFFE"/>
</svg>
