<svg width="70" height="12" viewBox="0 0 70 12" fill="none" xmlns="http://www.w3.org/2000/svg">
<path d="M69.1984 9.40814C69.1984 9.40814 70.1361 10.4984 68.2225 11.4475C66.309 12.3966 63.6435 12.0921 62.2689 10.7709C60.9726 9.52497 58.9731 8.33691 56.3835 7.30484C50.8659 5.10578 43.2215 3.81809 34.9999 3.81809C26.7784 3.81809 13.6164 7.30484 13.6164 7.30484C13.6164 7.30484 9.02739 9.52499 7.73094 10.7709C6.35642 12.0921 3.69099 12.3965 1.77724 11.4475C-0.136085 10.4984 0.801605 9.40814 0.801605 9.40814C2.85144 7.43806 5.76685 5.70515 9.35076 4.27683C16.2268 1.53636 25.3408 0 34.9999 0C44.6592 0 53.7732 1.53636 60.6489 4.27683C64.2331 5.70515 67.1486 7.43806 69.1984 9.40814Z" fill="black"/>
</svg>
