<svg width="168" height="63" viewBox="0 0 168 63" fill="none" xmlns="http://www.w3.org/2000/svg">
<path fill-rule="evenodd" clip-rule="evenodd" d="M151.367 34.7C145.293 40.3535 137.982 42.62 129.433 41.5C103.409 45.0295 77.2981 45.596 51.1 43.2C40.5564 41.482 31.1564 37.5152 22.9 31.3C22.9 30.1668 22.9 29.0332 22.9 27.9C67.9868 -10.5975 110.809 -8.33085 151.367 34.7Z" fill="#FBAB96"/>
<path opacity="0.043" fill-rule="evenodd" clip-rule="evenodd" d="M22.8999 27.8999C22.8999 29.0331 22.8999 30.1667 22.8999 31.2999C20.811 32.4331 18.7222 33.5667 16.6333 34.6999C13.4999 34.6999 10.3666 34.6999 7.23328 34.6999C11.2452 29.8335 16.4675 27.567 22.8999 27.8999Z" fill="#2E1F29"/>
<path fill-rule="evenodd" clip-rule="evenodd" d="M22.9 31.3C31.1564 37.5152 40.5564 41.482 51.1 43.2C77.2981 45.596 103.409 45.0296 129.433 41.5C126.3 43.7668 123.167 46.0333 120.033 48.3C105.451 49.7141 90.8291 50.8477 76.1667 51.7C53.6455 50.4206 31.7122 47.0206 10.3667 41.5C12.4556 39.2333 14.5445 36.9668 16.6334 34.7C18.7223 33.5668 20.8111 32.4333 22.9 31.3Z" fill="#E66E6A"/>
<path fill-rule="evenodd" clip-rule="evenodd" d="M151.367 34.7C156.098 40.8948 160.276 47.6947 163.9 55.0999C161.811 55.0999 159.722 55.0999 157.633 55.0999C150.693 45.4436 142.337 43.1768 132.567 48.2999C130.478 49.4332 128.389 50.5667 126.3 51.6999C125.229 48.8501 123.14 47.7165 120.033 48.2999C123.167 46.0332 126.3 43.7667 129.433 41.5C137.982 42.6199 145.293 40.3535 151.367 34.7Z" fill="#CA2F3E"/>
<path fill-rule="evenodd" clip-rule="evenodd" d="M10.3667 41.5C31.7122 47.0206 53.6456 50.4206 76.1667 51.7C90.8291 50.8476 105.451 49.7141 120.033 48.3C123.14 47.7166 125.229 48.8501 126.3 51.7C89.4577 61.5274 52.9023 60.3941 16.6334 48.3C12.8315 47.4595 10.7426 45.1931 10.3667 41.5Z" fill="#DD1E37"/>
<path fill-rule="evenodd" clip-rule="evenodd" d="M132.567 48.3C142.337 43.1769 150.693 45.4436 157.633 55.1C149.629 58.1192 141.274 59.2527 132.567 58.5C130.251 58.9454 128.163 58.3786 126.3 56.8C130.478 54.5332 134.656 52.2668 138.833 50C136.971 48.4214 134.882 47.8546 132.567 48.3Z" fill="#C50E27"/>
<path fill-rule="evenodd" clip-rule="evenodd" d="M10.3667 41.5C10.7426 45.1931 12.8315 47.4595 16.6333 48.3C52.9023 60.3941 89.4576 61.5274 126.3 51.7C128.389 50.5668 130.478 49.4332 132.567 48.3C134.882 47.8546 136.971 48.4214 138.833 50C134.656 52.2668 130.478 54.5332 126.3 56.8C128.162 58.3786 130.251 58.9454 132.567 58.5C132.567 59.6332 132.567 60.7668 132.567 61.9C88.6875 62.4664 44.8208 61.8997 0.966675 60.2C2.70868 58.8992 3.75312 57.1992 4.10001 55.1C6.18891 50.5668 8.27778 46.0332 10.3667 41.5Z" fill="#A20318"/>
<path fill-rule="evenodd" clip-rule="evenodd" d="M157.633 55.1001C159.722 55.1001 161.811 55.1001 163.9 55.1001C164.247 57.1993 165.291 58.8993 167.033 60.2001C155.592 61.8953 144.103 62.4621 132.567 61.9001C132.567 60.7669 132.567 59.6333 132.567 58.5001C141.274 59.2529 149.629 58.1193 157.633 55.1001Z" fill="#820210"/>
</svg>
