<svg width="70" height="28" viewBox="0 0 70 28" fill="none" xmlns="http://www.w3.org/2000/svg">
<path d="M1.9625 18.6692C0.276501 17.0235 0.243881 14.3225 1.88965 12.6365C3.53542 10.9506 6.23634 10.918 7.92231 12.5637C9.51224 14.1157 11.7803 15.4636 14.5901 16.486C20.577 18.6645 28.4293 19.1751 36.526 17.7474C44.6226 16.3198 51.8267 13.1543 56.7075 9.05958C58.9981 7.13785 60.6683 5.09552 61.6317 3.09331C62.6531 0.970166 65.2021 0.0770686 67.3255 1.09843C69.4485 2.11991 70.3415 4.66911 69.3202 6.79226C67.7969 9.95821 65.3617 12.9362 62.1914 15.5958C56.1091 20.6986 47.52 24.4726 38.0075 26.1499C28.495 27.8272 19.1331 27.2185 11.6726 24.5036C7.78367 23.0887 4.47659 21.1233 1.9625 18.6692Z" fill="black"/>
</svg>
