<svg width="69" height="70" viewBox="0 0 69 70" fill="none" xmlns="http://www.w3.org/2000/svg">
<path fill-rule="evenodd" clip-rule="evenodd" d="M53.6 69.4399C56.72 69.4399 59.84 69.4399 62.96 69.4399C68.2883 54.2423 69.8484 38.6424 67.64 22.6399C64.5369 7.03432 55.1769 -0.245575 39.56 0.799942C26.4653 0.82209 14.5053 4.46188 3.68001 11.7199C0.322209 17.1054 -0.197792 22.8253 2.12001 28.8799C18.646 43.5893 35.806 57.1093 53.6 69.4399Z" fill="#010000"/>
<path fill-rule="evenodd" clip-rule="evenodd" d="M53.6 47.6001C56.72 47.6001 59.84 47.6001 62.96 47.6001C67.1502 15.9071 53.63 2.90703 22.4 8.6001C16.3 11.5744 11.1 15.7343 6.80005 21.0801C22.5951 30.0055 38.195 38.8454 53.6 47.6001Z" fill="#FEFFFE"/>
</svg>
