<svg width="70" height="28" viewBox="0 0 70 28" fill="none" xmlns="http://www.w3.org/2000/svg">
<path d="M1.1556 6.79187C0.134158 4.66871 1.02728 2.11952 3.15044 1.09808C5.27359 0.0766794 7.82279 0.969798 8.84418 3.09295C9.80742 5.09513 11.4777 7.13746 13.7684 9.05921C18.6491 13.1539 25.8533 16.3194 33.9499 17.7471C42.0465 19.1747 49.8988 18.6641 55.8858 16.4856C58.6955 15.4632 60.9635 14.1153 62.5536 12.5634C64.2395 10.9176 66.9403 10.9502 68.5863 12.6362C70.2318 14.3222 70.1992 17.0231 68.5133 18.6688C65.9991 21.1229 62.6921 23.0884 58.8034 24.5033C51.3427 27.2181 41.9808 27.8268 32.4683 26.1495C22.9557 24.4722 14.3666 20.6982 8.28464 15.5954C5.11415 12.9358 2.67873 9.95781 1.1556 6.79187Z" fill="black"/>
</svg>
