<svg width="183" height="181" viewBox="0 0 183 181" fill="none" xmlns="http://www.w3.org/2000/svg">
<path fill-rule="evenodd" clip-rule="evenodd" d="M72.925 0.5L80.425 0L88.925 5.96046e-08L100.925 0.5L110.425 1.22492L119.425 2.5L128.425 5C134.154 7.583 133.829 6.95789 138.6 10.6749C150.363 19.2775 159.813 29.7765 166.95 42.1749C163.8 42.1749 160.65 42.1749 157.5 42.1749C129.643 12.6185 96.0436 4.21739 56.7001 16.9749C53.1649 13.4154 48.9646 11.3143 44.1001 10.6749C48.925 7 53.925 4.5 53.925 4.5L59.425 2.5L64.925 1.5L72.925 0.5Z" fill="#F90122"/>
<path fill-rule="evenodd" clip-rule="evenodd" d="M44.1001 10.6748C45.5264 13.6925 47.6265 16.3196 50.4001 18.5498C25.2933 42.3701 26.3432 43.9451 53.5501 23.2748C56.7001 27.4738 59.8501 31.6759 63.0001 35.8748C59.4399 39.4091 57.3398 43.6112 56.7001 48.4748C56.7001 50.5759 55.6502 51.6248 53.5501 51.6248C43.6547 49.0387 33.1545 47.4637 22.0501 46.8998C26.6481 44.3452 27.698 41.7181 25.2001 39.0248C21.2686 40.7258 17.5935 42.8269 14.1751 45.3248C12.9189 44.6066 12.3941 43.5545 12.6001 42.1748C19.95 28.5259 30.4502 18.0238 44.1001 10.6748Z" fill="#FD0123"/>
<path fill-rule="evenodd" clip-rule="evenodd" d="M107.1 42.1747C102.104 49.0102 97.9033 56.3623 94.5001 64.2247C91.1863 64.694 88.0363 64.1711 85.0501 62.6497C82.2907 57.6538 79.1407 52.9288 75.6001 48.4747C74.5502 49.0007 73.5 49.5236 72.4501 50.0497C77.4513 56.3087 80.0765 63.1348 80.3251 70.5247C72.9049 68.8583 65.0299 68.8583 56.7001 70.5247C49.96 70.3483 44.7099 68.2472 40.9501 64.2247C44.0134 59.0618 48.2133 54.8597 53.5501 51.6247C55.6502 51.6247 56.7001 50.5757 56.7001 48.4747C60.7768 45.9862 64.4519 42.8362 67.7251 39.0247C80.7991 38.297 93.9243 39.3491 107.1 42.1747Z" fill="#FD0022"/>
<path fill-rule="evenodd" clip-rule="evenodd" d="M44.1 10.6748C48.9646 11.3143 53.1648 13.4153 56.7 16.9748C96.0435 4.2173 129.643 12.6184 157.5 42.1748C155.227 43.4915 153.652 45.5894 152.775 48.4748C151.725 47.4259 150.675 46.3738 149.625 45.3248C146.207 47.8228 142.532 49.9238 138.6 51.6248C137.033 55.0993 135.983 58.2493 135.45 61.0748C133.302 58.7344 131.202 56.6365 129.15 54.7748C123.353 47.9425 116.003 43.7435 107.1 42.1748C93.9242 39.3493 80.7991 38.2972 67.725 39.0248C64.4519 42.8363 60.7768 45.9863 56.7 48.4748C57.3398 43.6112 59.4399 39.4091 63 35.8748C59.85 31.6759 56.7 27.4738 53.55 23.2748C26.3432 43.9451 25.2933 42.3701 50.4 18.5498C47.6265 16.3196 45.5263 13.6925 44.1 10.6748Z" fill="#E30004"/>
<path fill-rule="evenodd" clip-rule="evenodd" d="M63.0001 16.9748C79.8327 16.4519 96.633 16.978 113.4 18.5498C126.632 22.3834 137.132 29.7323 144.9 40.5998C132.433 51.0263 122.458 48.4024 114.975 32.7248C101.074 36.2906 86.8985 36.8167 72.4501 34.2998C62.4785 31.3577 59.3285 25.5838 63.0001 16.9748Z" fill="#FE0020"/>
<path fill-rule="evenodd" clip-rule="evenodd" d="M157.5 42.1748C160.65 42.1748 163.8 42.1748 166.95 42.1748C169.05 42.1748 170.1 43.2238 170.1 45.3248C172.537 56.7908 174.636 68.3419 176.4 79.9748C171.807 72.314 168.132 63.913 165.375 54.7748C163.502 59.1817 164.027 63.3806 166.95 67.3748C163.275 68.4238 159.6 69.4759 155.925 70.5248C139.052 70.172 121.727 69.6491 103.95 68.9498C113.057 64.9367 121.457 60.2117 129.15 54.7748C131.202 56.6365 133.302 58.7344 135.45 61.0748C135.983 58.2493 137.033 55.0993 138.6 51.6248C142.532 49.9238 146.207 47.8228 149.625 45.3248C150.675 46.3738 151.725 47.4259 152.775 48.4748C153.652 45.5894 155.227 43.4915 157.5 42.1748Z" fill="#FD001D"/>
<path fill-rule="evenodd" clip-rule="evenodd" d="M53.55 51.6247C48.2133 54.8597 44.0134 59.0618 40.95 64.2247C31.9231 68.8394 22.4731 71.9894 12.6 73.6747C9.45002 73.6747 6.30002 73.6747 3.15002 73.6747C4.98301 69.167 7.6079 64.9681 11.025 61.0747C13.4348 56.1418 12.9097 51.9428 9.45002 48.4747C8.90948 45.3499 9.95969 43.252 12.6 42.1747C12.394 43.5544 12.9188 44.6065 14.175 45.3247C17.5934 42.8267 21.2685 40.7257 25.2 39.0247C27.698 41.7179 26.6481 44.345 22.05 46.8997C33.1544 47.4635 43.6546 49.0385 53.55 51.6247Z" fill="#F2000F"/>
<path fill-rule="evenodd" clip-rule="evenodd" d="M94.5001 64.2249C98.6046 69.3972 102.804 74.6482 107.1 79.9749C102.592 81.175 99.9669 84.325 99.2251 89.4249C97.9065 85.7331 95.8064 82.5831 92.9251 79.9749C90.4889 94.9437 91.0137 109.645 94.5001 124.075C90.3002 137.724 90.3002 151.376 94.5001 165.025C91.9779 169.882 90.928 175.13 91.3501 180.775C90.3002 180.775 89.25 180.775 88.2001 180.775C88.2001 174.475 88.2001 168.175 88.2001 161.875C86.6368 134.838 85.5869 107.537 85.0501 79.9749C82.5896 83.8462 81.0146 88.0452 80.3251 92.5749C79.4481 89.6895 77.8731 87.5916 75.6001 86.2749C72.978 83.6635 74.0282 81.0396 78.7501 78.3999C64.1643 72.8212 49.4645 72.2983 34.6501 76.8249C29.0916 73.7977 22.7916 72.7456 15.7501 73.6749C14.7002 111.475 13.65 111.475 12.6001 73.6749C22.4731 71.9896 31.9231 68.8396 40.9501 64.2249C44.7099 68.2474 49.96 70.3485 56.7001 70.5249C65.03 68.8585 72.905 68.8585 80.3251 70.5249C80.0766 63.135 77.4514 56.3089 72.4501 50.0499C73.5 49.5238 74.5502 49.0009 75.6001 48.4749C79.1407 52.929 82.2907 57.654 85.0501 62.6499C88.0363 64.1713 91.1863 64.6942 94.5001 64.2249Z" fill="#D40002"/>
<path fill-rule="evenodd" clip-rule="evenodd" d="M163.8 98.8747C158.84 106.076 152.54 107.125 144.9 102.025C139.659 98.1092 135.984 92.8582 133.875 86.2747C132.571 87.7142 130.996 88.7663 129.15 89.4247C123.367 84.9548 117.067 81.2788 110.25 78.3997C129.026 72.6383 147.926 72.1123 166.95 76.8247C166.402 84.2618 165.352 91.6108 163.8 98.8747Z" fill="#FE001F"/>
<path fill-rule="evenodd" clip-rule="evenodd" d="M107.1 42.1748C116.003 43.7435 123.353 47.9425 129.15 54.7748C121.457 60.2117 113.057 64.9367 103.95 68.9498C121.727 69.6491 139.052 70.172 155.925 70.5248C159.6 69.4759 163.275 68.4238 166.95 67.3748C164.027 63.3806 163.502 59.1817 165.375 54.7748C168.132 63.913 171.807 72.314 176.4 79.9748C176.4 86.2748 176.4 92.5748 176.4 98.8748C173.912 95.3815 172.337 91.1825 171.675 86.2748C169.759 91.2077 167.134 95.4098 163.8 98.8748C165.352 91.6109 166.402 84.262 166.95 76.8248C147.926 72.1124 129.026 72.6385 110.25 78.3998C117.067 81.2789 123.367 84.955 129.15 89.4248C130.996 88.7665 132.571 87.7144 133.875 86.2748C135.984 92.8583 139.659 98.1094 144.9 102.025C139.639 101.234 134.914 99.1331 130.725 95.7248C128.042 99.0985 125.417 102.248 122.85 105.175C122.858 100.563 121.808 95.3122 119.7 89.4248C115.286 86.2087 111.086 83.0587 107.1 79.9748C102.804 74.6482 98.6045 69.3971 94.5 64.2248C97.9033 56.3624 102.103 49.0103 107.1 42.1748Z" fill="#F1000E"/>
<path fill-rule="evenodd" clip-rule="evenodd" d="M107.1 79.9749C111.086 83.0587 115.286 86.2087 119.7 89.4249C121.808 95.3122 122.858 100.563 122.85 105.175C122.595 114.889 122.07 124.339 121.275 133.525C118.287 128.507 114.612 124.308 110.25 120.925C104.607 120.503 99.3567 121.552 94.5 124.075C91.0136 109.645 90.4888 94.9437 92.925 79.9749C95.8063 82.5831 97.9064 85.7331 99.225 89.4249C99.9669 84.325 102.592 81.175 107.1 79.9749Z" fill="#FB001E"/>
<path fill-rule="evenodd" clip-rule="evenodd" d="M170.1 45.3247C177.012 50.7459 180.687 58.098 181.125 67.3747C182.978 83.2129 182.453 98.9629 179.55 114.625C176.554 110.155 175.504 104.907 176.4 98.8747C176.4 92.5747 176.4 86.2747 176.4 79.9747C174.636 68.3418 172.537 56.7907 170.1 45.3247Z" fill="#DB0D2D"/>
<path fill-rule="evenodd" clip-rule="evenodd" d="M176.4 98.8747C175.504 104.907 176.554 110.155 179.55 114.625C171.833 136.423 158.183 153.222 138.6 165.025C137.55 162.924 136.5 160.826 135.45 158.725C136.83 158.929 137.881 158.407 138.6 157.15C135.45 154 132.3 150.85 129.15 147.7C136.891 138.067 146.341 130.715 157.5 125.65C156.059 124.346 155.009 122.771 154.35 120.925C160.106 114.666 163.256 107.314 163.8 98.8747C167.134 95.4097 169.759 91.2076 171.675 86.2747C172.337 91.1824 173.912 95.3813 176.4 98.8747Z" fill="#FA0123"/>
<path fill-rule="evenodd" clip-rule="evenodd" d="M75.6 86.2748C71.4742 91.466 67.2743 96.7139 63 102.025C66.7715 108.618 70.9714 112.294 75.6 113.05C71.2404 125.259 64.9404 136.284 56.7 146.125C59.2988 148.916 62.4488 149.965 66.15 149.275C56.6166 150.806 48.2165 155.008 40.95 161.875C42.0803 155.981 45.2303 151.256 50.4 147.7C44.6251 141.926 38.8499 136.149 33.075 130.375C28.8751 134.574 24.6749 138.776 20.475 142.975C13.0451 135.071 12.52 127.719 18.9 120.925C23.4061 120.676 27.606 121.725 31.5 124.075C40.1796 118.685 47.5294 111.859 53.55 103.6C44.7921 99.5804 36.392 94.8554 28.35 89.4248C29.9071 84.6179 32.0072 80.4189 34.65 76.8248C49.4645 72.2982 64.1643 72.8211 78.75 78.3998C74.0282 81.0395 72.978 83.6634 75.6 86.2748Z" fill="#F50014"/>
<path fill-rule="evenodd" clip-rule="evenodd" d="M144.9 102.025C152.54 107.125 158.84 106.076 163.8 98.8749C163.256 107.314 160.106 114.666 154.35 120.925C155.009 122.771 156.059 124.346 157.5 125.65C146.34 130.715 136.89 138.067 129.15 147.7C132.3 150.85 135.45 154 138.6 157.15C137.881 158.407 136.83 158.93 135.45 158.725C131.774 154.583 127.049 152.485 121.275 152.425C111.282 154.589 102.357 158.791 94.5 165.025C95.8769 160.067 99.0269 156.391 103.95 154C110.637 151.433 116.937 148.283 122.85 144.55C116.566 137.755 112.366 129.88 110.25 120.925C114.611 124.308 118.287 128.507 121.275 133.525C122.07 124.339 122.595 114.889 122.85 105.175C125.417 102.249 128.042 99.0985 130.725 95.7249C134.914 99.1332 139.639 101.234 144.9 102.025Z" fill="#FA0019"/>
<path fill-rule="evenodd" clip-rule="evenodd" d="M3.15002 73.6748C6.30002 73.6748 9.45002 73.6748 12.6 73.6748C13.6499 111.475 14.7001 111.475 15.75 73.6748C22.7915 72.7456 29.0915 73.7977 34.65 76.8248C32.0072 80.419 29.9071 84.6179 28.35 89.4248C36.392 94.8554 44.7921 99.5804 53.55 103.6C47.5294 111.859 40.1795 118.685 31.5 124.075C27.606 121.725 23.4061 120.676 18.9 120.925C12.8451 115.935 7.59499 110.158 3.15002 103.6C5.16004 93.9262 5.16004 83.9533 3.15002 73.6748Z" fill="#FB001A"/>
<path fill-rule="evenodd" clip-rule="evenodd" d="M110.25 120.925C112.366 129.88 116.566 137.755 122.85 144.55C116.937 148.283 110.637 151.433 103.95 154C99.0269 156.391 95.8769 160.067 94.5 165.025C90.3001 151.376 90.3001 137.724 94.5 124.075C99.3567 121.552 104.607 120.503 110.25 120.925Z" fill="#FE0123"/>
<path fill-rule="evenodd" clip-rule="evenodd" d="M88.2001 161.875C81.2767 156.841 73.9265 152.642 66.1501 149.275C62.4488 149.965 59.2988 148.916 56.7001 146.125C64.9405 136.284 71.2405 125.259 75.6001 113.05C70.9715 112.294 66.7716 108.618 63.0001 102.025C67.2743 96.714 71.4742 91.4661 75.6001 86.2749C77.8731 87.5916 79.4481 89.6895 80.3251 92.5749C81.0146 88.0452 82.5896 83.8462 85.0501 79.9749C85.5868 107.537 86.6367 134.838 88.2001 161.875Z" fill="#FD0020"/>
<path fill-rule="evenodd" clip-rule="evenodd" d="M9.45008 48.4749C12.9097 51.943 13.4348 56.142 11.0251 61.0749C7.60796 64.9683 4.98306 69.1672 3.15008 73.6749C5.16009 83.9533 5.16009 93.9262 3.15008 103.6C7.59504 110.158 12.8451 115.935 18.9001 120.925C12.5201 127.719 13.0452 135.072 20.4751 142.975C24.675 138.776 28.8752 134.574 33.0751 130.375C38.85 136.149 44.6252 141.926 50.4001 147.7C45.2303 151.256 42.0803 155.981 40.9501 161.875C20.5535 152.478 7.42872 136.728 1.57508 114.625C-0.525026 96.7738 -0.525026 78.9259 1.57508 61.0749C3.49091 56.142 6.1158 51.9399 9.45008 48.4749Z" fill="#FB0225"/>
<path fill-rule="evenodd" clip-rule="evenodd" d="M66.1501 149.275C73.9265 152.642 81.2767 156.841 88.2001 161.875C88.2001 168.175 88.2001 174.475 88.2001 180.775C76.1705 180.444 64.6207 177.82 53.5501 172.9C47.8054 170.821 43.6055 167.145 40.9501 161.875C48.2165 155.008 56.6166 150.806 66.1501 149.275Z" fill="#FA0121"/>
<path fill-rule="evenodd" clip-rule="evenodd" d="M135.45 158.725C136.5 160.826 137.55 162.924 138.6 165.025C124.563 174.604 108.813 179.855 91.3501 180.775C90.928 175.13 91.9779 169.882 94.5001 165.025C102.357 158.791 111.282 154.589 121.275 152.425C127.049 152.485 131.774 154.583 135.45 158.725Z" fill="#FC0124"/>
</svg>
