<?xml version="1.0" encoding="utf-8"?><svg viewBox="0 0 830 1344" xmlns="http://www.w3.org/2000/svg" xmlns:xlink="http://www.w3.org/1999/xlink"><style>:root>svg{display:none}:root>svg:target{display:block}</style><svg viewBox="0 0 439 268" id="cloud" xmlns="http://www.w3.org/2000/svg"><path d="M370.079 134.353c32.745 3.679 58.129 29.695 58.129 61.274 0 34.09-29.593 61.738-66.105 61.738H76.897c-36.512 0-66.105-27.648-66.105-61.738 0-31.579 25.384-57.595 58.13-61.274a57.854 57.854 0 01-2.257-16.007c0-34.1 29.593-61.738 66.105-61.738a70.15 70.15 0 0122.082 3.549c6.065-28.244 32.778-49.521 64.799-49.521 31.989 0 58.679 21.228 64.788 49.43a70.088 70.088 0 0121.79-3.457c36.512 0 66.105 27.639 66.105 61.738 0 5.533-.787 10.896-2.255 16.006z" fill-opacity=".2"/><path d="M339.432 64.947a67.862 67.862 0 00-5.081-2.492l5.081 2.492z" fill-opacity=".2"/><path d="M339.422 75.029c-1.844 0-3.711-.441-5.419-1.369a56.68 56.68 0 00-4.251-2.083c-5.393-2.371-7.707-8.377-5.168-13.413 2.539-5.037 8.968-7.2 14.362-4.828a79.064 79.064 0 015.913 2.9c5.152 2.8 6.897 8.97 3.9 13.782-2.003 3.216-5.621 5.01-9.337 5.01z" fill-opacity=".2"/><path d="M362.103 267.445H76.897C34.495 267.445 0 235.228 0 195.627c0-32.671 23.547-60.758 56.36-69.21a67.119 67.119 0 01-.486-8.07c0-39.6 34.497-71.817 76.897-71.817 4.925 0 9.806.437 14.604 1.304C158.251 19.901 187.034.557 219.652.557c32.583 0 61.366 19.327 72.265 47.228a81.946 81.946 0 0114.313-1.254c5.961 0 10.792 4.512 10.792 10.08 0 5.566-4.831 10.078-10.792 10.078-6.219 0-12.351.974-18.228 2.892a11.47 11.47 0 01-8.901-.755c-2.711-1.44-4.621-3.906-5.24-6.762-5.19-23.96-27.988-41.35-54.21-41.35-26.26 0-49.062 17.422-54.217 41.425-.614 2.866-2.534 5.342-5.256 6.785-2.724 1.444-5.983 1.71-8.934.732a58.628 58.628 0 00-18.474-2.968c-30.498 0-55.312 23.174-55.312 51.658 0 4.528.634 9.035 1.888 13.396.81 2.822.27 5.835-1.484 8.256-1.754 2.421-4.545 4.013-7.652 4.362-27.72 3.116-48.625 25.155-48.625 51.268 0 28.484 24.813 51.659 55.312 51.659h285.205c30.499 0 55.312-23.174 55.312-51.659 0-26.113-20.904-48.152-48.625-51.267-3.107-.349-5.899-1.94-7.651-4.362-1.753-2.42-2.294-5.434-1.485-8.256a48.525 48.525 0 001.888-13.395c0-9.987-3.053-19.674-8.828-28.014-3.236-4.675-1.803-10.915 3.201-13.938 5.006-3.024 11.687-1.684 14.924 2.99 8.04 11.608 12.289 25.08 12.289 38.961 0 2.7-.162 5.393-.485 8.07 32.811 8.452 56.358 36.538 56.358 69.21 0 39.601-34.497 71.818-76.897 71.818z" fill-opacity=".2"/></svg><svg viewBox="0 0 830 1344" id="max" xmlns="http://www.w3.org/2000/svg"><path fill-rule="evenodd" clip-rule="evenodd" d="M269.5.5h11c1.23 1.797 1.896 3.797 2 6a71.393 71.393 0 0025.5-5 18.097 18.097 0 016.5 2.5l-1 1c4.655.5 9.321.666 14 .5-.49 2.448.343 4.115 2.5 5 5.264-2.78 10.431-2.613 15.5.5 3.986.499 7.986.665 12 .5v-3a352.99 352.99 0 0150 6 562.453 562.453 0 0119-3c4.318 1.302 8.651 2.635 13 4l6-1.5a3.647 3.647 0 01-1-1.5l3-1a221.024 221.024 0 0025 4.5c1.375 2.477 3.209 3.31 5.5 2.5 2.944.757 5.944 1.423 9 2 2.645-1.416 5.479-2.083 8.5-2a345.126 345.126 0 0042 4.5c3.97 2.164 8.304 2.664 13 1.5-.219-1.175.114-2.175 1-3a241.035 241.035 0 0111.5 5 53.707 53.707 0 018.5-4 104.839 104.839 0 0015.5 6c2.134-.585 3.634-1.918 4.5-4a13.017 13.017 0 014.5 4c2.382-1.366 4.548-1.033 6.5 1l2-2a42.494 42.494 0 0011 5.5 11.532 11.532 0 013.5 4.5 4.934 4.934 0 00.5-3h4c-.434 2.666.566 3.833 3 3.5-4.839-6.497-3.339-8.663 4.5-6.5 1.707-4.52 4.374-5.187 8-2a4.458 4.458 0 011.5-2c2.618 3.388 6.118 5.388 10.5 6 2.473-1.017 4.973-1.017 7.5 0 .199-2.46.865-4.793 2-7a57.642 57.642 0 015.5 7c4.877-2.02 8.543-.686 11 4l3-5a35.147 35.147 0 005 10c1.054-2.254 2.554-2.587 4.5-1a4.451 4.451 0 002-1.5c-1.367-2.301-2.034-4.801-2-7.5 1.175-.219 2.175.114 3 1a101.29 101.29 0 003 7.5 749.408 749.408 0 008.5 4.5c1.612 5.891 4.279 11.225 8 16-.337 3.683 1.163 6.016 4.5 7-.219 1.175.114 1.175 1 2 .5.5 1 0 1 0 .65-.304 1.317-.637 2-1a46.643 46.643 0 016 5.5 20.093 20.093 0 006 1.5v-5a12.988 12.988 0 005.5-1c1.477.944 2.477 2.277 3 4a89.869 89.869 0 000 15l1-1c1.811 2.897 1.978 5.897.5 9a84.156 84.156 0 006 10.5c-.909 1.789-1.076 3.623-.5 5.5a29.768 29.768 0 017-6c2.798 1.189 5.464.856 8-1 3.999 1.157 4.499 3.157 1.5 6l3 2.5c-3.903 4.745-6.07 10.245-6.5 16.5l-4 2a37.143 37.143 0 01-2.5 8l1 1c2.844-1.603 5.844-2.103 9-1.5 3.337 3.973 7.003 7.473 11 10.5a48.716 48.716 0 00-3 9c3.706-.79 7.372-1.79 11-3 1.667.333 2.667 1.333 3 3a39.76 39.76 0 00-3.5 7 64.783 64.783 0 00-11 8c.152 1.576.985 2.909 2.5 4-1.291 2.459-3.291 3.959-6 4.5 4.636 3.094 7.969 7.261 10 12.5a3.647 3.647 0 01-1 1.5c6.491 6.148 10.491 13.648 12 22.5a14.972 14.972 0 013.5 3c-1.082 2.793-1.415 5.793-1 9a1742.07 1742.07 0 017 10l1 9c5.576 8.495 8.91 17.828 10 28a17.335 17.335 0 003.5 7 4.457 4.457 0 01-2 1.5c5.956 8.614 7.289 17.78 4 27.5a139.233 139.233 0 014 10.5 263.681 263.681 0 000 45.5 93.946 93.946 0 00-1 32 920.953 920.953 0 00-7.5 53 12800.055 12800.055 0 01-31 107l-9 23c-12.708 20.419-23.041 42.086-31 65a168.616 168.616 0 00-22 31 317.58 317.58 0 00-31 42c-12.185 34.765-9.852 68.432 7 101a373.806 373.806 0 0142 50l12 14a2985.841 2985.841 0 0081.5 78v2a6834505.323 6834505.323 0 00-563 374 672.387 672.387 0 0110.5-83 611.528 611.528 0 0039-54 1192.826 1192.826 0 0058-83l14-18a266.473 266.473 0 0016.5-52.5c-38.62-47.41-77.12-94.908-115.5-142.5-5.253-4.38-11.086-7.88-17.5-10.5a6994.397 6994.397 0 00-51-1.5 2115.752 2115.752 0 01-92 1.5c-13.001.312-23.501-4.521-31.5-14.5-6.975-6.902-11.309-15.235-13-25a296.271 296.271 0 01.5-41c-3.487-16.971-11.653-31.304-24.5-43-2.44-7.955-1.773-15.622 2-23L75.5 740c-4.732-5.726-10.399-10.393-17-14a69.088 69.088 0 01-4.5-6.5c-1.413-8.059-.413-15.725 3-23 4.027-14.735.193-26.901-11.5-36.5A239.236 239.236 0 014 634.5l-3.5-7v-15a189.361 189.361 0 0012.5-23 148.31 148.31 0 0014-15 1667.319 1667.319 0 0024-49 122.861 122.861 0 0015-21 579.156 579.156 0 006.5-18c-1.996-2.827-4.496-5.161-7.5-7a15.83 15.83 0 00-3.5-5.5c3.968.368 7.968.868 12 1.5a37.937 37.937 0 00-2.5-8 41.042 41.042 0 01-6-9 170.723 170.723 0 01-23-21c-.5-5.657-.666-11.324-.5-17a24.96 24.96 0 007.5-2c.072-19.566 5.072-37.899 15-55a232.16 232.16 0 0022-39 149.776 149.776 0 004-18 58.306 58.306 0 006.5-19.5c-.49-1.982-1.49-3.649-3-5-7.153-.422-13.82-2.422-20-6a601.645 601.645 0 00-27-19L37 245.5a145.055 145.055 0 00-11-20A161.474 161.474 0 0115.5 178c.835-10.045 2.835-20.045 6-30l1-1.5c2.964 1.621 4.964.788 6-2.5a4.934 4.934 0 013-.5c-.18-2.454.487-4.621 2-6.5-1.623-3.616-1.29-6.95 1-10-.837-1.011-1.17-2.178-1-3.5l6 1v-6h3a4.932 4.932 0 00.5 3c.493-1.634.66-3.301.5-5h3a31.12 31.12 0 011-11c2.828 1.496 4.494 3.829 5 7 .825.886 1.825 1.219 3 1a4.932 4.932 0 01.5-3c1.896-1.18 3.396-2.68 4.5-4.5-2.13-3.87-2.297-7.703-.5-11.5l3 3a24.364 24.364 0 001.5-10h3c.924-4.29 1.591-8.624 2-13 4.702 1.826 8.37.493 11-4 2.4 2.034 5.067 2.2 8 .5a60.727 60.727 0 003.5-6.5c2.72-1.161 5.054-.494 7 2a8.902 8.902 0 003-4l5-15a74.162 74.162 0 014 9c1.356.88 2.856 1.214 4.5 1a54.771 54.771 0 014-14c1.017 2.528 2.184 2.528 3.5 0 1.327 2.632 2.66 5.298 4 8a121.383 121.383 0 007-13l2 2a21.574 21.574 0 015.5-7l3 6c3.9-9.4 10.4-16.4 19.5-21 2.233 2.247 3.9 1.58 5-2a7.292 7.292 0 012 3 63.74 63.74 0 009-10c1.11 3.779 2.61 3.946 4.5.5 2.99-.847 4.324.32 4 3.5 2.222-.322 4.056.345 5.5 2 2.718-2.27 4.551-5.104 5.5-8.5 5.32-1.455 10.653-1.788 16-1a26.078 26.078 0 005-3.5c1.978 2.7 2.311 5.533 1 8.5 2.515 1.713 5.182 1.88 8 .5a31.589 31.589 0 015-6 135.25 135.25 0 007.5-3l1.5 1c-2.26 1.907-2.427 3.907-.5 6a11.529 11.529 0 014.5-3.5 77.6 77.6 0 0010 0c1.798-3.156 4.298-3.99 7.5-2.5 1.409-1.281 2.909-2.281 4.5-3z"/><defs><linearGradient id="ba" x1="415" y1=".5" x2="415" y2="1343.5" gradientUnits="userSpaceOnUse"><stop stop-color="#04112F"/><stop offset="1" stop-color="#051A5E"/></linearGradient></defs></svg><svg viewBox="0 0 40 36" id="telegram" xmlns="http://www.w3.org/2000/svg"><path d="M37.04.003c-.518.024-1.005.175-1.437.343h-.007c-.438.174-2.524 1.052-5.692 2.38l-11.36 4.785c-8.151 3.432-16.164 6.81-16.164 6.81l.096-.036s-.553.18-1.13.577a3.145 3.145 0 00-.902.872c-.282.415-.51 1.052-.426 1.707.138 1.112.86 1.78 1.376 2.146a4.552 4.552 0 001.022.547h.012l7.514 2.53c.336 1.083 2.29 7.502 2.759 8.981.276.884.547 1.437.883 1.857.163.217.355.397.584.541.09.054.186.097.282.133.03.018.06.024.096.03l-.078-.018c.024.006.042.024.06.03.06.018.102.024.18.036 1.19.36 2.146-.379 2.146-.379l.055-.042 4.436-4.04 7.435 5.705.168.072c1.551.68 3.12.3 3.95-.367.835-.673 1.16-1.532 1.16-1.532l.054-.139 5.746-29.435c.163-.728.205-1.407.024-2.068-.18-.661-.643-1.28-1.202-1.61a2.88 2.88 0 00-1.64-.416zm-.157 3.156c-.006.096.012.084-.03.27v.019L31.16 32.577c-.024.042-.066.132-.18.222-.12.096-.216.156-.715-.042l-9.095-6.973-5.494 5.008 1.154-7.37 14.86-13.85c.613-.57.408-.69.408-.69.042-.698-.925-.205-.925-.205L12.436 20.284l-.006-.03-8.98-3.023v-.006c-.006 0-.018-.006-.024-.006a.415.415 0 00.048-.018l.048-.024.048-.018 16.17-6.81c4.081-1.72 8.193-3.451 11.354-4.786 3.162-1.328 5.5-2.302 5.633-2.356.126-.048.066-.048.156-.048z"/></svg><svg viewBox="0 0 9 18" id="tooltip-info" xmlns="http://www.w3.org/2000/svg"><path d="M8.515 16.058l-.252 1.028c-.754.297-1.357.524-1.806.68-.449.156-.971.234-1.566.234-.913 0-1.624-.224-2.13-.668-.507-.446-.76-1.012-.76-1.698 0-.265.018-.539.056-.817.039-.278.1-.592.184-.943l.943-3.337c.084-.32.155-.623.212-.91.058-.284.086-.545.086-.781 0-.426-.088-.724-.264-.892-.176-.167-.511-.252-1.009-.252a2.67 2.67 0 00-.75.114c-.256.076-.475.15-.66.218l.253-1.03a23.605 23.605 0 011.773-.645 5.303 5.303 0 011.603-.269c.907 0 1.607.22 2.099.658.491.439.737 1.007.737 1.708 0 .145-.016.401-.05.766a5.121 5.121 0 01-.19 1.007l-.939 3.324a8.828 8.828 0 00-.206.915 4.713 4.713 0 00-.092.777c0 .442.099.743.296.903.199.16.541.24 1.027.24.229 0 .488-.04.777-.12.288-.08.498-.15.628-.21zm.238-13.956a1.94 1.94 0 01-.657 1.48 2.236 2.236 0 01-1.581.613 2.261 2.261 0 01-1.59-.612c-.442-.407-.663-.902-.663-1.481 0-.578.221-1.073.663-1.485A2.25 2.25 0 016.515 0c.616 0 1.143.206 1.581.617.439.412.657.907.657 1.485z"/></svg><svg viewBox="0 0 40 24" id="vk" xmlns="http://www.w3.org/2000/svg"><path d="M35.604 16.596s3.234 3.194 4.034 4.672a.255.255 0 01.036.07c.326.546.406.974.246 1.29-.27.522-1.184.784-1.494.806H32.71c-.398 0-1.226-.104-2.234-.8-.77-.538-1.536-1.424-2.278-2.29-1.108-1.286-2.066-2.402-3.036-2.402-.122 0-.244.02-.36.06-.734.232-1.666 1.278-1.666 4.064 0 .872-.688 1.368-1.17 1.368h-2.618c-.892 0-5.536-.312-9.654-4.654C4.648 13.464.116 2.8.072 2.706c-.282-.69.31-1.066.95-1.066h5.772c.774 0 1.026.468 1.202.888.204.482.96 2.41 2.2 4.576 2.008 3.524 3.242 4.958 4.228 4.958.185 0 .367-.048.528-.14 1.288-.708 1.048-5.308.988-6.256 0-.184-.002-2.054-.662-2.958-.472-.648-1.276-.9-1.762-.992a2.09 2.09 0 01.76-.646c.882-.44 2.476-.504 4.058-.504h.878c1.716.024 2.16.134 2.784.292 1.256.3 1.28 1.114 1.17 3.886a64.916 64.916 0 00-.066 2.734c0 .224-.01.474-.01.728-.038 1.422-.088 3.024.916 3.682a.82.82 0 00.434.124c.348 0 1.39 0 4.216-4.85 1.24-2.142 2.2-4.668 2.266-4.858.056-.106.224-.404.428-.524a.958.958 0 01.472-.112h6.79c.74 0 1.242.112 1.34.392.164.454-.032 1.84-3.132 6.032-.522.698-.98 1.302-1.382 1.83-2.81 3.688-2.81 3.874.166 6.674z"/></svg><svg viewBox="0 0 697 285" id="work-1" xmlns="http://www.w3.org/2000/svg"><path fill-rule="evenodd" clip-rule="evenodd" d="M561.435.61c13.115-.29 26.219 0 39.303.87 6.935 6.351 9.431 14.18 7.489 23.487 23.923-1.03 47.631.42 71.123 4.35 7.162 5.754 9.346 13.003 6.55 21.746a194.327 194.327 0 01-21.523 13.919c.892 1.7 2.138 3.15 3.742 4.35 7.562.301 15.05 1.171 22.458 2.61-3.639 3.096-6.131 6.866-7.485 11.308a88.883 88.883 0 0010.293 18.267 94.941 94.941 0 012.807 23.488 790.092 790.092 0 00-8.423 101.777c-2.607 14.841-9.157 27.889-19.65 39.146a2359.505 2359.505 0 01-145.988 14.788 893.322 893.322 0 00-107.623-5.22 1722.962 1722.962 0 00-107.619 3.48l-24.332-1.74a71.473 71.473 0 0114.973-4.349 2041.52 2041.52 0 00-154.412 11.308 804.329 804.329 0 00-133.823-6.959v-17.398c2.2.381 4.071-.198 5.615-1.739-11.9-9.383-16.268-21.271-13.102-35.666a968.425 968.425 0 013.744-46.105 396.683 396.683 0 01-.936-55.673c2.924-4.275 4.795-8.915 5.615-13.918a720.196 720.196 0 012.807-46.104c-2.782-5.154-4.654-10.664-5.615-16.529.131-2.212.755-4.242 1.872-6.089a262.598 262.598 0 0137.433-15.658 709.14 709.14 0 0184.225 3.48c47.445.983 94.861.983 142.246 0a789.289 789.289 0 00-58.022 12.178A34940.678 34940.678 0 00561.435.61zM48.6 58.023a82.35 82.35 0 0116.845.87L47.664 75.42a725.23 725.23 0 00.936-17.398zm89.839 0c6.7.462 7.324 2.782 1.872 6.959-1.738-2.068-2.362-4.388-1.872-6.96zM72.932 71.94c17.853-1.097 25.651 6.442 23.395 22.617-10.606 11.599-21.212 11.599-31.818 0-1.248-4.639-1.248-9.278 0-13.918 3.195-2.675 6.003-5.575 8.423-8.699zm69.251 0c16.801-.332 23.975 7.207 21.524 22.617-9.801 11.561-19.783 11.561-29.947 0-1.248-4.639-1.248-9.278 0-13.918 3.196-2.675 6.003-5.575 8.423-8.699zm-78.61 36.536c6.037-.156 11.652 1.004 16.845 3.479 5.212-2.765 10.827-3.635 16.845-2.609l6.551 9.568c4.454 14.885 6.95 29.963 7.486 45.235a21.16 21.16 0 00-4.679 3.479c3.128 6.723 4.064 13.682 2.808 20.878-5.721 1.655-11.648 2.234-17.78 1.74a133.058 133.058 0 01-2.809 31.316c-6.238 4.64-12.477 4.64-18.716 0a262.726 262.726 0 01-.936-31.316c-5.955 2.307-12.194 3.177-18.716 2.609-.335-8.919.912-17.907 3.743-26.966-4.582.722-7.077-1.018-7.487-5.22a367.96 367.96 0 0010.294-43.494 47.526 47.526 0 016.551-8.699zm61.765 0c8.955-1.15 17.065.59 24.331 5.219 6.495-5.035 13.982-6.485 22.46-4.349 2.249 1.57 3.809 3.599 4.68 6.089a128.905 128.905 0 01-1.872 38.275l-7.487 6.959a1076.883 1076.883 0 01-8.422 62.633l-9.359 1.739c-4.7.369-8.756-.791-12.166-3.479a1211.725 1211.725 0 00-7.486-60.893c-3.207-2.397-5.702-5.297-7.487-8.699a164.698 164.698 0 01-1.872-36.535 28.621 28.621 0 014.68-6.959zm74.866 17.397c13.714-2.036 19.641 3.183 17.781 15.659-7.487 9.278-14.973 9.278-22.46 0-2.008-6.263-.449-11.482 4.679-15.659zm59.893 0h29.947v8.7c-3.682-.417-7.114.163-10.294 1.739-.936 11.004-1.247 22.022-.936 33.056h11.23c.632 5.787-2.175 8.687-8.423 8.699a323.974 323.974 0 01-22.46-3.479c-1.248-1.161-1.248-2.319 0-3.48 3.542-1.096 6.662-2.836 9.359-5.219a262.957 262.957 0 00.935-31.316h-11.23c-.25-3.117.373-6.017 1.872-8.7zm44.92 0c12.552-1.9 23.469 1 32.754 8.7 2.508 15.937-5.289 24.056-23.396 24.357v17.397c-3.077.373-5.884-.208-8.422-1.739a3655.485 3655.485 0 00-.936-48.715zm78.61 0c2.473-.295 4.658.285 6.55 1.74a316.876 316.876 0 010 48.714c-2.538 1.531-5.346 2.112-8.422 1.74a137.34 137.34 0 00-.936-22.617l-9.358 8.699a57.055 57.055 0 01-8.422-8.699 101.905 101.905 0 00-2.808 19.138c-1.872 2.319-3.743 2.319-5.615 0a91.42 91.42 0 010-26.097c6.176-3.579 5.864-5.319-.936-5.22-.741-5.188.507-9.827 3.744-13.918 5.938 5.225 9.992 11.604 12.165 19.138 1.344 1.654 2.903 1.944 4.679.87a179.885 179.885 0 019.359-23.488zm37.435 0c3.534-.353 6.342.806 8.419 3.48a3311.433 3311.433 0 0115.911 46.974c-3.55 1.681-7.292 2.26-11.23 1.74a112.32 112.32 0 00-3.743-19.137c-4.538-.536-8.904.044-13.104 1.739-1.415 6.05-3.284 11.848-5.615 17.398h-7.485c2.812-18.388 8.427-35.786 16.847-52.194zm37.43 0c7.512-.287 15 .003 22.462.87 11.127 8.328 12.373 17.896 3.742 28.707a47.919 47.919 0 015.616 13.918c-.085 4.678-2.581 6.999-7.489 6.959.439-11.309-5.177-17.688-16.842-19.137v19.137c-2.477.296-4.662-.283-6.554-1.739a1765.106 1765.106 0 00-.935-48.715zm50.535 0h29.946v8.7c-4.288-.447-8.346.133-12.165 1.739a292.707 292.707 0 00-.935 33.056h11.231c.511 3.395-.739 6.004-3.746 7.829a734.113 734.113 0 01-20.589-.87 13.673 13.673 0 01-.934 6.96 24.15 24.15 0 00-4.677-9.569 94.015 94.015 0 0010.292-9.569 117.1 117.1 0 000-29.576c-3.181-1.577-6.611-2.157-10.292-1.74-.127-2.538.496-4.858 1.869-6.96zm46.792 0c4.496-.186 7.927 1.554 10.293 5.22a12654.53 12654.53 0 0011.23 24.357 53.531 53.531 0 012.808-10.439 55.68 55.68 0 01-1.869-19.138h7.484c.312 16.829 0 33.647-.934 50.454-4.193 2.382-7.623 1.512-10.296-2.609a6.337 6.337 0 001.873-2.61 270.256 270.256 0 01-14.039-22.617l-1.869 26.097c-1.873 2.319-3.746 2.319-5.615 0-.512-16.602-.2-32.84.934-48.715zM190.846 151.97c5.839-.598 11.142.561 15.909 3.48 6.957-4.496 13.819-4.496 20.588 0 .992 9.924.369 19.783-1.871 29.576l-5.615 5.22a130.045 130.045 0 01-6.551 33.926c-4.865 1.338-9.544 1.047-14.037-.87a382.354 382.354 0 01-5.615-33.056c-5.539-4.52-8.035-10.321-7.487-17.398a40.891 40.891 0 010-17.398c1.862-.984 3.421-2.145 4.679-3.48zm400.535 52.194c2.111 3.702 2.427 7.761.934 12.179-4.707-3.25-5.019-7.311-.934-12.179zm-101.069 12.179c22.788-.803 23.723.937 2.807 5.219-6.615-.496-7.554-2.235-2.807-5.219zm-69.25 10.438c3.346-.495 6.465.084 9.357 1.74-3.596 1.985-7.338 2.276-11.23.87 1.038-.666 1.665-1.536 1.873-2.61zm-271.393 5.22c27.568-.334 28.504 1.986 2.808 6.959l-8.423-.87c2.265-1.808 4.137-3.838 5.615-6.089zm-24.331 6.959c1.64-.228 2.888.351 3.743 1.74-4.32 2.388-5.568 1.809-3.743-1.74zm445.454 8.699a37.08 37.08 0 0111.231.87c-2.104 1.816-4.596 2.975-7.488 3.479a93.542 93.542 0 00-14.973 2.61c-1.512-.536-2.762-1.406-3.743-2.61a253.04 253.04 0 0014.973-4.349z"/><path fill-rule="evenodd" clip-rule="evenodd" d="M465.981 134.574c12.365-3.047 17.042 1.013 14.034 12.178-3.342 4.979-7.707 6.139-13.1 3.48a66.186 66.186 0 01-.934-15.658zm-43.05 8.698c3.004 1.37 4.25 3.689 3.742 6.96h-5.611c-.127-2.538.496-4.858 1.869-6.96z"/></svg></svg>