<svg width="1301" height="964" viewBox="0 0 1301 964" fill="none" xmlns="http://www.w3.org/2000/svg">
<path fill-rule="evenodd" clip-rule="evenodd" d="M258 899.7C258 898.302 259.12 897.168 260.5 897.168C261.88 897.168 263 898.302 263 899.7C263 901.097 261.88 902.231 260.5 902.231C259.12 902.231 258 901.097 258 899.7ZM957 919.952C957 918.554 958.12 917.42 959.5 917.42C960.88 917.42 962 918.554 962 919.952C962 921.35 960.88 922.483 959.5 922.483C958.12 922.483 957 921.35 957 919.952ZM1102 384.284C1102 382.886 1103.12 381.752 1104.5 381.752C1105.88 381.752 1107 382.886 1107 384.284C1107 385.682 1105.88 386.815 1104.5 386.815C1103.12 386.815 1102 385.682 1102 384.284ZM1060 567.565C1060 566.167 1061.12 565.034 1062.5 565.034C1063.88 565.034 1065 566.167 1065 567.565C1065 568.964 1063.88 570.097 1062.5 570.097C1061.12 570.097 1060 568.964 1060 567.565ZM396 870.334C396 868.936 397.119 867.803 398.5 867.803C399.881 867.803 401 868.936 401 870.334C401 871.732 399.881 872.866 398.5 872.866C397.119 872.866 396 871.732 396 870.334ZM620 951.342C620 949.944 621.119 948.811 622.5 948.811C623.881 948.811 625 949.944 625 951.342C625 952.741 623.881 953.874 622.5 953.874C621.119 953.874 620 952.741 620 951.342ZM875 747.809C875 746.41 876.119 745.277 877.5 745.277C878.881 745.277 880 746.41 880 747.809C880 749.207 878.881 750.34 877.5 750.34C876.119 750.34 875 749.207 875 747.809ZM826 899.7C826 898.301 827.119 897.168 828.5 897.168C829.881 897.168 831 898.301 831 899.7C831 901.098 829.881 902.231 828.5 902.231C827.119 902.231 826 901.098 826 899.7ZM426 961.468C426 960.07 427.119 958.937 428.5 958.937C429.881 958.937 431 960.07 431 961.468C431 962.867 429.881 964 428.5 964C427.119 964 426 962.867 426 961.468ZM703.937 802.939C704.244 804.302 703.402 805.659 702.056 805.97C700.71 806.28 699.371 805.428 699.063 804.065C698.756 802.703 699.598 801.346 700.944 801.035C702.29 800.724 703.629 801.576 703.937 802.939ZM282.937 711.804C283.244 713.167 282.402 714.524 281.056 714.835C279.71 715.146 278.37 714.294 278.063 712.931C277.756 711.568 278.598 710.211 279.944 709.9C281.289 709.589 282.63 710.442 282.937 711.804ZM985.937 498.145C986.244 499.507 985.402 500.864 984.056 501.175C982.71 501.487 981.37 500.634 981.063 499.271C980.756 497.908 981.598 496.552 982.944 496.24C984.29 495.93 985.63 496.783 985.937 498.145ZM859.936 292.586C860.244 293.949 859.403 295.306 858.056 295.616C856.71 295.928 855.37 295.075 855.064 293.712C854.756 292.35 855.597 290.992 856.944 290.682C858.29 290.371 859.63 291.222 859.936 292.586ZM942.937 160.947C943.244 162.31 942.402 163.667 941.056 163.978C939.711 164.289 938.371 163.437 938.063 162.074C937.756 160.711 938.598 159.354 939.944 159.043C941.289 158.732 942.629 159.585 942.937 160.947ZM622.937 173.099C623.244 174.461 622.402 175.818 621.056 176.129C619.711 176.44 618.371 175.588 618.063 174.225C617.756 172.862 618.598 171.505 619.944 171.194C621.289 170.883 622.629 171.736 622.937 173.099ZM451.937 243.981C452.244 245.344 451.402 246.7 450.056 247.012C448.711 247.323 447.371 246.47 447.063 245.108C446.756 243.745 447.598 242.388 448.944 242.077C450.289 241.765 451.629 242.618 451.937 243.981ZM310.937 72.8505C311.244 74.2131 310.402 75.5703 309.056 75.8811C307.71 76.1929 306.37 75.34 306.063 73.9773C305.756 72.6146 306.598 71.2581 307.944 70.9462C309.29 70.6354 310.63 71.4883 310.937 72.8505ZM127.937 469.792C128.244 471.154 127.402 472.511 126.056 472.822C124.71 473.134 123.371 472.281 123.063 470.918C122.756 469.556 123.598 468.199 124.944 467.887C126.289 467.577 127.63 468.43 127.937 469.792ZM4.93665 656.111C5.24414 657.473 4.40222 658.831 3.05603 659.142C1.71033 659.453 0.369995 658.6 0.0631104 657.238C-0.243774 655.875 0.598022 654.519 1.94373 654.207C3.28943 653.896 4.62976 654.749 4.93665 656.111ZM494 137.208C494 135.81 495.119 134.676 496.5 134.676C497.881 134.676 499 135.81 499 137.208C499 138.606 497.881 139.74 496.5 139.74C495.119 139.74 494 138.606 494 137.208ZM568 2.53149C568 1.13306 569.119 0 570.5 0C571.881 0 573 1.13306 573 2.53149C573 3.92987 571.881 5.06299 570.5 5.06299C569.119 5.06299 568 3.92987 568 2.53149ZM324 262.771C324 261.373 325.119 260.24 326.5 260.24C327.881 260.24 329 261.373 329 262.771C329 264.169 327.881 265.302 326.5 265.302C325.119 265.302 324 264.169 324 262.771ZM1068 246.569C1068 245.171 1069.12 244.038 1070.5 244.038C1071.88 244.038 1073 245.171 1073 246.569C1073 247.968 1071.88 249.101 1070.5 249.101C1069.12 249.101 1068 247.968 1068 246.569ZM96 554.401C96 553.003 97.119 551.87 98.5 551.87C99.881 551.87 101 553.003 101 554.401C101 555.8 99.881 556.933 98.5 556.933C97.119 556.933 96 555.8 96 554.401ZM804 64.3004C804 62.9025 805.12 61.7689 806.5 61.7689C807.88 61.7689 809 62.9025 809 64.3004C809 65.6983 807.88 66.8319 806.5 66.8319C805.12 66.8319 804 65.6983 804 64.3004ZM1296 94.6785C1296 93.2806 1297.12 92.147 1298.5 92.147C1299.88 92.147 1301 93.2806 1301 94.6785C1301 96.0765 1299.88 97.2101 1298.5 97.2101C1297.12 97.2101 1296 96.0765 1296 94.6785ZM1236 742.746C1236 741.348 1237.12 740.214 1238.5 740.214C1239.88 740.214 1241 741.348 1241 742.746C1241 744.144 1239.88 745.277 1238.5 745.277C1237.12 745.277 1236 744.144 1236 742.746ZM118 117.968C118 116.571 119.12 115.437 120.5 115.437C121.88 115.437 123 116.571 123 117.968C123 119.366 121.88 120.5 120.5 120.5C119.12 120.5 118 119.366 118 117.968ZM205 328.59C205 327.192 206.12 326.059 207.5 326.059C208.88 326.059 210 327.192 210 328.59C210 329.988 208.88 331.122 207.5 331.122C206.12 331.122 205 329.988 205 328.59ZM161 720.468C161 719.071 162.12 717.937 163.5 717.937C164.88 717.937 166 719.071 166 720.468C166 721.866 164.88 723 163.5 723C162.12 723 161 721.866 161 720.468ZM683 864.258C683 862.86 684.12 861.727 685.5 861.727C686.88 861.727 688 862.86 688 864.258C688 865.656 686.88 866.79 685.5 866.79C684.12 866.79 683 865.656 683 864.258Z" fill="white"/>
</svg>
